{
.appVersion = "1361";
DisplayStrings = (
"/shhadescender-cy",
h
);
classes = (
{
automatic = 1;

glyphs = (
{
glyphname = A;
lastChange = "2017-06-13 18:22:22 +0000";
layers = (
{
anchors = (
{
name = above;
position = "{400, 1079}";
},
{
name = accent;
position = "{400, 869}";
},
{
name = below;
position = "{400, -167}";
},
{
name = bottom;
position = "{676, 8}";
}
);
hints = (
{
horizontal = 1;
origin = "{0, 17}";
target = up;
type = BottomGhost;
},
{
horizontal = 1;
origin = "{1, 3}";
target = "{1, 2}";
type = Stem;
},
{
horizontal = 1;
origin = "{0, 13}";
target = "{0, 4}";
type = Stem;
}
);
layerId = "880850B5-8983-48F5-8B3B-C79FAB21DC5C";
paths = (
{
closed = 1;
nodes = (
"126 0 LINE",
"323 612 LINE SMOOTH",
"334 646 OFFCURVE",
"367 665 OFFCURVE",
"400 665 CURVE SMOOTH",
"433 665 OFFCURVE",
"465 645 OFFCURVE",
"476 612 CURVE SMOOTH",
"675 0 LINE",
"738 0 LINE",
"532 632 LINE SMOOTH",
"513 690 OFFCURVE",
"461 725 OFFCURVE",
"400 725 CURVE SMOOTH",
"339 725 OFFCURVE",
"286 690 OFFCURVE",
"267 632 CURVE SMOOTH",
"62 0 LINE"
);
},
{
closed = 1;
nodes = (
"616 185 LINE",
"616 238 LINE",
"185 238 LINE",
"185 185 LINE"
);
}
);
width = 800;
},
{
anchors = (
{
name = above;
position = "{400, 1079}";
},
{
name = accent;
position = "{401, 869}";
},
{
name = below;
position = "{401, -167}";
},
{
name = bottom;
position = "{675, 8}";
}
);
hints = (
{
horizontal = 1;
origin = "{0, 17}";
target = up;
type = BottomGhost;
},
{
horizontal = 1;
origin = "{1, 3}";
target = "{1, 2}";
type = Stem;
},
{
horizontal = 1;
origin = "{0, 13}";
target = "{0, 1}";
type = Stem;
}
);
layerId = "F6EA0DC9-EF0B-4EA3-BC35-C878CD5534E5";
paths = (
{
closed = 1;
nodes = (
"195 0 LINE",
"372 546 LINE SMOOTH",
"376 557 OFFCURVE",
"388 565 OFFCURVE",
"401 565 CURVE SMOOTH",
"414 565 OFFCURVE",
"425 558 OFFCURVE",
"429 546 CURVE SMOOTH",
"607 0 LINE",
"774 0 LINE",
"581 598 LINE SMOOTH",
"554 674 OFFCURVE",
"482 725 OFFCURVE",
"401 725 CURVE SMOOTH",
"320 725 OFFCURVE",
"245 675 OFFCURVE",
"220 598 CURVE SMOOTH",
"26 0 LINE"
);
},
{
closed = 1;
nodes = (
"585 120 LINE",
"585 280 LINE",
"216 280 LINE",
"216 120 LINE"
);
}
);
width = 800;
},
{
associatedMasterId = "F6EA0DC9-EF0B-4EA3-BC35-C878CD5534E5";
layerId = "1EF0607D-4C14-48F8-902C-6A00EC7A84B5";
width = 600;
}
);
leftKerningGroup = A;
rightKerningGroup = A;
unicode = 0041;
},
{
glyphname = A.ss01;
lastChange = "2017-06-05 15:40:41 +0000";
layers = (
{
anchors = (
{
name = accent;
position = "{400, 869}";
},
{
name = below;
position = "{400, -167}";
},
{
name = bottom;
position = "{676, 8}";
}
);
hints = (
{
horizontal = 1;
origin = "{0, 17}";
target = up;
type = BottomGhost;
},
{
horizontal = 1;
origin = "{0, 13}";
target = "{0, 4}";
type = Stem;
}
);
layerId = "880850B5-8983-48F5-8B3B-C79FAB21DC5C";
paths = (
{
closed = 1;
nodes = (
"126 0 LINE",
"323 612 LINE SMOOTH",
"334 645 OFFCURVE",
"367 665 OFFCURVE",
"400 665 CURVE",
"433 665 OFFCURVE",
"465 645 OFFCURVE",
"476 612 CURVE SMOOTH",
"675 0 LINE",
"738 0 LINE",
"532 632 LINE",
"512 689 OFFCURVE",
"461 725 OFFCURVE",
"400 725 CURVE",
"339 725 OFFCURVE",
"286 690 OFFCURVE",
"267 632 CURVE SMOOTH",
"62 0 LINE"
);
}
);
width = 800;
},
{
anchors = (
{
name = accent;
position = "{401, 869}";
},
{
name = below;
position = "{401, -167}";
},
{
name = bottom;
position = "{675, 8}";
}
);
hints = (
{
horizontal = 1;
origin = "{0, 17}";
target = up;
type = BottomGhost;
},
{
horizontal = 1;
origin = "{0, 13}";
target = "{0, 1}";
type = Stem;
}
);
layerId = "F6EA0DC9-EF0B-4EA3-BC35-C878CD5534E5";
paths = (
{
closed = 1;
nodes = (
"195 0 LINE",
"372 546 LINE",
"376 557 OFFCURVE",
"388 565 OFFCURVE",
"401 565 CURVE",
"414 565 OFFCURVE",
"425 558 OFFCURVE",
"429 546 CURVE",
"607 0 LINE",
"774 0 LINE",
"581 598 LINE",
"554 674 OFFCURVE",
"482 725 OFFCURVE",
"401 725 CURVE",
"320 725 OFFCURVE",
"245 676 OFFCURVE",
"220 598 CURVE SMOOTH",
"26 0 LINE"
);
}
);
width = 800;
},
{
associatedMasterId = "F6EA0DC9-EF0B-4EA3-BC35-C878CD5534E5";
layerId = "1EF0607D-4C14-48F8-902C-6A00EC7A84B5";
width = 600;
}
);
leftKerningGroup = A;
leftMetricsKey = A;
rightKerningGroup = A;
rightMetricsKey = A;
},
{
glyphname = A.ss02;
lastChange = "2017-06-05 15:40:38 +0000";
layers = (
{
anchors = (
{
name = accent;
position = "{378, 869}";
},
{
name = below;
position = "{378, -167}";
},
{
name = bottom;
position = "{654, 8}";
}
);
components = (
{
name = A.ss01;
}
);
hints = (
{
horizontal = 1;
place = "{0, 21}";
target = up;
type = BottomGhost;
},
{
horizontal = 1;
place = "{725, -60}";
type = Stem;
}
);
layerId = "880850B5-8983-48F5-8B3B-C79FAB21DC5C";
paths = (
{
closed = 1;
nodes = (
"405 185 OFFCURVE",
"428 208 OFFCURVE",
"428 235 CURVE SMOOTH",
"428 263 OFFCURVE",
"405 285 OFFCURVE",
"378 285 CURVE SMOOTH",
"350 285 OFFCURVE",
"328 263 OFFCURVE",
"328 235 CURVE SMOOTH",
"328 208 OFFCURVE",
"350 185 OFFCURVE",
"378 185 CURVE SMOOTH"
);
}
);
width = 800;
},
{
anchors = (
{
name = accent;
position = "{415, 869}";
},
{
name = below;
position = "{415, -167}";
},
{
name = bottom;
position = "{689, 8}";
}
);
components = (
{
name = A.ss01;
}
);
hints = (
{
horizontal = 1;
origin = "{0, 11}";
target = "{0, 5}";
type = Stem;
},
{
place = "{329, 172}";
type = Stem;
}
);
layerId = "F6EA0DC9-EF0B-4EA3-BC35-C878CD5534E5";
paths = (
{
closed = 1;
nodes = (
"463 111 OFFCURVE",
"501 149 OFFCURVE",
"501 197 CURVE SMOOTH",
"501 245 OFFCURVE",
"463 283 OFFCURVE",
"415 283 CURVE SMOOTH",
"367 283 OFFCURVE",
"329 245 OFFCURVE",
"329 197 CURVE SMOOTH",
"329 149 OFFCURVE",
"367 111 OFFCURVE",
"415 111 CURVE SMOOTH"
);
}
);
width = 800;
},
{
associatedMasterId = "F6EA0DC9-EF0B-4EA3-BC35-C878CD5534E5";
layerId = "1EF0607D-4C14-48F8-902C-6A00EC7A84B5";
width = 600;
}
);
leftKerningGroup = A;
leftMetricsKey = A;
rightKerningGroup = A;
rightMetricsKey = A;
},
{
glyphname = A.ss03;
lastChange = "2017-06-05 15:40:36 +0000";
layers = (
{
anchors = (
{
name = accent;
position = "{400, 869}";
},
{
name = below;
position = "{400, -167}";
},
{
name = bottom;
position = "{646, 8}";
}
);
hints = (
{
horizontal = 1;
origin = "{0, 26}";
target = "{0, 10}";
type = Stem;
},
{
horizontal = 1;
origin = "{0, 22}";
target = "{0, 4}";
type = Stem;
}
);
layerId = "880850B5-8983-48F5-8B3B-C79FAB21DC5C";
paths = (
{
closed = 1;
nodes = (
"126 0 LINE",
"323 612 LINE SMOOTH",
"334 646 OFFCURVE",
"367 665 OFFCURVE",
"400 665 CURVE SMOOTH",
"433 665 OFFCURVE",
"466 644 OFFCURVE",
"476 612 CURVE SMOOTH",
"663 34 LINE",
"682 60 LINE",
"205 60 LINE",
"186 0 LINE",
"666 0 LINE SMOOTH",
"698 0 OFFCURVE",
"720 17 OFFCURVE",
"720 42 CURVE SMOOTH",
"720 51 OFFCURVE",
"718 62 OFFCURVE",
"716 68 CURVE SMOOTH",
"532 632 LINE SMOOTH",
"513 689 OFFCURVE",
"461 725 OFFCURVE",
"400 725 CURVE SMOOTH",
"339 725 OFFCURVE",
"286 689 OFFCURVE",
"267 632 CURVE SMOOTH",
"62 0 LINE"
);
}
);
width = 800;
},
{
anchors = (
{
name = accent;
position = "{401, 869}";
},
{
name = below;
position = "{401, -167}";
},
{
name = bottom;
position = "{615, 8}";
}
);
hints = (
{
horizontal = 1;
origin = "{0, 26}";
target = "{0, 10}";
type = Stem;
},
{
horizontal = 1;
origin = "{0, 22}";
target = "{0, 1}";
type = Stem;
}
);
layerId = "F6EA0DC9-EF0B-4EA3-BC35-C878CD5534E5";
paths = (
{
closed = 1;
nodes = (
"195 0 LINE",
"372 546 LINE SMOOTH",
"376 557 OFFCURVE",
"388 565 OFFCURVE",
"401 565 CURVE SMOOTH",
"414 565 OFFCURVE",
"425 558 OFFCURVE",
"429 546 CURVE SMOOTH",
"567 124 LINE",
"593 160 LINE",
"307 160 LINE",
"255 0 LINE",
"631 0 LINE SMOOTH",
"700 0 OFFCURVE",
"738 32 OFFCURVE",
"738 87 CURVE SMOOTH",
"738 102 OFFCURVE",
"736 118 OFFCURVE",
"730 136 CURVE SMOOTH",
"581 598 LINE SMOOTH",
"556 675 OFFCURVE",
"482 725 OFFCURVE",
"401 725 CURVE SMOOTH",
"320 725 OFFCURVE",
"245 676 OFFCURVE",
"220 598 CURVE SMOOTH",
"26 0 LINE"
);
}
);
width = 800;
},
{
associatedMasterId = "F6EA0DC9-EF0B-4EA3-BC35-C878CD5534E5";
layerId = "1EF0607D-4C14-48F8-902C-6A00EC7A84B5";
width = 600;
}
);
leftKerningGroup = A;
leftMetricsKey = A;
rightKerningGroup = A;
},
{
glyphname = AE;
lastChange = "2017-06-05 15:41:09 +0000";
layers = (
{
layerId = "F6EA0DC9-EF0B-4EA3-BC35-C878CD5534E5";
paths = (
{
closed = 1;
nodes = (
"195 0 LINE",
"364 521 LINE SMOOTH",
"368 532 OFFCURVE",
"380 540 OFFCURVE",
"393 540 CURVE SMOOTH",
"1006 540 LINE",
"1006 700 LINE",
"393 700 LINE SMOOTH",
"312 700 OFFCURVE",
"237 651 OFFCURVE",
"212 573 CURVE SMOOTH",
"26 0 LINE"
);
},
{
closed = 1;
nodes = (
"1006 0 LINE",
"1006 160 LINE",
"610 160 LINE",
"610 270 LINE",
"844 270 LINE",
"844 430 LINE",
"611 430 LINE",
"611 573 LINE",
"451 573 LINE",
"451 280 LINE",
"216 280 LINE",
"216 120 LINE",
"451 120 LINE",
"451 60 LINE SMOOTH",
"451 21 OFFCURVE",
"472 0 OFFCURVE",
"511 0 CURVE SMOOTH"
);
}
);
width = 1078;
},
{
hints = (
{
horizontal = 1;
origin = "{0, 11}";
target = "{1, 13}";
type = Stem;
},
{
horizontal = 1;
origin = "{1, 11}";
target = "{1, 10}";
type = Stem;
},
{
horizontal = 1;
origin = "{1, 3}";
target = "{1, 6}";
type = Stem;
},
{
horizontal = 1;
origin = "{0, 7}";
target = "{0, 4}";
type = Stem;
},
{
place = "{465, 60}";
type = Stem;
}
);
layerId = "880850B5-8983-48F5-8B3B-C79FAB21DC5C";
paths = (
{
closed = 1;
nodes = (
"126 0 LINE",
"315 587 LINE SMOOTH",
"327 618 OFFCURVE",
"359 640 OFFCURVE",
"392 640 CURVE SMOOTH",
"972 640 LINE",
"972 700 LINE",
"392 700 LINE SMOOTH",
"331 700 OFFCURVE",
"279 664 OFFCURVE",
"259 607 CURVE SMOOTH",
"62 0 LINE"
);
},
{
closed = 1;
nodes = (
"972 0 LINE",
"972 60 LINE",
"527 60 LINE",
"527 320 LINE",
"850 320 LINE",
"850 380 LINE",
"527 380 LINE",
"527 655 LINE",
"467 655 LINE",
"467 238 LINE",
"162 238 LINE",
"162 185 LINE",
"467 185 LINE",
"467 60 LINE SMOOTH",
"467 21 OFFCURVE",
"488 0 OFFCURVE",
"527 0 CURVE SMOOTH"
);
}
);
width = 1059;
}
);
leftKerningGroup = A;
leftMetricsKey = A;
rightKerningGroup = E;
rightMetricsKey = E;
unicode = 00C6;
},
{
glyphname = B;
lastChange = "2017-06-01 10:08:25 +0000";
layers = (
{
hints = (
{
horizontal = 1;
origin = "{0, 21}";
target = "{0, 18}";
type = Stem;
},
{
horizontal = 1;
origin = "{1, 0}";
target = "{2, 8}";
type = Stem;
},
{
horizontal = 1;
origin = "{0, 14}";
target = "{0, 17}";
type = Stem;
},
{
place = "{83, 60}";
type = Stem;
},
{
place = "{657, 60}";
type = Stem;
},
{
place = "{617, 60}";
type = Stem;
}
);
layerId = "880850B5-8983-48F5-8B3B-C79FAB21DC5C";
paths = (
{
closed = 1;
nodes = (
"527 0 LINE SMOOTH",
"632 0 OFFCURVE",
"717 85 OFFCURVE",
"717 190 CURVE SMOOTH",
"717 281 OFFCURVE",
"664 353 OFFCURVE",
"579 374 CURVE",
"585 347 LINE",
"640 380 OFFCURVE",
"677 441 OFFCURVE",
"677 510 CURVE SMOOTH",
"677 615 OFFCURVE",
"592 700 OFFCURVE",
"487 700 CURVE SMOOTH",
"143 700 LINE SMOOTH",
"104 700 OFFCURVE",
"83 679 OFFCURVE",
"83 640 CURVE SMOOTH",
"83 60 LINE SMOOTH",
"83 21 OFFCURVE",
"104 0 OFFCURVE",
"143 0 CURVE SMOOTH"
);
},
{
closed = 1;
nodes = (
"143 320 LINE",
"527 320 LINE SMOOTH",
"599 320 OFFCURVE",
"657 262 OFFCURVE",
"657 190 CURVE SMOOTH",
"657 118 OFFCURVE",
"599 60 OFFCURVE",
"527 60 CURVE SMOOTH",
"143 60 LINE"
);
},
{
closed = 1;
nodes = (
"143 640 LINE",
"487 640 LINE SMOOTH",
"559 640 OFFCURVE",
"617 582 OFFCURVE",
"617 510 CURVE SMOOTH",
"617 438 OFFCURVE",
"559 380 OFFCURVE",
"487 380 CURVE SMOOTH",
"143 380 LINE"
);
}
);
width = 800;
},
{
hints = (
{
horizontal = 1;
origin = "{0, 21}";
target = "{1, 8}";
type = Stem;
},
{
horizontal = 1;
origin = "{1, 0}";
target = "{2, 8}";
type = Stem;
},
{
horizontal = 1;
origin = "{0, 14}";
target = "{2, 0}";
type = Stem;
},
{
place = "{63, 160}";
type = Stem;
},
{
place = "{578, 160}";
type = Stem;
},
{
place = "{538, 160}";
type = Stem;
}
);
layerId = "F6EA0DC9-EF0B-4EA3-BC35-C878CD5534E5";
paths = (
{
closed = 1;
nodes = (
"523 0 LINE SMOOTH",
"641 0 OFFCURVE",
"738 97 OFFCURVE",
"738 215 CURVE SMOOTH",
"738 289 OFFCURVE",
"700 354 OFFCURVE",
"644 392 CURVE",
"650 350 LINE",
"681 388 OFFCURVE",
"698 435 OFFCURVE",
"698 485 CURVE SMOOTH",
"698 603 OFFCURVE",
"601 700 OFFCURVE",
"483 700 CURVE SMOOTH",
"143 700 LINE SMOOTH",
"91 700 OFFCURVE",
"63 672 OFFCURVE",
"63 620 CURVE SMOOTH",
"63 80 LINE SMOOTH",
"63 28 OFFCURVE",
"91 0 OFFCURVE",
"143 0 CURVE SMOOTH"
);
},
{
closed = 1;
nodes = (
"223 270 LINE",
"523 270 LINE SMOOTH",
"554 270 OFFCURVE",
"578 246 OFFCURVE",
"578 215 CURVE SMOOTH",
"578 184 OFFCURVE",
"554 160 OFFCURVE",
"523 160 CURVE SMOOTH",
"223 160 LINE"
);
},
{
closed = 1;
nodes = (
"223 540 LINE",
"483 540 LINE SMOOTH",
"514 540 OFFCURVE",
"538 516 OFFCURVE",
"538 485 CURVE SMOOTH",
"538 454 OFFCURVE",
"514 430 OFFCURVE",
"483 430 CURVE SMOOTH",
"223 430 LINE"
);
}
);
width = 800;
}
);
leftKerningGroup = B;
rightKerningGroup = B;
unicode = 0042;
},
{
glyphname = C;
lastChange = "2017-06-06 15:44:31 +0000";
layers = (
{
anchors = (
{
name = accent;
position = "{435, 869}";
},
{
name = bottom;
position = "{435, -16}";
}
);
hints = (
{
horizontal = 1;
origin = "{0, 25}";
target = "{0, 6}";
type = Stem;
},
{
horizontal = 1;
origin = "{0, 19}";
target = "{0, 12}";
type = Stem;
},
{
place = "{60, 60}";
type = Stem;
}
);
layerId = "880850B5-8983-48F5-8B3B-C79FAB21DC5C";
paths = (
{
closed = 1;
nodes = (
"574 -25 OFFCURVE",
"695 50 OFFCURVE",
"760 162 CURVE",
"708 192 LINE",
"653 91 OFFCURVE",
"542 35 OFFCURVE",
"435 35 CURVE SMOOTH",
"229 35 OFFCURVE",
"120 203 OFFCURVE",
"120 350 CURVE SMOOTH",
"120 493 OFFCURVE",
"230 665 OFFCURVE",
"435 665 CURVE SMOOTH",
"564 665 OFFCURVE",
"660 594 OFFCURVE",
"708 508 CURVE",
"760 538 LINE",
"695 650 OFFCURVE",
"574 725 OFFCURVE",
"435 725 CURVE SMOOTH",
"228 725 OFFCURVE",
"60 557 OFFCURVE",
"60 350 CURVE SMOOTH",
"60 143 OFFCURVE",
"228 -25 OFFCURVE",
"435 -25 CURVE SMOOTH"
);
}
);
width = 840;
},
{
anchors = (
{
name = accent;
position = "{435, 869}";
},
{
name = bottom;
position = "{435, -16}";
}
);
hints = (
{
horizontal = 1;
origin = "{0, 25}";
target = "{0, 6}";
type = Stem;
},
{
horizontal = 1;
origin = "{0, 19}";
target = "{0, 12}";
type = Stem;
},
{
place = "{60, 160}";
type = Stem;
}
);
layerId = "F6EA0DC9-EF0B-4EA3-BC35-C878CD5534E5";
paths = (
{
closed = 1;
nodes = (
"574 -25 OFFCURVE",
"695 50 OFFCURVE",
"760 162 CURVE",
"622 242 LINE",
"585 183 OFFCURVE",
"525 135 OFFCURVE",
"435 135 CURVE SMOOTH",
"315 135 OFFCURVE",
"220 230 OFFCURVE",
"220 350 CURVE SMOOTH",
"220 470 OFFCURVE",
"315 565 OFFCURVE",
"435 565 CURVE SMOOTH",
"525 565 OFFCURVE",
"585 517 OFFCURVE",
"622 458 CURVE",
"760 538 LINE",
"695 650 OFFCURVE",
"574 725 OFFCURVE",
"435 725 CURVE SMOOTH",
"228 725 OFFCURVE",
"60 557 OFFCURVE",
"60 350 CURVE SMOOTH",
"60 143 OFFCURVE",
"228 -25 OFFCURVE",
"435 -25 CURVE SMOOTH"
);
}
);
width = 840;
}
);
leftKerningGroup = C;
rightKerningGroup = C;
unicode = 0043;
},
{
glyphname = D;
lastChange = "2022-10-16 00:33:57 +0000";
layers = (
{
anchors = (
{
name = accent;
position = "{376, 869}";
},
{
name = bar;
position = "{110, 360}";
},
{
name = stroke;
position = "{110, 360}";
}
);
layerId = "880850B5-8983-48F5-8B3B-C79FAB21DC5C";
paths = (
{
closed = 1;
nodes = (
"390 0 LINE SMOOTH",
"584 0 OFFCURVE",
"740 158 OFFCURVE",
"740 350 CURVE SMOOTH",
"740 542 OFFCURVE",
"584 700 OFFCURVE",
"390 700 CURVE SMOOTH",
"140 700 LINE SMOOTH",
"101 700 OFFCURVE",
"80 679 OFFCURVE",
"80 640 CURVE SMOOTH",
"80 60 LINE SMOOTH",
"80 21 OFFCURVE",
"101 0 OFFCURVE",
"140 0 CURVE SMOOTH"
);
},
{
closed = 1;
nodes = (
"140 640 LINE",
"390 640 LINE SMOOTH",
"551 640 OFFCURVE",
"680 509 OFFCURVE",
"680 350 CURVE SMOOTH",
"680 191 OFFCURVE",
"551 60 OFFCURVE",
"390 60 CURVE SMOOTH",
"140 60 LINE"
);
}
);
width = 800;
},
{
anchors = (
{
name = accent;
position = "{395, 869}";
},
{
name = bar;
position = "{160, 350}";
},
{
name = stroke;
position = "{160, 350}";
}
);
hints = (
{
horizontal = 1;
origin = "{0, 14}";
target = "{0, 11}";
type = Stem;
},
{
horizontal = 1;
origin = "{0, 7}";
target = "{0, 10}";
type = Stem;
},
{
place = "{80, 160}";
type = Stem;
},
{
place = "{580, 160}";
type = Stem;
}
);
layerId = "F6EA0DC9-EF0B-4EA3-BC35-C878CD5534E5";
paths = (
{
closed = 1;
nodes = (
"410 -10 LINE SMOOTH",
"609 -10 OFFCURVE",
"770 151 OFFCURVE",
"770 350 CURVE SMOOTH",
"770 549 OFFCURVE",
"609 710 OFFCURVE",
"410 710 CURVE SMOOTH",
"240 710 LINE SMOOTH",
"136 710 OFFCURVE",
"80 654 OFFCURVE",
"80 550 CURVE SMOOTH",
"80 150 LINE SMOOTH",
"80 46 OFFCURVE",
"136 -10 OFFCURVE",
"240 -10 CURVE SMOOTH"
);
},
{
closed = 1;
nodes = (
"240 550 LINE",
"410 550 LINE SMOOTH",
"520 550 OFFCURVE",
"610 460 OFFCURVE",
"610 350 CURVE SMOOTH",
"610 240 OFFCURVE",
"520 150 OFFCURVE",
"410 150 CURVE SMOOTH",
"240 150 LINE"
);
}
);
width = 830;
}
);
leftKerningGroup = D;
rightKerningGroup = D;
unicode = 0044;
},
{
glyphname = E;
lastChange = "2017-06-13 18:22:25 +0000";
layers = (
{
anchors = (
{
name = above;
position = "{381, 1079}";
},
{
name = accent;
position = "{381, 869}";
},
{
name = below;
position = "{381, -167}";
},
{
name = bottom;
position = "{380, 8}";
}
);
hints = (
{
horizontal = 1;
origin = "{0, 13}";
target = "{0, 10}";
type = Stem;
},
{
horizontal = 1;
origin = "{1, 3}";
target = "{1, 2}";
type = Stem;
},
{
horizontal = 1;
origin = "{0, 6}";
target = "{0, 9}";
type = Stem;
},
{
place = "{108, 68}";
type = Stem;
}
);
layerId = "880850B5-8983-48F5-8B3B-C79FAB21DC5C";
paths = (
{
closed = 1;
nodes = (
"673 0 LINE",
"673 60 LINE",
"148 60 LINE",
"148 640 LINE",
"673 640 LINE",
"673 700 LINE",
"148 700 LINE SMOOTH",
"109 700 OFFCURVE",
"88 679 OFFCURVE",
"88 640 CURVE SMOOTH",
"88 60 LINE SMOOTH",
"88 21 OFFCURVE",
"109 0 OFFCURVE",
"148 0 CURVE SMOOTH"
);
},
{
closed = 1;
nodes = (
"511 320 LINE",
"511 380 LINE",
"118 380 LINE",
"118 320 LINE"
);
}
);
width = 760;
},
{
anchors = (
{
name = above;
position = "{391, 1079}";
},
{
name = accent;
position = "{391, 869}";
},
{
name = below;
position = "{391, -167}";
},
{
name = bottom;
position = "{396, 8}";
}
);
guideLines = (
{
angle = 90;
position = "{398, 773}";
}
);
hints = (
{
horizontal = 1;
origin = "{0, 13}";
target = "{0, 10}";
type = Stem;
},
{
horizontal = 1;
origin = "{0, 6}";
target = "{0, 9}";
type = Stem;
},
{
place = "{73, 153}";
type = Stem;
}
);
layerId = "F6EA0DC9-EF0B-4EA3-BC35-C878CD5534E5";
paths = (
{
closed = 1;
nodes = (
"688 0 LINE",
"688 160 LINE",
"233 160 LINE",
"233 540 LINE",
"688 540 LINE",
"688 700 LINE",
"233 700 LINE SMOOTH",
"129 700 OFFCURVE",
"73 644 OFFCURVE",
"73 540 CURVE SMOOTH",
"73 160 LINE SMOOTH",
"73 56 OFFCURVE",
"129 0 OFFCURVE",
"233 0 CURVE SMOOTH"
);
},
{
closed = 1;
nodes = (
"546 270 LINE",
"546 430 LINE",
"153 430 LINE",
"153 270 LINE"
);
}
);
width = 760;
}
);
leftKerningGroup = E;
rightKerningGroup = E;
unicode = 0045;
},
{
glyphname = E.ss01;
lastChange = "2017-06-05 15:41:05 +0000";
layers = (
{
anchors = (
{
name = above;
position = "{381, 1049}";
},
{
name = accent;
position = "{381, 869}";
},
{
name = bottom;
position = "{380, 8}";
}
);
hints = (
{
horizontal = 1;
origin = "{0, 13}";
target = "{0, 10}";
type = Stem;
},
{
horizontal = 1;
origin = "{0, 9}";
target = "{0, 6}";
type = Stem;
},
{
horizontal = 1;
origin = "{1, 2}";
target = "{1, 3}";
type = Stem;
},
{
place = "{80, 60}";
type = Stem;
}
);
layerId = "880850B5-8983-48F5-8B3B-C79FAB21DC5C";
paths = (
{
closed = 1;
nodes = (
"673 0 LINE",
"673 60 LINE",
"148 60 LINE",
"148 317 LINE",
"673 317 LINE",
"673 377 LINE",
"148 377 LINE SMOOTH",
"109 377 OFFCURVE",
"88 356 OFFCURVE",
"88 317 CURVE SMOOTH",
"88 60 LINE SMOOTH",
"88 21 OFFCURVE",
"109 0 OFFCURVE",
"148 0 CURVE SMOOTH"
);
},
{
closed = 1;
nodes = (
"673 640 LINE",
"673 700 LINE",
"98 700 LINE",
"98 640 LINE"
);
}
);
width = 760;
},
{
anchors = (
{
name = above;
position = "{391, 1049}";
},
{
name = accent;
position = "{391, 869}";
},
{
name = bottom;
position = "{396, 8}";
}
);
hints = (
{
horizontal = 1;
origin = "{0, 13}";
target = "{0, 10}";
type = Stem;
},
{
horizontal = 1;
origin = "{0, 9}";
target = "{0, 6}";
type = Stem;
},
{
horizontal = 1;
origin = "{1, 2}";
target = "{1, 3}";
type = Stem;
},
{
place = "{80, 160}";
type = Stem;
}
);
layerId = "F6EA0DC9-EF0B-4EA3-BC35-C878CD5534E5";
paths = (
{
closed = 1;
nodes = (
"688 0 LINE",
"688 160 LINE",
"233 160 LINE",
"233 270 LINE",
"688 270 LINE",
"688 430 LINE",
"233 430 LINE SMOOTH",
"129 430 OFFCURVE",
"73 374 OFFCURVE",
"73 270 CURVE SMOOTH",
"73 160 LINE SMOOTH",
"73 56 OFFCURVE",
"129 0 OFFCURVE",
"233 0 CURVE SMOOTH"
);
},
{
closed = 1;
nodes = (
"689 540 LINE",
"689 700 LINE",
"103 700 LINE",
"103 540 LINE"
);
}
);
width = 761;
}
);
leftKerningGroup = E;
leftMetricsKey = E;
rightKerningGroup = E;
rightMetricsKey = E;
},
{
glyphname = F;
lastChange = "2017-06-01 10:09:50 +0000";
layers = (
{
hints = (
{
horizontal = 1;
origin = "{0, 8}";
target = up;
type = BottomGhost;
},
{
horizontal = 1;
origin = "{1, 3}";
target = "{1, 2}";
type = Stem;
},
{
horizontal = 1;
origin = "{0, 4}";
target = "{0, 7}";
type = Stem;
},
{
place = "{88, 60}";
type = Stem;
}
);
layerId = "880850B5-8983-48F5-8B3B-C79FAB21DC5C";
paths = (
{
closed = 1;
nodes = (
"148 0 LINE",
"148 640 LINE",
"613 640 LINE",
"613 700 LINE",
"148 700 LINE SMOOTH",
"109 700 OFFCURVE",
"88 679 OFFCURVE",
"88 640 CURVE SMOOTH",
"88 0 LINE"
);
},
{
closed = 1;
nodes = (
"451 320 LINE",
"451 380 LINE",
"118 380 LINE",
"118 320 LINE"
);
}
);
width = 700;
},
{
hints = (
{
horizontal = 1;
origin = "{0, 8}";
target = up;
type = BottomGhost;
},
{
horizontal = 1;
origin = "{1, 3}";
target = "{1, 2}";
type = Stem;
},
{
horizontal = 1;
origin = "{0, 4}";
target = "{0, 7}";
type = Stem;
},
{
place = "{63, 160}";
type = Stem;
}
);
layerId = "F6EA0DC9-EF0B-4EA3-BC35-C878CD5534E5";
paths = (
{
closed = 1;
nodes = (
"223 0 LINE",
"223 540 LINE",
"638 540 LINE",
"638 700 LINE",
"223 700 LINE SMOOTH",
"119 700 OFFCURVE",
"63 644 OFFCURVE",
"63 540 CURVE SMOOTH",
"63 0 LINE"
);
},
{
closed = 1;
nodes = (
"476 270 LINE",
"476 430 LINE",
"143 430 LINE",
"143 270 LINE"
);
}
);
width = 700;
}
);
leftKerningGroup = F;
rightKerningGroup = F;
unicode = 0046;
},
{
glyphname = G;
lastChange = "2017-06-01 10:11:32 +0000";
layers = (
{
anchors = (
{
name = accent;
position = "{437, 869}";
}
);
hints = (
{
horizontal = 1;
origin = "{0, 35}";
target = "{0, 16}";
type = Stem;
},
{
horizontal = 1;
origin = "{0, 11}";
target = "{0, 10}";
type = Stem;
},
{
horizontal = 1;
origin = "{0, 29}";
target = "{0, 22}";
type = Stem;
},
{
place = "{60, 60}";
type = Stem;
},
{
place = "{694, 60}";
type = Stem;
}
);
layerId = "880850B5-8983-48F5-8B3B-C79FAB21DC5C";
paths = (
{
closed = 1;
nodes = (
"555 -25 OFFCURVE",
"661 32 OFFCURVE",
"731 121 CURVE SMOOTH",
"749 144 OFFCURVE",
"754 165 OFFCURVE",
"754 195 CURVE SMOOTH",
"754 320 LINE SMOOTH",
"754 359 OFFCURVE",
"733 380 OFFCURVE",
"694 380 CURVE SMOOTH",
"437 380 LINE",
"437 320 LINE",
"694 320 LINE",
"694 172 LINE",
"636 88 OFFCURVE",
"542 35 OFFCURVE",
"435 35 CURVE SMOOTH",
"263 35 OFFCURVE",
"120 178 OFFCURVE",
"120 350 CURVE SMOOTH",
"120 522 OFFCURVE",
"263 665 OFFCURVE",
"435 665 CURVE SMOOTH",
"522 665 OFFCURVE",
"601 630 OFFCURVE",
"657 572 CURVE",
"700 614 LINE",
"633 683 OFFCURVE",
"539 725 OFFCURVE",
"435 725 CURVE SMOOTH",
"230 725 OFFCURVE",
"60 555 OFFCURVE",
"60 350 CURVE SMOOTH",
"60 145 OFFCURVE",
"230 -25 OFFCURVE",
"435 -25 CURVE SMOOTH"
);
}
);
width = 820;
},
{
anchors = (
{
name = accent;
position = "{435, 869}";
}
);
guideLines = (
{
position = "{435, 350}";
},
{
angle = 90;
position = "{435, 350}";
},
{
angle = 45;
position = "{435, 350}";
}
);
hints = (
{
horizontal = 1;
origin = "{0, 35}";
target = "{0, 16}";
type = Stem;
},
{
horizontal = 1;
origin = "{0, 11}";
target = "{0, 10}";
type = Stem;
},
{
horizontal = 1;
origin = "{0, 29}";
target = "{0, 22}";
type = Stem;
},
{
place = "{60, 160}";
type = Stem;
},
{
place = "{594, 160}";
type = Stem;
}
);
layerId = "F6EA0DC9-EF0B-4EA3-BC35-C878CD5534E5";
paths = (
{
closed = 1;
nodes = (
"550 -25 OFFCURVE",
"655 27 OFFCURVE",
"722 110 CURVE SMOOTH",
"747 141 OFFCURVE",
"754 169 OFFCURVE",
"754 208 CURVE SMOOTH",
"754 350 LINE SMOOTH",
"754 402 OFFCURVE",
"726 430 OFFCURVE",
"674 430 CURVE SMOOTH",
"437 430 LINE",
"437 270 LINE",
"594 270 LINE",
"594 206 LINE",
"554 163 OFFCURVE",
"497 135 OFFCURVE",
"435 135 CURVE SMOOTH",
"318 135 OFFCURVE",
"220 233 OFFCURVE",
"220 350 CURVE SMOOTH",
"220 467 OFFCURVE",
"318 565 OFFCURVE",
"435 565 CURVE SMOOTH",
"497 565 OFFCURVE",
"545 543 OFFCURVE",
"586 502 CURVE",
"700 614 LINE",
"633 683 OFFCURVE",
"539 725 OFFCURVE",
"435 725 CURVE SMOOTH",
"230 725 OFFCURVE",
"60 555 OFFCURVE",
"60 350 CURVE SMOOTH",
"60 145 OFFCURVE",
"230 -25 OFFCURVE",
"435 -25 CURVE SMOOTH"
);
}
);
width = 820;
}
);
leftKerningGroup = G;
leftMetricsKey = C;
rightKerningGroup = G;
unicode = 0047;
},
{
glyphname = Yogh;
lastChange = "2017-04-27 23:03:47 +0000";
layers = (
{
layerId = "880850B5-8983-48F5-8B3B-C79FAB21DC5C";
paths = (
{
closed = 1;
nodes = (
"431 0 LINE SMOOTH",
"536 0 OFFCURVE",
"621 85 OFFCURVE",
"621 190 CURVE SMOOTH",
"621 295 OFFCURVE",
"536 380 OFFCURVE",
"431 380 CURVE SMOOTH",
"224 380 LINE",
"229 365 LINE",
"589 609 LINE SMOOTH",
"605 620 OFFCURVE",
"612 636 OFFCURVE",
"612 651 CURVE SMOOTH",
"612 676 OFFCURVE",
"593 700 OFFCURVE",
"561 700 CURVE SMOOTH",
"89 700 LINE",
"89 640 LINE",
"554 640 LINE",
"549 655 LINE",
"197 413 LINE SMOOTH",
"181 402 OFFCURVE",
"173 385 OFFCURVE",
"173 370 CURVE SMOOTH",
"173 344 OFFCURVE",
"193 320 OFFCURVE",
"226 320 CURVE SMOOTH",
"431 320 LINE SMOOTH",
"503 320 OFFCURVE",
"561 262 OFFCURVE",
"561 190 CURVE SMOOTH",
"561 118 OFFCURVE",
"503 60 OFFCURVE",
"431 60 CURVE SMOOTH",
"237 60 LINE SMOOTH",
"192 60 OFFCURVE",
"153 83 OFFCURVE",
"129 117 CURVE",
"80 84 LINE",
"114 33 OFFCURVE",
"171 0 OFFCURVE",
"237 0 CURVE SMOOTH"
);
}
);
width = 701;
},
{
layerId = "F6EA0DC9-EF0B-4EA3-BC35-C878CD5534E5";
paths = (
{
closed = 1;
nodes = (
"459 -50 LINE SMOOTH",
"577 -50 OFFCURVE",
"674 47 OFFCURVE",
"674 165 CURVE SMOOTH",
"674 283 OFFCURVE",
"578 380 OFFCURVE",
"459 380 CURVE SMOOTH",
"394 380 LINE",
"403 355 LINE",
"612 533 LINE SMOOTH",
"635 552 OFFCURVE",
"645 578 OFFCURVE",
"645 603 CURVE SMOOTH",
"645 652 OFFCURVE",
"607 700 OFFCURVE",
"549 700 CURVE SMOOTH",
"115 700 LINE",
"115 540 LINE",
"411 540 LINE",
"402 565 LINE",
"193 387 LINE SMOOTH",
"170 368 OFFCURVE",
"160 342 OFFCURVE",
"160 317 CURVE SMOOTH",
"160 268 OFFCURVE",
"198 220 OFFCURVE",
"256 220 CURVE SMOOTH",
"459 220 LINE SMOOTH",
"490 220 OFFCURVE",
"514 196 OFFCURVE",
"514 165 CURVE SMOOTH",
"514 134 OFFCURVE",
"490 110 OFFCURVE",
"459 110 CURVE SMOOTH",
"259 110 LINE SMOOTH",
"240 110 OFFCURVE",
"223 119 OFFCURVE",
"213 134 CURVE",
"80 46 LINE",
"119 -12 OFFCURVE",
"185 -50 OFFCURVE",
"259 -50 CURVE SMOOTH"
);
}
);
width = 754;
}
);
unicode = 021C;
},
{
glyphname = H;
lastChange = "2017-06-01 10:10:59 +0000";
layers = (
{
anchors = (
{
name = bar;
position = "{402, 542}";
}
);
hints = (
{
horizontal = 1;
origin = "{1, 3}";
target = up;
type = BottomGhost;
},
{
horizontal = 1;
origin = "{2, 3}";
target = "{2, 2}";
type = Stem;
},
{
horizontal = 1;
origin = "{1, 2}";
target = down;
type = TopGhost;
},
{
place = "{108, 60}";
type = Stem;
},
{
place = "{633, 60}";
type = Stem;
}
);
layerId = "880850B5-8983-48F5-8B3B-C79FAB21DC5C";
paths = (
{
closed = 1;
nodes = (
"693 0 LINE",
"693 700 LINE",
"633 700 LINE",
"633 0 LINE"
);
},
{
closed = 1;
nodes = (
"168 0 LINE",
"168 700 LINE",
"108 700 LINE",
"108 0 LINE"
);
},
{
closed = 1;
nodes = (
"666 320 LINE",
"666 380 LINE",
"138 380 LINE",
"138 320 LINE"
);
}
);
width = 800;
},
{
anchors = (
{
name = bar;
position = "{402, 557}";
}
);
hints = (
{
horizontal = 1;
origin = "{1, 3}";
target = up;
type = BottomGhost;
},
{
horizontal = 1;
origin = "{2, 3}";
target = "{2, 2}";
type = Stem;
},
{
horizontal = 1;
origin = "{1, 2}";
target = down;
type = TopGhost;
},
{
place = "{83, 160}";
type = Stem;
},
{
place = "{558, 160}";
type = Stem;
}
);
layerId = "F6EA0DC9-EF0B-4EA3-BC35-C878CD5534E5";
paths = (
{
closed = 1;
nodes = (
"718 0 LINE",
"718 700 LINE",
"558 700 LINE",
"558 0 LINE"
);
},
{
closed = 1;
nodes = (
"243 0 LINE",
"243 700 LINE",
"83 700 LINE",
"83 0 LINE"
);
},
{
closed = 1;
nodes = (
"641 270 LINE",
"641 430 LINE",
"163 430 LINE",
"163 270 LINE"
);
}
);
width = 800;
}
);
leftKerningGroup = H;
rightKerningGroup = H;
unicode = 0048;
},
{
glyphname = I;
lastChange = "2017-06-01 10:12:07 +0000";
layers = (
{
anchors = (
{
name = above;
position = "{150, 1079}";
},
{
name = accent;
position = "{150, 869}";
},
{
name = below;
position = "{150, -167}";
},
{
name = bottom;
position = "{156, 8}";
}
);
hints = (
{
horizontal = 1;
origin = "{0, 3}";
target = up;
type = BottomGhost;
},
{
horizontal = 1;
origin = "{0, 2}";
target = down;
type = TopGhost;
},
{
place = "{120, 60}";
type = Stem;
}
);
layerId = "880850B5-8983-48F5-8B3B-C79FAB21DC5C";
paths = (
{
closed = 1;
nodes = (
"180 0 LINE",
"180 700 LINE",
"120 700 LINE",
"120 0 LINE"
);
}
);
width = 300;
},
{
anchors = (
{
name = above;
position = "{150, 1079}";
},
{
name = accent;
position = "{150, 869}";
},
{
name = below;
position = "{150, -167}";
},
{
name = bottom;
position = "{142, 8}";
}
);
hints = (
{
horizontal = 1;
origin = "{0, 3}";
target = up;
type = BottomGhost;
},
{
horizontal = 1;
origin = "{0, 2}";
target = down;
type = TopGhost;
},
{
place = "{70, 160}";
type = Stem;
}
);
layerId = "F6EA0DC9-EF0B-4EA3-BC35-C878CD5534E5";
paths = (
{
closed = 1;
nodes = (
"230 0 LINE",
"230 700 LINE",
"70 700 LINE",
"70 0 LINE"
);
}
);
width = 300;
}
);
leftKerningGroup = I;
rightKerningGroup = I;
unicode = 0049;
},
{
glyphname = J;
lastChange = "2017-06-01 10:12:31 +0000";
layers = (
{
hints = (
{
horizontal = 1;
origin = "{0, 11}";
target = "{0, 10}";
type = Stem;
},
{
horizontal = 1;
origin = "{0, 5}";
target = down;
type = TopGhost;
},
{
place = "{478, 60}";
type = Stem;
}
);
layerId = "880850B5-8983-48F5-8B3B-C79FAB21DC5C";
paths = (
{
closed = 1;
nodes = (
"218 0 LINE",
"412 0 OFFCURVE",
"538 126 OFFCURVE",
"538 320 CURVE",
"538 700 LINE",
"478 700 LINE",
"478 320 LINE",
"478 159 OFFCURVE",
"379 60 OFFCURVE",
"218 60 CURVE",
"63 60 LINE",
"63 0 LINE"
);
}
);
width = 600;
},
{
hints = (
{
horizontal = 1;
origin = "{0, 11}";
target = "{0, 10}";
type = Stem;
},
{
horizontal = 1;
origin = "{0, 5}";
target = down;
type = TopGhost;
},
{
place = "{395, 160}";
type = Stem;
}
);
layerId = "F6EA0DC9-EF0B-4EA3-BC35-C878CD5534E5";
paths = (
{
closed = 1;
nodes = (
"235 0 LINE SMOOTH",
"429 0 OFFCURVE",
"555 126 OFFCURVE",
"555 320 CURVE SMOOTH",
"555 700 LINE",
"395 700 LINE",
"395 320 LINE SMOOTH",
"395 216 OFFCURVE",
"339 160 OFFCURVE",
"235 160 CURVE SMOOTH",
"80 160 LINE",
"80 0 LINE"
);
}
);
width = 600;
}
);
leftKerningGroup = J;
rightKerningGroup = J;
unicode = 004A;
},
{
glyphname = K;
lastChange = "2017-06-04 15:32:47 +0000";
layers = (
{
anchors = (
{
name = accent;
position = "{378, 869}";
}
);
hints = (
{
horizontal = 1;
origin = "{1, 3}";
target = up;
type = BottomGhost;
},
{
horizontal = 1;
origin = "{1, 2}";
target = down;
type = TopGhost;
},
{
place = "{119, 99}";
type = Stem;
},
{
place = "{229, 99}";
type = Stem;
}
);
layerId = "880850B5-8983-48F5-8B3B-C79FAB21DC5C";
paths = (
{
closed = 1;
nodes = (
"662 0 LINE",
"310 309 LINE SMOOTH",
"296 321 OFFCURVE",
"289 336 OFFCURVE",
"289 350 CURVE SMOOTH",
"289 365 OFFCURVE",
"296 379 OFFCURVE",
"310 391 CURVE SMOOTH",
"662 700 LINE",
"570 700 LINE",
"270 437 LINE SMOOTH",
"243 413 OFFCURVE",
"229 382 OFFCURVE",
"229 350 CURVE SMOOTH",
"229 319 OFFCURVE",
"243 287 OFFCURVE",
"270 263 CURVE SMOOTH",
"570 0 LINE"
);
},
{
closed = 1;
nodes = (
"179 0 LINE",
"179 700 LINE",
"119 700 LINE",
"119 0 LINE"
);
}
);
width = 780;
},
{
anchors = (
{
name = accent;
position = "{351, 869}";
}
);
hints = (
{
horizontal = 1;
origin = "{1, 3}";
target = up;
type = BottomGhost;
},
{
horizontal = 1;
origin = "{1, 2}";
target = down;
type = TopGhost;
},
{
place = "{72, 160}";
type = Stem;
},
{
place = "{266, 180}";
type = Stem;
}
);
layerId = "F6EA0DC9-EF0B-4EA3-BC35-C878CD5534E5";
paths = (
{
closed = 1;
nodes = (
"709 0 LINE",
"446 300 LINE SMOOTH",
"432 315 OFFCURVE",
"426 333 OFFCURVE",
"426 350 CURVE SMOOTH",
"426 367 OFFCURVE",
"433 385 OFFCURVE",
"446 400 CURVE SMOOTH",
"709 700 LINE",
"496 700 LINE",
"326 506 LINE SMOOTH",
"286 460 OFFCURVE",
"266 405 OFFCURVE",
"266 350 CURVE SMOOTH",
"266 295 OFFCURVE",
"285 241 OFFCURVE",
"326 194 CURVE SMOOTH",
"496 0 LINE"
);
},
{
closed = 1;
nodes = (
"232 0 LINE",
"232 700 LINE",
"72 700 LINE",
"72 0 LINE"
);
}
);
width = 780;
}
);
leftKerningGroup = K;
rightKerningGroup = K;
unicode = 004B;
},
{
glyphname = L;
lastChange = "2017-06-06 22:46:46 +0000";
layers = (
{
anchors = (
{
name = accent;
position = "{116, 869}";
},
{
name = accentside;
position = "{249, 681}";
},
{
name = slash;
position = "{114, 350}";
}
);
hints = (
{
horizontal = 1;
origin = "{0, 8}";
target = "{0, 5}";
type = Stem;
},
{
horizontal = 1;
origin = "{0, 4}";
target = down;
type = TopGhost;
},
{
place = "{43, 63}";
type = Stem;
}
);
layerId = "880850B5-8983-48F5-8B3B-C79FAB21DC5C";
paths = (
{
closed = 1;
nodes = (
"618 0 LINE",
"618 60 LINE",
"143 60 LINE",
"143 700 LINE",
"83 700 LINE",
"83 60 LINE SMOOTH",
"83 21 OFFCURVE",
"104 0 OFFCURVE",
"143 0 CURVE SMOOTH"
);
}
);
width = 700;
},
{
anchors = (
{
name = accent;
position = "{163, 869}";
},
{
name = accentside;
position = "{375, 700}";
},
{
name = slash;
position = "{164, 350}";
}
);
hints = (
{
horizontal = 1;
origin = "{0, 8}";
target = "{0, 5}";
type = Stem;
},
{
horizontal = 1;
origin = "{0, 4}";
target = down;
type = TopGhost;
},
{
place = "{83, 163}";
type = Stem;
}
);
layerId = "F6EA0DC9-EF0B-4EA3-BC35-C878CD5534E5";
paths = (
{
closed = 1;
nodes = (
"618 0 LINE",
"618 160 LINE",
"243 160 LINE",
"243 700 LINE",
"83 700 LINE",
"83 160 LINE SMOOTH",
"83 56 OFFCURVE",
"139 0 OFFCURVE",
"243 0 CURVE SMOOTH"
);
}
);
width = 700;
}
);
leftKerningGroup = L;
rightKerningGroup = L;
unicode = 004C;
},
{
glyphname = M;
lastChange = "2017-06-05 18:16:53 +0000";
layers = (
{
hints = (
{
horizontal = 1;
origin = "{0, 45}";
target = "{0, 25}";
type = Stem;
},
{
horizontal = 1;
origin = "{0, 29}";
target = "{0, 38}";
type = Stem;
},
{
horizontal = 1;
origin = "{0, 33}";
target = up;
type = BottomGhost;
}
);
layerId = "880850B5-8983-48F5-8B3B-C79FAB21DC5C";
paths = (
{
closed = 1;
nodes = (
"587 -5 OFFCURVE",
"624 18 OFFCURVE",
"630 64 CURVE SMOOTH",
"700 598 LINE SMOOTH",
"706 644 OFFCURVE",
"743 667 OFFCURVE",
"780 667 CURVE SMOOTH",
"816 667 OFFCURVE",
"853 644 OFFCURVE",
"859 597 CURVE SMOOTH",
"937 0 LINE",
"997 0 LINE",
"918 605 LINE SMOOTH",
"907 686 OFFCURVE",
"843 727 OFFCURVE",
"779 727 CURVE SMOOTH",
"715 727 OFFCURVE",
"652 686 OFFCURVE",
"641 606 CURVE SMOOTH",
"570 72 LINE",
"569 61 OFFCURVE",
"560 55 OFFCURVE",
"551 55 CURVE SMOOTH",
"542 55 OFFCURVE",
"532 61 OFFCURVE",
"531 72 CURVE SMOOTH",
"459 606 LINE SMOOTH",
"448 686 OFFCURVE",
"385 726 OFFCURVE",
"321 726 CURVE SMOOTH",
"257 726 OFFCURVE",
"193 686 OFFCURVE",
"182 605 CURVE SMOOTH",
"103 0 LINE",
"163 0 LINE",
"241 597 LINE SMOOTH",
"248 644 OFFCURVE",
"284 667 OFFCURVE",
"321 667 CURVE SMOOTH",
"357 667 OFFCURVE",
"394 644 OFFCURVE",
"400 598 CURVE SMOOTH",
"471 64 LINE SMOOTH",
"477 18 OFFCURVE",
"514 -5 OFFCURVE",
"551 -5 CURVE SMOOTH"
);
}
);
width = 1100;
},
{
hints = (
{
horizontal = 1;
origin = "{0, 45}";
target = up;
type = BottomGhost;
},
{
horizontal = 1;
origin = "{0, 29}";
target = "{0, 38}";
type = Stem;
},
{
horizontal = 1;
origin = "{0, 33}";
target = up;
type = BottomGhost;
},
{
horizontal = 1;
origin = "{0, 45}";
target = "{0, 22}";
type = Stem;
}
);
layerId = "F6EA0DC9-EF0B-4EA3-BC35-C878CD5534E5";
paths = (
{
closed = 1;
nodes = (
"635 -25 OFFCURVE",
"719 29 OFFCURVE",
"734 136 CURVE SMOOTH",
"788 543 LINE SMOOTH",
"790 559 OFFCURVE",
"801 566 OFFCURVE",
"813 566 CURVE SMOOTH",
"824 566 OFFCURVE",
"835 559 OFFCURVE",
"837 543 CURVE SMOOTH",
"908 0 LINE",
"1070 0 LINE",
"996 564 LINE SMOOTH",
"982 671 OFFCURVE",
"897 725 OFFCURVE",
"813 725 CURVE SMOOTH",
"728 725 OFFCURVE",
"643 671 OFFCURVE",
"629 564 CURVE SMOOTH",
"575 157 LINE SMOOTH",
"573 142 OFFCURVE",
"562 134 OFFCURVE",
"551 134 CURVE SMOOTH",
"539 134 OFFCURVE",
"528 142 OFFCURVE",
"526 157 CURVE SMOOTH",
"471 565 LINE SMOOTH",
"457 671 OFFCURVE",
"373 725 OFFCURVE",
"288 725 CURVE SMOOTH",
"203 725 OFFCURVE",
"119 671 OFFCURVE",
"104 564 CURVE SMOOTH",
"30 0 LINE",
"192 0 LINE",
"263 543 LINE SMOOTH",
"265 559 OFFCURVE",
"276 566 OFFCURVE",
"288 566 CURVE SMOOTH",
"299 566 OFFCURVE",
"310 559 OFFCURVE",
"312 543 CURVE SMOOTH",
"367 135 LINE SMOOTH",
"381 29 OFFCURVE",
"465 -25 OFFCURVE",
"550 -25 CURVE SMOOTH"
);
}
);
width = 1100;
}
);
leftKerningGroup = M2;
rightKerningGroup = M2;
unicode = 004D;
},
{
glyphname = M.ss01;
lastChange = "2017-04-16 11:36:05 +0000";
layers = (
{
guideLines = (
{
position = "{666, 726}";
}
);
hints = (
{
horizontal = 1;
origin = "{0, 17}";
target = up;
type = BottomGhost;
},
{
horizontal = 1;
origin = "{0, 13}";
target = "{0, 4}";
type = Stem;
},
{
place = "{20, 60}";
type = Stem;
},
{
place = "{761, 60}";
type = Stem;
}
);
layerId = "880850B5-8983-48F5-8B3B-C79FAB21DC5C";
paths = (
{
closed = 1;
nodes = (
"140 0 LINE",
"140 511 LINE",
"140 597 OFFCURVE",
"209 666 OFFCURVE",
"295 666 CURVE",
"381 666 OFFCURVE",
"451 597 OFFCURVE",
"451 511 CURVE",
"451 0 LINE",
"511 0 LINE",
"511 511 LINE",
"511 630 OFFCURVE",
"414 726 OFFCURVE",
"295 726 CURVE",
"177 726 OFFCURVE",
"80 630 OFFCURVE",
"80 511 CURVE",
"80 0 LINE"
);
},
{
closed = 1;
nodes = (
"881 0 LINE",
"881 511 LINE",
"881 630 OFFCURVE",
"785 726 OFFCURVE",
"666 726 CURVE",
"547 726 OFFCURVE",
"451 630 OFFCURVE",
"451 511 CURVE",
"511 511 LINE",
"511 597 OFFCURVE",
"580 666 OFFCURVE",
"666 666 CURVE",
"752 666 OFFCURVE",
"821 597 OFFCURVE",
"821 511 CURVE",
"821 0 LINE"
);
}
);
width = 961;
},
{
hints = (
{
horizontal = 1;
origin = "{0, 17}";
target = up;
type = BottomGhost;
},
{
horizontal = 1;
origin = "{0, 13}";
target = "{0, 4}";
type = Stem;
},
{
place = "{40, 160}";
type = Stem;
},
{
place = "{781, 160}";
type = Stem;
}
);
layerId = "F6EA0DC9-EF0B-4EA3-BC35-C878CD5534E5";
paths = (
{
closed = 1;
nodes = (
"200 0 LINE",
"200 461 LINE",
"200 519 OFFCURVE",
"247 566 OFFCURVE",
"305 566 CURVE",
"363 566 OFFCURVE",
"411 519 OFFCURVE",
"411 461 CURVE",
"411 0 LINE",
"571 0 LINE",
"571 461 LINE",
"571 607 OFFCURVE",
"451 726 OFFCURVE",
"305 726 CURVE",
"160 726 OFFCURVE",
"40 607 OFFCURVE",
"40 461 CURVE",
"40 0 LINE"
);
},
{
closed = 1;
nodes = (
"941 0 LINE",
"941 461 LINE",
"941 607 OFFCURVE",
"822 726 OFFCURVE",
"676 726 CURVE",
"530 726 OFFCURVE",
"411 607 OFFCURVE",
"411 461 CURVE",
"571 461 LINE",
"571 519 OFFCURVE",
"618 566 OFFCURVE",
"676 566 CURVE",
"734 566 OFFCURVE",
"781 519 OFFCURVE",
"781 461 CURVE",
"781 0 LINE"
);
}
);
width = 981;
}
);
leftKerningGroup = M;
rightKerningGroup = M;
},
{
glyphname = N;
lastChange = "2017-06-05 18:17:24 +0000";
layers = (
{
anchors = (
{
name = accent;
position = "{451, 869}";
}
);
hints = (
{
horizontal = 1;
origin = "{0, 31}";
target = "{0, 8}";
type = Stem;
},
{
horizontal = 1;
origin = "{0, 15}";
target = "{0, 24}";
type = Stem;
},
{
horizontal = 1;
origin = "{0, 4}";
target = down;
type = TopGhost;
},
{
horizontal = 1;
origin = "{0, 19}";
target = up;
type = BottomGhost;
},
{
place = "{122, 60}";
type = Stem;
},
{
place = "{719, 60}";
type = Stem;
}
);
layerId = "880850B5-8983-48F5-8B3B-C79FAB21DC5C";
paths = (
{
closed = 1;
nodes = (
"714 -22 OFFCURVE",
"779 39 OFFCURVE",
"779 123 CURVE SMOOTH",
"779 701 LINE",
"719 701 LINE",
"719 123 LINE SMOOTH",
"719 75 OFFCURVE",
"686 38 OFFCURVE",
"633 38 CURVE SMOOTH",
"597 38 OFFCURVE",
"563 60 OFFCURVE",
"552 100 CURVE SMOOTH",
"407 617 LINE SMOOTH",
"389 684 OFFCURVE",
"332 723 OFFCURVE",
"268 723 CURVE SMOOTH",
"215 723 OFFCURVE",
"122 686 OFFCURVE",
"122 578 CURVE SMOOTH",
"122 0 LINE",
"182 0 LINE",
"182 578 LINE SMOOTH",
"182 627 OFFCURVE",
"219 663 OFFCURVE",
"269 663 CURVE SMOOTH",
"306 663 OFFCURVE",
"337 640 OFFCURVE",
"350 601 CURVE",
"494 84 LINE SMOOTH",
"513 17 OFFCURVE",
"570 -22 OFFCURVE",
"633 -22 CURVE SMOOTH"
);
}
);
width = 900;
},
{
anchors = (
{
name = accent;
position = "{451, 869}";
}
);
guideLines = (
{
position = "{271, 726}";
}
);
hints = (
{
horizontal = 1;
origin = "{0, 31}";
target = up;
type = BottomGhost;
},
{
horizontal = 1;
origin = "{0, 4}";
target = down;
type = TopGhost;
},
{
horizontal = 1;
origin = "{0, 31}";
target = "{0, 8}";
type = Stem;
},
{
horizontal = 1;
origin = "{0, 15}";
target = down;
type = TopGhost;
},
{
horizontal = 1;
origin = "{0, 19}";
target = up;
type = BottomGhost;
},
{
horizontal = 1;
origin = "{0, 15}";
target = "{0, 24}";
type = Stem;
},
{
place = "{94, 160}";
type = Stem;
},
{
place = "{647, 160}";
type = Stem;
}
);
layerId = "F6EA0DC9-EF0B-4EA3-BC35-C878CD5534E5";
paths = (
{
closed = 1;
nodes = (
"721 -25 OFFCURVE",
"807 61 OFFCURVE",
"807 166 CURVE",
"807 701 LINE",
"647 701 LINE",
"647 166 LINE",
"647 149 OFFCURVE",
"633 135 OFFCURVE",
"617 135 CURVE",
"604 135 OFFCURVE",
"593 143 OFFCURVE",
"589 154 CURVE",
"465 596 LINE",
"440 671 OFFCURVE",
"369 726 OFFCURVE",
"285 726 CURVE",
"180 726 OFFCURVE",
"94 640 OFFCURVE",
"94 535 CURVE",
"94 0 LINE",
"254 0 LINE",
"254 535 LINE",
"254 552 OFFCURVE",
"268 566 OFFCURVE",
"285 566 CURVE",
"297 566 OFFCURVE",
"308 558 OFFCURVE",
"313 547 CURVE",
"436 105 LINE",
"461 30 OFFCURVE",
"533 -25 OFFCURVE",
"617 -25 CURVE"
);
}
);
width = 900;
},
{
associatedMasterId = "F6EA0DC9-EF0B-4EA3-BC35-C878CD5534E5";
layerId = "1EF0607D-4C14-48F8-902C-6A00EC7A84B5";
width = 600;
}
);
leftKerningGroup = N;
rightKerningGroup = N;
unicode = 004E;
},
{
glyphname = Eng;
lastChange = "2017-06-02 03:32:07 +0000";
layers = (
{
anchors = (
{
name = accent;
position = "{437, 869}";
}
);
layerId = "F6EA0DC9-EF0B-4EA3-BC35-C878CD5534E5";
paths = (
{
closed = 1;
nodes = (
"713 -25 LINE",
"713 135 LINE",
"603 135 LINE",
"590 135 OFFCURVE",
"579 143 OFFCURVE",
"575 154 CURVE",
"451 596 LINE",
"426 671 OFFCURVE",
"355 726 OFFCURVE",
"271 726 CURVE",
"166 726 OFFCURVE",
"80 640 OFFCURVE",
"80 535 CURVE",
"80 0 LINE",
"240 0 LINE",
"240 535 LINE",
"240 552 OFFCURVE",
"254 566 OFFCURVE",
"271 566 CURVE",
"283 566 OFFCURVE",
"294 558 OFFCURVE",
"299 547 CURVE",
"422 105 LINE",
"447 30 OFFCURVE",
"519 -25 OFFCURVE",
"603 -25 CURVE"
);
},
{
closed = 1;
nodes = (
"593 -230 LINE SMOOTH",
"723 -230 OFFCURVE",
"793 -160 OFFCURVE",
"793 -30 CURVE SMOOTH",
"793 701 LINE",
"633 701 LINE",
"633 -30 LINE SMOOTH",
"633 -52 OFFCURVE",
"615 -70 OFFCURVE",
"593 -70 CURVE SMOOTH",
"484 -70 LINE",
"484 -230 LINE"
);
}
);
width = 873;
},
{
anchors = (
{
name = accent;
position = "{409, 869}";
}
);
hints = (
{
horizontal = 1;
origin = "{1, 11}";
target = "{1, 10}";
type = Stem;
},
{
horizontal = 1;
origin = "{0, 25}";
target = "{0, 2}";
type = Stem;
},
{
horizontal = 1;
origin = "{1, 5}";
target = down;
type = TopGhost;
},
{
horizontal = 1;
origin = "{0, 13}";
target = up;
type = BottomGhost;
},
{
horizontal = 1;
origin = "{0, 9}";
target = "{0, 18}";
type = Stem;
},
{
place = "{20, 60}";
type = Stem;
},
{
place = "{617, 60}";
type = Stem;
}
);
layerId = "880850B5-8983-48F5-8B3B-C79FAB21DC5C";
paths = (
{
closed = 1;
nodes = (
"709 -22 LINE",
"709 38 LINE",
"591 38 LINE",
"555 38 OFFCURVE",
"521 60 OFFCURVE",
"510 100 CURVE SMOOTH",
"365 617 LINE SMOOTH",
"347 684 OFFCURVE",
"290 723 OFFCURVE",
"226 723 CURVE SMOOTH",
"173 723 OFFCURVE",
"80 686 OFFCURVE",
"80 578 CURVE SMOOTH",
"80 0 LINE",
"140 0 LINE",
"140 578 LINE SMOOTH",
"140 627 OFFCURVE",
"177 663 OFFCURVE",
"227 663 CURVE SMOOTH",
"264 663 OFFCURVE",
"295 640 OFFCURVE",
"308 601 CURVE",
"452 84 LINE SMOOTH",
"471 17 OFFCURVE",
"528 -22 OFFCURVE",
"591 -22 CURVE"
);
},
{
closed = 1;
nodes = (
"537 -230 LINE SMOOTH",
"667 -230 OFFCURVE",
"737 -160 OFFCURVE",
"737 -30 CURVE SMOOTH",
"737 701 LINE",
"677 701 LINE",
"677 -30 LINE SMOOTH",
"677 -127 OFFCURVE",
"633 -170 OFFCURVE",
"537 -170 CURVE SMOOTH",
"468 -170 LINE",
"468 -230 LINE"
);
}
);
width = 817;
}
);
leftKerningGroup = N;
rightKerningGroup = N;
unicode = 014A;
},
{
glyphname = O;
lastChange = "2017-06-06 15:43:10 +0000";
layers = (
{
anchors = (
{
name = above;
position = "{451, 1079}";
},
{
name = accent;
position = "{450, 869}";
},
{
name = below;
position = "{450, -167}";
},
{
name = bottom;
position = "{426, -17}";
},
{
name = slash;
position = "{450, 350}";
}
);
hints = (
{
horizontal = 1;
origin = "{0, 11}";
target = "{1, 11}";
type = Stem;
},
{
horizontal = 1;
origin = "{0, 5}";
target = "{1, 5}";
type = Stem;
},
{
place = "{79, 59}";
type = Stem;
},
{
place = "{763, 59}";
type = Stem;
}
);
layerId = "880850B5-8983-48F5-8B3B-C79FAB21DC5C";
paths = (
{
closed = 1;
nodes = (
"656 -25 OFFCURVE",
"822 143 OFFCURVE",
"822 350 CURVE SMOOTH",
"822 557 OFFCURVE",
"656 725 OFFCURVE",
"450 725 CURVE SMOOTH",
"245 725 OFFCURVE",
"79 557 OFFCURVE",
"79 350 CURVE SMOOTH",
"79 143 OFFCURVE",
"245 -25 OFFCURVE",
"450 -25 CURVE SMOOTH"
);
},
{
closed = 1;
nodes = (
"277 35 OFFCURVE",
"138 176 OFFCURVE",
"138 350 CURVE SMOOTH",
"138 524 OFFCURVE",
"277 665 OFFCURVE",
"450 665 CURVE SMOOTH",
"624 665 OFFCURVE",
"763 524 OFFCURVE",
"763 350 CURVE SMOOTH",
"763 176 OFFCURVE",
"624 35 OFFCURVE",
"450 35 CURVE SMOOTH"
);
}
);
width = 900;
},
{
anchors = (
{
name = above;
position = "{451, 1079}";
},
{
name = accent;
position = "{450, 869}";
},
{
name = below;
position = "{450, -167}";
},
{
name = bottom;
position = "{432, -18}";
},
{
name = slash;
position = "{450, 350}";
}
);
hints = (
{
horizontal = 1;
origin = "{0, 11}";
target = "{1, 11}";
type = Stem;
},
{
horizontal = 1;
origin = "{0, 5}";
target = "{1, 5}";
type = Stem;
},
{
place = "{79, 158}";
type = Stem;
},
{
place = "{664, 158}";
type = Stem;
}
);
layerId = "F6EA0DC9-EF0B-4EA3-BC35-C878CD5534E5";
paths = (
{
closed = 1;
nodes = (
"656 -25 OFFCURVE",
"822 143 OFFCURVE",
"822 350 CURVE SMOOTH",
"822 557 OFFCURVE",
"656 725 OFFCURVE",
"450 725 CURVE SMOOTH",
"245 725 OFFCURVE",
"79 557 OFFCURVE",
"79 350 CURVE SMOOTH",
"79 143 OFFCURVE",
"245 -25 OFFCURVE",
"450 -25 CURVE SMOOTH"
);
},
{
closed = 1;
nodes = (
"333 135 OFFCURVE",
"237 231 OFFCURVE",
"237 350 CURVE SMOOTH",
"237 469 OFFCURVE",
"333 565 OFFCURVE",
"450 565 CURVE SMOOTH",
"568 565 OFFCURVE",
"664 469 OFFCURVE",
"664 350 CURVE SMOOTH",
"664 231 OFFCURVE",
"568 135 OFFCURVE",
"450 135 CURVE SMOOTH"
);
}
);
width = 900;
}
);
leftKerningGroup = O;
rightKerningGroup = O;
unicode = 004F;
},
{
glyphname = O.ss01;
lastChange = "2017-06-05 22:15:06 +0000";
layers = (
{
anchors = (
{
name = above;
position = "{400, 1049}";
},
{
name = accent;
position = "{400, 869}";
},
{
name = bottom;
position = "{376, -17}";
},
{
name = slash;
position = "{400, 350}";
}
);
hints = (
{
horizontal = 1;
origin = "{0, 11}";
target = "{1, 11}";
type = Stem;
},
{
horizontal = 1;
origin = "{0, 5}";
target = "{1, 5}";
type = Stem;
},
{
place = "{46, 76}";
type = Stem;
},
{
place = "{635, 76}";
type = Stem;
}
);
layerId = "880850B5-8983-48F5-8B3B-C79FAB21DC5C";
paths = (
{
closed = 1;
nodes = (
"580 -25 OFFCURVE",
"725 123 OFFCURVE",
"725 350 CURVE SMOOTH",
"725 577 OFFCURVE",
"580 725 OFFCURVE",
"400 725 CURVE SMOOTH",
"221 725 OFFCURVE",
"76 577 OFFCURVE",
"76 350 CURVE SMOOTH",
"76 123 OFFCURVE",
"221 -25 OFFCURVE",
"400 -25 CURVE SMOOTH"
);
},
{
closed = 1;
nodes = (
"247 35 OFFCURVE",
"136 166 OFFCURVE",
"136 350 CURVE SMOOTH",
"136 534 OFFCURVE",
"247 665 OFFCURVE",
"400 665 CURVE SMOOTH",
"554 665 OFFCURVE",
"665 535 OFFCURVE",
"665 350 CURVE SMOOTH",
"665 165 OFFCURVE",
"554 35 OFFCURVE",
"400 35 CURVE SMOOTH"
);
}
);
width = 800;
},
{
anchors = (
{
name = above;
position = "{400, 1049}";
},
{
name = accent;
position = "{400, 869}";
},
{
name = bottom;
position = "{382, -18}";
},
{
name = slash;
position = "{400, 350}";
}
);
hints = (
{
horizontal = 1;
origin = "{0, 11}";
target = "{1, 11}";
type = Stem;
},
{
horizontal = 1;
origin = "{0, 5}";
target = "{1, 5}";
type = Stem;
},
{
place = "{57, 157}";
type = Stem;
},
{
place = "{546, 157}";
type = Stem;
}
);
layerId = "F6EA0DC9-EF0B-4EA3-BC35-C878CD5534E5";
paths = (
{
closed = 1;
nodes = (
"580 -25 OFFCURVE",
"725 123 OFFCURVE",
"725 350 CURVE SMOOTH",
"725 577 OFFCURVE",
"580 725 OFFCURVE",
"400 725 CURVE SMOOTH",
"221 725 OFFCURVE",
"76 577 OFFCURVE",
"76 350 CURVE SMOOTH",
"76 123 OFFCURVE",
"221 -25 OFFCURVE",
"400 -25 CURVE SMOOTH"
);
},
{
closed = 1;
nodes = (
"305 135 OFFCURVE",
"236 219 OFFCURVE",
"236 350 CURVE SMOOTH",
"236 481 OFFCURVE",
"305 565 OFFCURVE",
"400 565 CURVE SMOOTH",
"496 565 OFFCURVE",
"565 481 OFFCURVE",
"565 350 CURVE SMOOTH",
"565 219 OFFCURVE",
"496 135 OFFCURVE",
"400 135 CURVE SMOOTH"
);
}
);
width = 800;
}
);
leftKerningGroup = O;
rightKerningGroup = O;
},
{
glyphname = OE;
lastChange = "2017-06-05 22:15:18 +0000";
layers = (
{
hints = (
{
horizontal = 1;
origin = "{2, 5}";
target = "{2, 2}";
type = Stem;
},
{
horizontal = 1;
origin = "{3, 3}";
target = "{3, 2}";
type = Stem;
},
{
horizontal = 1;
origin = "{4, 2}";
target = "{4, 5}";
type = Stem;
},
{
horizontal = 1;
origin = "{0, 11}";
target = "{1, 11}";
type = Stem;
},
{
horizontal = 1;
origin = "{0, 5}";
target = "{1, 5}";
type = Stem;
},
{
place = "{60, 160}";
type = Stem;
}
);
layerId = "F6EA0DC9-EF0B-4EA3-BC35-C878CD5534E5";
paths = (
{
closed = 1;
nodes = (
"662 -25 OFFCURVE",
"830 143 OFFCURVE",
"830 350 CURVE",
"830 557 OFFCURVE",
"662 725 OFFCURVE",
"454 725 CURVE",
"247 725 OFFCURVE",
"79 557 OFFCURVE",
"79 350 CURVE",
"79 143 OFFCURVE",
"247 -25 OFFCURVE",
"454 -25 CURVE"
);
},
{
closed = 1;
nodes = (
"336 135 OFFCURVE",
"239 231 OFFCURVE",
"239 350 CURVE",
"239 469 OFFCURVE",
"336 565 OFFCURVE",
"454 565 CURVE",
"573 565 OFFCURVE",
"670 469 OFFCURVE",
"670 350 CURVE",
"670 231 OFFCURVE",
"573 135 OFFCURVE",
"454 135 CURVE"
);
},
{
closed = 1;
nodes = (
"1154 0 LINE",
"1154 160 LINE",
"609 160 LINE",
"609 56 OFFCURVE",
"665 0 OFFCURVE",
"769 0 CURVE SMOOTH"
);
},
{
closed = 1;
nodes = (
"992 270 LINE",
"992 430 LINE",
"749 430 LINE",
"749 270 LINE"
);
},
{
closed = 1;
nodes = (
"1154 540 LINE",
"1154 700 LINE",
"769 700 LINE SMOOTH",
"665 700 OFFCURVE",
"609 644 OFFCURVE",
"609 540 CURVE"
);
}
);
width = 1226;
},
{
hints = (
{
horizontal = 1;
origin = "{2, 5}";
target = "{2, 2}";
type = Stem;
},
{
horizontal = 1;
origin = "{3, 3}";
target = "{3, 2}";
type = Stem;
},
{
horizontal = 1;
origin = "{4, 2}";
target = "{4, 5}";
type = Stem;
},
{
horizontal = 1;
origin = "{0, 11}";
target = "{1, 11}";
type = Stem;
},
{
horizontal = 1;
origin = "{0, 5}";
target = "{1, 5}";
type = Stem;
},
{
place = "{60, 60}";
type = Stem;
},
{
place = "{751, 59}";
type = Stem;
}
);
layerId = "880850B5-8983-48F5-8B3B-C79FAB21DC5C";
paths = (
{
closed = 1;
nodes = (
"662 -25 OFFCURVE",
"830 143 OFFCURVE",
"830 350 CURVE",
"830 557 OFFCURVE",
"662 725 OFFCURVE",
"454 725 CURVE",
"247 725 OFFCURVE",
"79 557 OFFCURVE",
"79 350 CURVE",
"79 143 OFFCURVE",
"247 -25 OFFCURVE",
"454 -25 CURVE"
);
},
{
closed = 1;
nodes = (
"280 35 OFFCURVE",
"139 176 OFFCURVE",
"139 350 CURVE",
"139 524 OFFCURVE",
"280 665 OFFCURVE",
"454 665 CURVE",
"629 665 OFFCURVE",
"770 524 OFFCURVE",
"770 350 CURVE",
"770 176 OFFCURVE",
"629 35 OFFCURVE",
"454 35 CURVE"
);
},
{
closed = 1;
nodes = (
"1154 0 LINE",
"1154 60 LINE",
"603 60 LINE",
"603 21 OFFCURVE",
"624 0 OFFCURVE",
"663 0 CURVE SMOOTH"
);
},
{
closed = 1;
nodes = (
"992 320 LINE",
"992 380 LINE",
"803 380 LINE",
"803 320 LINE"
);
},
{
closed = 1;
nodes = (
"1154 640 LINE",
"1154 700 LINE",
"663 700 LINE SMOOTH",
"624 700 OFFCURVE",
"603 679 OFFCURVE",
"603 640 CURVE"
);
}
);
width = 1241;
}
);
leftKerningGroup = O;
leftMetricsKey = O;
rightKerningGroup = E;
rightMetricsKey = E;
unicode = 0152;
},
{
glyphname = P;
lastChange = "2017-06-05 18:18:21 +0000";
layers = (
{
hints = (
{
horizontal = 1;
origin = "{0, 22}";
target = up;
type = BottomGhost;
},
{
horizontal = 1;
origin = "{0, 10}";
target = "{0, 9}";
type = Stem;
},
{
horizontal = 1;
origin = "{0, 18}";
target = "{0, 21}";
type = Stem;
},
{
place = "{103, 60}";
type = Stem;
},
{
place = "{638, 60}";
type = Stem;
}
);
layerId = "880850B5-8983-48F5-8B3B-C79FAB21DC5C";
paths = (
{
closed = 1;
nodes = (
"163 -1 LINE",
"163 640 LINE",
"523 640 LINE SMOOTH",
"587 640 OFFCURVE",
"638 589 OFFCURVE",
"638 525 CURVE SMOOTH",
"638 462 OFFCURVE",
"587 410 OFFCURVE",
"523 410 CURVE SMOOTH",
"134 410 LINE",
"134 350 LINE",
"523 350 LINE SMOOTH",
"620 350 OFFCURVE",
"698 429 OFFCURVE",
"698 525 CURVE SMOOTH",
"698 622 OFFCURVE",
"620 700 OFFCURVE",
"523 700 CURVE SMOOTH",
"163 700 LINE SMOOTH",
"124 700 OFFCURVE",
"103 679 OFFCURVE",
"103 640 CURVE SMOOTH",
"103 -1 LINE"
);
}
);
width = 800;
},
{
hints = (
{
horizontal = 1;
origin = "{0, 22}";
target = up;
type = BottomGhost;
},
{
horizontal = 1;
origin = "{0, 10}";
target = "{0, 9}";
type = Stem;
},
{
horizontal = 1;
origin = "{0, 18}";
target = "{0, 21}";
type = Stem;
},
{
place = "{81, 160}";
type = Stem;
},
{
place = "{558, 161}";
type = Stem;
}
);
layerId = "F6EA0DC9-EF0B-4EA3-BC35-C878CD5534E5";
paths = (
{
closed = 1;
nodes = (
"241 0 LINE",
"241 540 LINE",
"463 540 LINE",
"515 540 OFFCURVE",
"558 497 OFFCURVE",
"558 445 CURVE SMOOTH",
"558 393 OFFCURVE",
"515 350 OFFCURVE",
"463 350 CURVE",
"165 350 LINE",
"165 190 LINE",
"464 190 LINE",
"605 190 OFFCURVE",
"719 304 OFFCURVE",
"719 445 CURVE SMOOTH",
"719 586 OFFCURVE",
"604 700 OFFCURVE",
"463 700 CURVE",
"241 700 LINE SMOOTH",
"137 700 OFFCURVE",
"81 644 OFFCURVE",
"81 540 CURVE SMOOTH",
"81 0 LINE"
);
}
);
width = 800;
}
);
leftKerningGroup = P;
rightKerningGroup = P;
unicode = 0050;
},
{
glyphname = P.ss01;
lastChange = "2017-06-05 22:15:28 +0000";
layers = (
{
hints = (
{
horizontal = 1;
origin = "{0, 22}";
target = up;
type = BottomGhost;
},
{
horizontal = 1;
place = "{349, 60}";
type = Stem;
},
{
place = "{40, 60}";
type = Stem;
},
{
horizontal = 1;
origin = "{0, 8}";
target = down;
type = TopGhost;
}
);
layerId = "880850B5-8983-48F5-8B3B-C79FAB21DC5C";
paths = (
{
closed = 1;
nodes = (
"163 -1 LINE",
"163 350 LINE",
"523 350 LINE SMOOTH",
"620 350 OFFCURVE",
"698 429 OFFCURVE",
"698 525 CURVE SMOOTH",
"698 622 OFFCURVE",
"620 700 OFFCURVE",
"523 700 CURVE SMOOTH",
"103 700 LINE",
"103 640 LINE",
"523 640 LINE SMOOTH",
"587 640 OFFCURVE",
"638 589 OFFCURVE",
"638 525 CURVE SMOOTH",
"638 462 OFFCURVE",
"587 410 OFFCURVE",
"523 410 CURVE SMOOTH",
"163 410 LINE SMOOTH",
"124 410 OFFCURVE",
"103 389 OFFCURVE",
"103 350 CURVE SMOOTH",
"103 -1 LINE"
);
}
);
width = 800;
},
{
hints = (
{
horizontal = 1;
origin = "{0, 22}";
target = up;
type = BottomGhost;
},
{
horizontal = 1;
origin = "{0, 21}";
target = "{0, 18}";
type = Stem;
},
{
horizontal = 1;
origin = "{0, 9}";
target = "{0, 10}";
type = Stem;
},
{
place = "{80, 160}";
type = Stem;
},
{
place = "{557, 161}";
type = Stem;
}
);
layerId = "F6EA0DC9-EF0B-4EA3-BC35-C878CD5534E5";
paths = (
{
closed = 1;
nodes = (
"241 0 LINE",
"241 190 LINE",
"464 190 LINE",
"605 190 OFFCURVE",
"719 304 OFFCURVE",
"719 445 CURVE SMOOTH",
"719 586 OFFCURVE",
"604 700 OFFCURVE",
"463 700 CURVE",
"81 700 LINE",
"81 540 LINE",
"463 540 LINE",
"515 540 OFFCURVE",
"558 497 OFFCURVE",
"558 445 CURVE SMOOTH",
"558 393 OFFCURVE",
"515 350 OFFCURVE",
"463 350 CURVE",
"241 350 LINE SMOOTH",
"137 350 OFFCURVE",
"81 295 OFFCURVE",
"81 190 CURVE SMOOTH",
"81 0 LINE"
);
}
);
width = 800;
}
);
leftKerningGroup = P;
leftMetricsKey = P;
rightKerningGroup = P;
rightMetricsKey = P;
},
{
glyphname = Thorn;
lastChange = "2017-04-10 22:06:43 +0000";
layers = (
{
hints = (
{
horizontal = 1;
origin = "{1, 3}";
target = up;
type = BottomGhost;
},
{
horizontal = 1;
origin = "{0, 17}";
target = "{0, 16}";
type = Stem;
},
{
horizontal = 1;
origin = "{0, 8}";
target = "{0, 7}";
type = Stem;
},
{
horizontal = 1;
origin = "{1, 2}";
target = down;
type = TopGhost;
},
{
place = "{80, 160}";
type = Stem;
},
{
place = "{543, 160}";
type = Stem;
}
);
layerId = "F6EA0DC9-EF0B-4EA3-BC35-C878CD5534E5";
paths = (
{
closed = 1;
nodes = (
"482 130 LINE",
"604 130 OFFCURVE",
"703 228 OFFCURVE",
"703 350 CURVE SMOOTH",
"703 472 OFFCURVE",
"603 570 OFFCURVE",
"481 570 CURVE",
"164 570 LINE",
"164 410 LINE",
"481 410 LINE SMOOTH",
"515 410 OFFCURVE",
"543 383 OFFCURVE",
"543 350 CURVE SMOOTH",
"543 317 OFFCURVE",
"516 290 OFFCURVE",
"482 290 CURVE SMOOTH",
"164 290 LINE",
"164 130 LINE"
);
},
{
closed = 1;
nodes = (
"240 0 LINE",
"240 700 LINE",
"80 700 LINE",
"80 0 LINE"
);
}
);
width = 763;
},
{
hints = (
{
horizontal = 1;
origin = "{0, 17}";
target = "{0, 16}";
type = Stem;
},
{
horizontal = 1;
origin = "{0, 8}";
target = "{0, 7}";
type = Stem;
},
{
place = "{80, 60}";
type = Stem;
},
{
place = "{613, 60}";
type = Stem;
}
);
layerId = "880850B5-8983-48F5-8B3B-C79FAB21DC5C";
paths = (
{
closed = 1;
nodes = (
"452 130 LINE SMOOTH",
"574 130 OFFCURVE",
"673 228 OFFCURVE",
"673 350 CURVE SMOOTH",
"673 472 OFFCURVE",
"573 570 OFFCURVE",
"451 570 CURVE SMOOTH",
"124 570 LINE",
"124 510 LINE",
"451 510 LINE SMOOTH",
"540 510 OFFCURVE",
"613 438 OFFCURVE",
"613 350 CURVE SMOOTH",
"613 262 OFFCURVE",
"541 190 OFFCURVE",
"452 190 CURVE SMOOTH",
"124 190 LINE",
"124 130 LINE"
);
},
{
closed = 1;
nodes = (
"140 0 LINE",
"140 700 LINE",
"80 700 LINE",
"80 0 LINE"
);
}
);
width = 733;
}
);
leftKerningGroup = Thorn;
rightKerningGroup = Thorn;
unicode = 00DE;
},
{
glyphname = Q;
lastChange = "2017-06-05 18:19:18 +0000";
layers = (
{
anchors = (
{
name = accent;
position = "{450, 869}";
},
{
name = bottom;
position = "{426, -17}";
},
{
name = slash;
position = "{450, 350}";
}
);
guideLines = (
{
position = "{340, -25}";
},
{
angle = 90;
position = "{717, 346}";
}
);
hints = (
{
horizontal = 1;
origin = "{0, 11}";
target = "{2, 11}";
type = Stem;
},
{
horizontal = 1;
origin = "{0, 5}";
target = "{2, 5}";
type = Stem;
},
{
place = "{79, 59}";
type = Stem;
},
{
place = "{763, 59}";
type = Stem;
}
);
layerId = "880850B5-8983-48F5-8B3B-C79FAB21DC5C";
paths = (
{
closed = 1;
nodes = (
"656 -25 OFFCURVE",
"822 143 OFFCURVE",
"822 350 CURVE SMOOTH",
"822 557 OFFCURVE",
"656 725 OFFCURVE",
"450 725 CURVE SMOOTH",
"245 725 OFFCURVE",
"79 557 OFFCURVE",
"79 350 CURVE SMOOTH",
"79 143 OFFCURVE",
"245 -25 OFFCURVE",
"450 -25 CURVE SMOOTH"
);
},
{
closed = 1;
nodes = (
"786 16 LINE",
"508 294 LINE",
"466 252 LINE",
"744 -26 LINE"
);
},
{
closed = 1;
nodes = (
"277 35 OFFCURVE",
"138 176 OFFCURVE",
"138 350 CURVE SMOOTH",
"138 524 OFFCURVE",
"277 665 OFFCURVE",
"450 665 CURVE SMOOTH",
"624 665 OFFCURVE",
"763 524 OFFCURVE",
"763 350 CURVE SMOOTH",
"763 176 OFFCURVE",
"624 35 OFFCURVE",
"450 35 CURVE SMOOTH"
);
}
);
width = 900;
},
{
anchors = (
{
name = accent;
position = "{448, 869}";
},
{
name = bottom;
position = "{430, -18}";
},
{
name = slash;
position = "{448, 350}";
}
);
guideLines = (
{
position = "{380, -25}";
},
{
angle = 90;
position = "{757, 346}";
}
);
hints = (
{
horizontal = 1;
origin = "{0, 11}";
target = "{2, 11}";
type = Stem;
},
{
horizontal = 1;
origin = "{0, 5}";
target = "{2, 5}";
type = Stem;
},
{
place = "{77, 158}";
type = Stem;
},
{
place = "{662, 158}";
type = Stem;
}
);
layerId = "F6EA0DC9-EF0B-4EA3-BC35-C878CD5534E5";
paths = (
{
closed = 1;
nodes = (
"654 -25 OFFCURVE",
"820 143 OFFCURVE",
"820 350 CURVE SMOOTH",
"820 557 OFFCURVE",
"654 725 OFFCURVE",
"448 725 CURVE SMOOTH",
"243 725 OFFCURVE",
"77 557 OFFCURVE",
"77 350 CURVE SMOOTH",
"77 143 OFFCURVE",
"243 -25 OFFCURVE",
"448 -25 CURVE SMOOTH"
);
},
{
closed = 1;
nodes = (
"824 87 LINE",
"581 330 LINE",
"468 217 LINE",
"711 -26 LINE"
);
},
{
closed = 1;
nodes = (
"331 135 OFFCURVE",
"235 231 OFFCURVE",
"235 350 CURVE SMOOTH",
"235 469 OFFCURVE",
"331 565 OFFCURVE",
"448 565 CURVE SMOOTH",
"566 565 OFFCURVE",
"662 469 OFFCURVE",
"662 350 CURVE SMOOTH",
"662 231 OFFCURVE",
"566 135 OFFCURVE",
"448 135 CURVE SMOOTH"
);
}
);
width = 900;
}
);
leftKerningGroup = O;
rightKerningGroup = O;
unicode = 0051;
},
{
glyphname = R;
lastChange = "2017-04-19 09:36:56 +0000";
layers = (
{
anchors = (
{
name = accent;
position = "{359, 869}";
}
);
hints = (
{
horizontal = 1;
origin = "{0, 36}";
target = up;
type = BottomGhost;
},
{
horizontal = 1;
origin = "{0, 24}";
target = "{0, 9}";
type = Stem;
},
{
horizontal = 1;
origin = "{0, 16}";
target = up;
type = BottomGhost;
},
{
place = "{40, 60}";
type = Stem;
},
{
place = "{249, 62}";
type = Stem;
},
{
place = "{568, 60}";
type = Stem;
},
{
horizontal = 1;
origin = "{0, 32}";
target = down;
type = TopGhost;
},
{
horizontal = 1;
origin = "{0, 2}";
target = "{0, 31}";
type = Stem;
}
);
layerId = "880850B5-8983-48F5-8B3B-C79FAB21DC5C";
paths = (
{
closed = 1;
nodes = (
"140 -1 LINE",
"140 639 LINE",
"493 639 LINE SMOOTH",
"557 639 OFFCURVE",
"608 588 OFFCURVE",
"608 524 CURVE SMOOTH",
"608 461 OFFCURVE",
"557 409 OFFCURVE",
"493 409 CURVE SMOOTH",
"383 409 LINE SMOOTH",
"325 409 OFFCURVE",
"289 369 OFFCURVE",
"289 324 CURVE SMOOTH",
"289 300 OFFCURVE",
"300 274 OFFCURVE",
"323 253 CURVE SMOOTH",
"604 0 LINE",
"694 0 LINE",
"363 298 LINE SMOOTH",
"354 306 OFFCURVE",
"351 313 OFFCURVE",
"351 324 CURVE SMOOTH",
"351 338 OFFCURVE",
"363 349 OFFCURVE",
"383 349 CURVE SMOOTH",
"493 349 LINE SMOOTH",
"590 349 OFFCURVE",
"668 428 OFFCURVE",
"668 524 CURVE SMOOTH",
"668 621 OFFCURVE",
"590 699 OFFCURVE",
"493 699 CURVE SMOOTH",
"140 699 LINE SMOOTH",
"101 699 OFFCURVE",
"80 678 OFFCURVE",
"80 639 CURVE SMOOTH",
"80 -1 LINE"
);
}
);
width = 754;
},
{
anchors = (
{
name = accent;
position = "{389, 869}";
}
);
hints = (
{
horizontal = 1;
origin = "{0, 36}";
target = up;
type = BottomGhost;
},
{
horizontal = 1;
origin = "{0, 24}";
target = "{0, 9}";
type = Stem;
},
{
horizontal = 1;
origin = "{0, 32}";
target = "{0, 1}";
type = Stem;
},
{
place = "{80, 160}";
type = Stem;
},
{
place = "{295, 170}";
type = Stem;
},
{
place = "{558, 160}";
type = Stem;
}
);
layerId = "F6EA0DC9-EF0B-4EA3-BC35-C878CD5534E5";
paths = (
{
closed = 1;
nodes = (
"240 0 LINE",
"240 540 LINE",
"502 540 LINE SMOOTH",
"533 540 OFFCURVE",
"558 515 OFFCURVE",
"558 485 CURVE SMOOTH",
"558 454 OFFCURVE",
"534 430 OFFCURVE",
"503 430 CURVE SMOOTH",
"483 430 LINE SMOOTH",
"367 430 OFFCURVE",
"295 350 OFFCURVE",
"295 260 CURVE SMOOTH",
"295 212 OFFCURVE",
"316 160 OFFCURVE",
"364 117 CURVE SMOOTH",
"494 0 LINE",
"733 0 LINE",
"471 236 LINE",
"467 240 OFFCURVE",
"465 245 OFFCURVE",
"465 251 CURVE SMOOTH",
"465 262 OFFCURVE",
"473 270 OFFCURVE",
"485 270 CURVE SMOOTH",
"503 270 LINE",
"622 270 OFFCURVE",
"718 366 OFFCURVE",
"718 485 CURVE SMOOTH",
"718 604 OFFCURVE",
"620 700 OFFCURVE",
"502 700 CURVE SMOOTH",
"240 700 LINE SMOOTH",
"151 700 OFFCURVE",
"80 629 OFFCURVE",
"80 541 CURVE SMOOTH",
"80 0 LINE"
);
}
);
width = 813;
}
);
leftKerningGroup = R;
rightKerningGroup = R;
unicode = 0052;
},
{
glyphname = R.ss01;
lastChange = "2017-04-16 11:36:31 +0000";
layers = (
{
anchors = (
{
name = accent;
position = "{279, 869}";
}
);
hints = (
{
horizontal = 1;
origin = "{0, 31}";
target = up;
type = BottomGhost;
},
{
horizontal = 1;
origin = "{0, 7}";
target = "{0, 24}";
type = Stem;
},
{
horizontal = 1;
origin = "{0, 16}";
target = "{0, 15}";
type = Stem;
},
{
place = "{199, 62}";
type = Stem;
},
{
place = "{518, 60}";
type = Stem;
}
);
layerId = "880850B5-8983-48F5-8B3B-C79FAB21DC5C";
paths = (
{
closed = 1;
nodes = (
"625 0 LINE",
"293 299 LINE SMOOTH",
"284 307 OFFCURVE",
"281 314 OFFCURVE",
"281 325 CURVE SMOOTH",
"281 339 OFFCURVE",
"293 350 OFFCURVE",
"313 350 CURVE SMOOTH",
"423 350 LINE SMOOTH",
"520 350 OFFCURVE",
"598 429 OFFCURVE",
"598 525 CURVE SMOOTH",
"598 622 OFFCURVE",
"520 700 OFFCURVE",
"423 700 CURVE SMOOTH",
"60 700 LINE",
"60 640 LINE",
"423 640 LINE SMOOTH",
"487 640 OFFCURVE",
"538 589 OFFCURVE",
"538 525 CURVE SMOOTH",
"538 462 OFFCURVE",
"487 410 OFFCURVE",
"423 410 CURVE SMOOTH",
"313 410 LINE SMOOTH",
"255 410 OFFCURVE",
"219 370 OFFCURVE",
"219 325 CURVE SMOOTH",
"219 301 OFFCURVE",
"230 275 OFFCURVE",
"253 254 CURVE SMOOTH",
"535 0 LINE"
);
}
);
width = 685;
},
{
anchors = (
{
name = accent;
position = "{289, 869}";
}
);
hints = (
{
horizontal = 1;
origin = "{0, 31}";
target = up;
type = BottomGhost;
},
{
horizontal = 1;
origin = "{0, 7}";
target = "{0, 24}";
type = Stem;
},
{
horizontal = 1;
origin = "{0, 15}";
target = "{0, 16}";
type = Stem;
},
{
place = "{155, 170}";
type = Stem;
},
{
place = "{418, 160}";
type = Stem;
}
);
layerId = "F6EA0DC9-EF0B-4EA3-BC35-C878CD5534E5";
paths = (
{
closed = 1;
nodes = (
"613 0 LINE",
"351 236 LINE",
"347 240 OFFCURVE",
"345 245 OFFCURVE",
"345 251 CURVE SMOOTH",
"345 262 OFFCURVE",
"353 270 OFFCURVE",
"365 270 CURVE SMOOTH",
"383 270 LINE",
"502 270 OFFCURVE",
"598 366 OFFCURVE",
"598 485 CURVE SMOOTH",
"598 604 OFFCURVE",
"500 700 OFFCURVE",
"382 700 CURVE SMOOTH",
"60 700 LINE",
"60 540 LINE",
"382 540 LINE SMOOTH",
"413 540 OFFCURVE",
"438 515 OFFCURVE",
"438 485 CURVE SMOOTH",
"438 454 OFFCURVE",
"414 430 OFFCURVE",
"383 430 CURVE SMOOTH",
"363 430 LINE SMOOTH",
"247 430 OFFCURVE",
"175 350 OFFCURVE",
"175 260 CURVE SMOOTH",
"175 212 OFFCURVE",
"196 160 OFFCURVE",
"244 117 CURVE SMOOTH",
"374 0 LINE"
);
}
);
width = 693;
}
);
leftKerningGroup = R;
rightKerningGroup = R;
rightMetricsKey = R;
},
{
glyphname = R.ss02;
lastChange = "2017-04-16 09:49:36 +0000";
layers = (
{
anchors = (
{
name = accent;
position = "{359, 869}";
}
);
hints = (
{
horizontal = 1;
origin = "{0, 15}";
target = "{0, 18}";
type = Stem;
},
{
horizontal = 1;
origin = "{0, 24}";
target = "{0, 9}";
type = Stem;
},
{
horizontal = 1;
origin = "{0, 35}";
target = "{0, 32}";
type = Stem;
},
{
place = "{80, 60}";
type = Stem;
},
{
place = "{289, 60}";
type = Stem;
},
{
place = "{608, 60}";
type = Stem;
}
);
layerId = "880850B5-8983-48F5-8B3B-C79FAB21DC5C";
paths = (
{
closed = 1;
nodes = (
"140 -1 LINE",
"140 639 LINE",
"493 639 LINE SMOOTH",
"557 639 OFFCURVE",
"608 588 OFFCURVE",
"608 524 CURVE SMOOTH",
"608 461 OFFCURVE",
"557 409 OFFCURVE",
"493 409 CURVE SMOOTH",
"383 409 LINE SMOOTH",
"325 409 OFFCURVE",
"289 369 OFFCURVE",
"289 324 CURVE SMOOTH",
"289 136 OFFCURVE",
"425 0 OFFCURVE",
"613 0 CURVE SMOOTH",
"673 0 LINE",
"673 60 LINE",
"613 60 LINE SMOOTH",
"458 60 OFFCURVE",
"350 169 OFFCURVE",
"349 324 CURVE SMOOTH",
"349 338 OFFCURVE",
"357 349 OFFCURVE",
"372 349 CURVE SMOOTH",
"493 349 LINE SMOOTH",
"590 349 OFFCURVE",
"668 428 OFFCURVE",
"668 524 CURVE SMOOTH",
"668 621 OFFCURVE",
"590 699 OFFCURVE",
"493 699 CURVE SMOOTH",
"140 699 LINE SMOOTH",
"101 699 OFFCURVE",
"80 678 OFFCURVE",
"80 639 CURVE SMOOTH",
"80 -1 LINE"
);
}
);
width = 753;
},
{
anchors = (
{
name = accent;
position = "{389, 869}";
}
);
hints = (
{
horizontal = 1;
origin = "{0, 36}";
target = "{0, 18}";
type = Stem;
},
{
horizontal = 1;
origin = "{0, 24}";
target = "{0, 9}";
type = Stem;
},
{
horizontal = 1;
origin = "{0, 32}";
target = "{0, 1}";
type = Stem;
},
{
place = "{80, 160}";
type = Stem;
},
{
place = "{558, 160}";
type = Stem;
}
);
layerId = "F6EA0DC9-EF0B-4EA3-BC35-C878CD5534E5";
paths = (
{
closed = 1;
nodes = (
"240 0 LINE",
"240 540 LINE",
"502 540 LINE SMOOTH",
"533 540 OFFCURVE",
"558 515 OFFCURVE",
"558 485 CURVE SMOOTH",
"558 454 OFFCURVE",
"534 430 OFFCURVE",
"503 430 CURVE SMOOTH",
"406 430 LINE SMOOTH",
"347 430 OFFCURVE",
"301 381 OFFCURVE",
"306 322 CURVE SMOOTH",
"321 142 OFFCURVE",
"474 0 OFFCURVE",
"655 0 CURVE SMOOTH",
"698 0 LINE",
"698 160 LINE",
"655 160 LINE SMOOTH",
"557 160 OFFCURVE",
"473 238 OFFCURVE",
"466 335 CURVE",
"469 301 OFFCURVE",
"441 270 OFFCURVE",
"406 270 CURVE",
"503 270 LINE SMOOTH",
"622 270 OFFCURVE",
"718 366 OFFCURVE",
"718 485 CURVE SMOOTH",
"718 604 OFFCURVE",
"620 700 OFFCURVE",
"502 700 CURVE SMOOTH",
"240 700 LINE SMOOTH",
"151 700 OFFCURVE",
"80 629 OFFCURVE",
"80 541 CURVE SMOOTH",
"80 0 LINE"
);
}
);
width = 798;
}
);
leftKerningGroup = R;
rightKerningGroup = R;
},
{
glyphname = S;
lastChange = "2017-06-06 15:43:09 +0000";
layers = (
{
anchors = (
{
name = accent;
position = "{384, 869}";
},
{
name = bottom;
position = "{384, 8}";
}
);
hints = (
{
horizontal = 1;
origin = "{0, 22}";
target = "{0, 7}";
type = Stem;
},
{
horizontal = 1;
origin = "{0, 16}";
target = "{0, 13}";
type = Stem;
},
{
horizontal = 1;
origin = "{0, 31}";
target = "{0, 30}";
type = Stem;
}
);
layerId = "880850B5-8983-48F5-8B3B-C79FAB21DC5C";
paths = (
{
closed = 1;
nodes = (
"498 0 LINE SMOOTH",
"603 0 OFFCURVE",
"688 85 OFFCURVE",
"688 190 CURVE SMOOTH",
"688 295 OFFCURVE",
"603 380 OFFCURVE",
"498 380 CURVE SMOOTH",
"270 380 LINE SMOOTH",
"198 380 OFFCURVE",
"140 438 OFFCURVE",
"140 510 CURVE SMOOTH",
"140 582 OFFCURVE",
"198 640 OFFCURVE",
"270 640 CURVE SMOOTH",
"648 640 LINE",
"648 700 LINE",
"270 700 LINE SMOOTH",
"165 700 OFFCURVE",
"80 615 OFFCURVE",
"80 510 CURVE SMOOTH",
"80 405 OFFCURVE",
"165 320 OFFCURVE",
"270 320 CURVE SMOOTH",
"498 320 LINE SMOOTH",
"570 320 OFFCURVE",
"628 262 OFFCURVE",
"628 190 CURVE SMOOTH",
"628 118 OFFCURVE",
"570 60 OFFCURVE",
"498 60 CURVE SMOOTH",
"94 60 LINE",
"94 0 LINE"
);
}
);
width = 748;
},
{
anchors = (
{
name = accent;
position = "{384, 869}";
},
{
name = bottom;
position = "{384, 8}";
}
);
hints = (
{
horizontal = 1;
origin = "{0, 31}";
target = "{0, 30}";
type = Stem;
},
{
horizontal = 1;
origin = "{0, 22}";
target = "{0, 7}";
type = Stem;
},
{
horizontal = 1;
origin = "{0, 16}";
target = "{0, 13}";
type = Stem;
},
{
place = "{80, 160}";
type = Stem;
},
{
place = "{528, 160}";
type = Stem;
}
);
layerId = "F6EA0DC9-EF0B-4EA3-BC35-C878CD5534E5";
paths = (
{
closed = 1;
nodes = (
"473 0 LINE",
"590 0 OFFCURVE",
"688 96 OFFCURVE",
"688 215 CURVE",
"688 333 OFFCURVE",
"591 430 OFFCURVE",
"473 430 CURVE",
"295 430 LINE",
"264 430 OFFCURVE",
"240 454 OFFCURVE",
"240 485 CURVE",
"240 516 OFFCURVE",
"264 540 OFFCURVE",
"295 540 CURVE",
"648 540 LINE",
"648 700 LINE",
"295 700 LINE",
"176 700 OFFCURVE",
"80 602 OFFCURVE",
"80 485 CURVE",
"80 366 OFFCURVE",
"176 270 OFFCURVE",
"295 270 CURVE",
"473 270 LINE",
"503 270 OFFCURVE",
"528 245 OFFCURVE",
"528 215 CURVE",
"528 184 OFFCURVE",
"504 160 OFFCURVE",
"473 160 CURVE",
"94 160 LINE",
"94 0 LINE"
);
}
);
width = 768;
},
{
associatedMasterId = "F6EA0DC9-EF0B-4EA3-BC35-C878CD5534E5";
layerId = "1EF0607D-4C14-48F8-902C-6A00EC7A84B5";
width = 600;
}
);
leftKerningGroup = S;
rightKerningGroup = S;
unicode = 0053;
},
{
glyphname = T;
lastChange = "2017-05-31 15:05:20 +0000";
layers = (
{
anchors = (
{
name = accent;
position = "{384, 869}";
},
{
name = bar;
position = "{390, 391}";
},
{
name = bottom;
position = "{385, 8}";
},
{
name = stroke;
position = "{390, 391}";
}
);
hints = (
{
horizontal = 1;
origin = "{0, 3}";
target = up;
type = BottomGhost;
},
{
place = "{360, 60}";
type = Stem;
},
{
horizontal = 1;
origin = "{1, 2}";
target = down;
type = TopGhost;
}
);
layerId = "880850B5-8983-48F5-8B3B-C79FAB21DC5C";
paths = (
{
closed = 1;
nodes = (
"420 0 LINE",
"420 670 LINE",
"360 670 LINE",
"360 0 LINE"
);
},
{
closed = 1;
nodes = (
"700 640 LINE",
"700 700 LINE",
"80 700 LINE",
"80 640 LINE"
);
}
);
width = 780;
},
{
anchors = (
{
name = accent;
position = "{344, 869}";
},
{
name = bar;
position = "{345, 350}";
},
{
name = bottom;
position = "{350, 8}";
},
{
name = stroke;
position = "{345, 350}";
}
);
hints = (
{
horizontal = 1;
origin = "{0, 3}";
target = up;
type = BottomGhost;
},
{
horizontal = 1;
origin = "{1, 2}";
target = "{1, 3}";
type = Stem;
},
{
place = "{310, 160}";
type = Stem;
}
);
layerId = "F6EA0DC9-EF0B-4EA3-BC35-C878CD5534E5";
paths = (
{
closed = 1;
nodes = (
"430 0 LINE",
"430 585 LINE",
"270 585 LINE",
"270 0 LINE"
);
},
{
closed = 1;
nodes = (
"660 550 LINE",
"660 700 LINE",
"40 700 LINE",
"40 550 LINE"
);
}
);
width = 700;
}
);
leftKerningGroup = T;
rightKerningGroup = T;
unicode = 0054;
},
{
glyphname = U;
lastChange = "2017-05-31 15:05:26 +0000";
layers = (
{
anchors = (
{
name = above;
position = "{373, 1079}";
},
{
name = accent;
position = "{373, 869}";
},
{
name = below;
position = "{373, -167}";
},
{
name = bottom;
position = "{349, -17}";
}
);
hints = (
{
horizontal = 1;
origin = "{0, 17}";
target = "{0, 8}";
type = Stem;
},
{
horizontal = 1;
origin = "{0, 13}";
target = down;
type = TopGhost;
},
{
place = "{40, 60}";
type = Stem;
},
{
place = "{565, 60}";
type = Stem;
}
);
layerId = "880850B5-8983-48F5-8B3B-C79FAB21DC5C";
paths = (
{
closed = 1;
nodes = (
"534 -25 OFFCURVE",
"665 106 OFFCURVE",
"665 267 CURVE SMOOTH",
"665 700 LINE",
"605 700 LINE",
"605 267 LINE SMOOTH",
"605 139 OFFCURVE",
"501 35 OFFCURVE",
"373 35 CURVE SMOOTH",
"244 35 OFFCURVE",
"140 139 OFFCURVE",
"140 267 CURVE SMOOTH",
"140 700 LINE",
"80 700 LINE",
"80 267 LINE SMOOTH",
"80 106 OFFCURVE",
"211 -25 OFFCURVE",
"373 -25 CURVE SMOOTH"
);
}
);
width = 745;
},
{
anchors = (
{
name = above;
position = "{373, 1079}";
},
{
name = accent;
position = "{373, 869}";
},
{
name = below;
position = "{373, -167}";
},
{
name = bottom;
position = "{350, -18}";
}
);
hints = (
{
horizontal = 1;
origin = "{0, 17}";
target = "{0, 8}";
type = Stem;
},
{
horizontal = 1;
origin = "{0, 13}";
target = down;
type = TopGhost;
},
{
place = "{80, 160}";
type = Stem;
},
{
place = "{505, 160}";
type = Stem;
}
);
layerId = "F6EA0DC9-EF0B-4EA3-BC35-C878CD5534E5";
paths = (
{
closed = 1;
nodes = (
"534 -25 OFFCURVE",
"665 106 OFFCURVE",
"665 267 CURVE SMOOTH",
"665 700 LINE",
"505 700 LINE",
"505 267 LINE SMOOTH",
"505 194 OFFCURVE",
"446 135 OFFCURVE",
"373 135 CURVE SMOOTH",
"299 135 OFFCURVE",
"240 194 OFFCURVE",
"240 267 CURVE SMOOTH",
"240 700 LINE",
"80 700 LINE",
"80 267 LINE SMOOTH",
"80 106 OFFCURVE",
"211 -25 OFFCURVE",
"373 -25 CURVE SMOOTH"
);
}
);
width = 745;
}
);
leftKerningGroup = U;
rightKerningGroup = U;
unicode = 0055;
},
{
glyphname = V;
lastChange = "2017-04-16 11:36:42 +0000";
layers = (
{
hints = (
{
horizontal = 1;
origin = "{0, 17}";
target = "{0, 8}";
type = Stem;
},
{
horizontal = 1;
origin = "{0, 13}";
target = down;
type = TopGhost;
}
);
layerId = "880850B5-8983-48F5-8B3B-C79FAB21DC5C";
paths = (
{
closed = 1;
nodes = (
"439 -25 OFFCURVE",
"490 11 OFFCURVE",
"510 68 CURVE SMOOTH",
"716 700 LINE",
"653 700 LINE",
"454 88 LINE",
"442 57 OFFCURVE",
"411 35 OFFCURVE",
"378 35 CURVE SMOOTH",
"345 35 OFFCURVE",
"313 57 OFFCURVE",
"301 88 CURVE",
"104 700 LINE",
"40 700 LINE",
"245 68 LINE SMOOTH",
"265 11 OFFCURVE",
"317 -25 OFFCURVE",
"378 -25 CURVE SMOOTH"
);
}
);
width = 756;
},
{
hints = (
{
horizontal = 1;
origin = "{0, 17}";
target = "{0, 11}";
type = Stem;
},
{
horizontal = 1;
origin = "{0, 13}";
target = down;
type = TopGhost;
}
);
layerId = "F6EA0DC9-EF0B-4EA3-BC35-C878CD5534E5";
paths = (
{
closed = 1;
nodes = (
"496 -25 OFFCURVE",
"568 26 OFFCURVE",
"595 102 CURVE SMOOTH",
"788 700 LINE",
"621 700 LINE",
"443 154 LINE SMOOTH",
"439 142 OFFCURVE",
"428 135 OFFCURVE",
"415 135 CURVE SMOOTH",
"402 135 OFFCURVE",
"390 143 OFFCURVE",
"386 154 CURVE",
"209 700 LINE",
"40 700 LINE",
"234 102 LINE SMOOTH",
"261 25 OFFCURVE",
"334 -25 OFFCURVE",
"415 -25 CURVE SMOOTH"
);
}
);
width = 828;
}
);
leftKerningGroup = V;
rightKerningGroup = V;
unicode = 0056;
},
{
glyphname = W;
lastChange = "2017-04-16 11:36:44 +0000";
layers = (
{
anchors = (
{
name = accent;
position = "{481, 869}";
}
);
hints = (
{
horizontal = 1;
origin = "{0, 17}";
target = "{0, 8}";
type = Stem;
},
{
horizontal = 1;
origin = "{0, 13}";
target = down;
type = TopGhost;
},
{
place = "{80, 60}";
type = Stem;
},
{
place = "{451, 60}";
type = Stem;
},
{
place = "{821, 60}";
type = Stem;
}
);
layerId = "880850B5-8983-48F5-8B3B-C79FAB21DC5C";
paths = (
{
closed = 1;
nodes = (
"414 -26 OFFCURVE",
"511 70 OFFCURVE",
"511 189 CURVE",
"511 700 LINE",
"451 700 LINE",
"451 189 LINE",
"451 103 OFFCURVE",
"381 34 OFFCURVE",
"295 34 CURVE",
"209 34 OFFCURVE",
"140 103 OFFCURVE",
"140 189 CURVE",
"140 700 LINE",
"80 700 LINE",
"80 189 LINE",
"80 70 OFFCURVE",
"177 -26 OFFCURVE",
"295 -26 CURVE"
);
},
{
closed = 1;
nodes = (
"785 -26 OFFCURVE",
"881 70 OFFCURVE",
"881 189 CURVE",
"881 700 LINE",
"821 700 LINE",
"821 189 LINE",
"821 103 OFFCURVE",
"752 34 OFFCURVE",
"666 34 CURVE",
"580 34 OFFCURVE",
"511 103 OFFCURVE",
"511 189 CURVE",
"451 189 LINE",
"451 70 OFFCURVE",
"547 -26 OFFCURVE",
"666 -26 CURVE"
);
}
);
width = 961;
},
{
anchors = (
{
name = accent;
position = "{531, 869}";
}
);
hints = (
{
horizontal = 1;
origin = "{0, 17}";
target = "{0, 8}";
type = Stem;
},
{
horizontal = 1;
origin = "{0, 13}";
target = down;
type = TopGhost;
},
{
place = "{80, 160}";
type = Stem;
},
{
place = "{821, 160}";
type = Stem;
}
);
layerId = "F6EA0DC9-EF0B-4EA3-BC35-C878CD5534E5";
paths = (
{
closed = 1;
nodes = (
"491 -26 OFFCURVE",
"611 93 OFFCURVE",
"611 239 CURVE",
"611 700 LINE",
"451 700 LINE",
"451 239 LINE",
"451 181 OFFCURVE",
"403 134 OFFCURVE",
"345 134 CURVE",
"287 134 OFFCURVE",
"240 181 OFFCURVE",
"240 239 CURVE",
"240 700 LINE",
"80 700 LINE",
"80 239 LINE",
"80 93 OFFCURVE",
"200 -26 OFFCURVE",
"345 -26 CURVE"
);
},
{
closed = 1;
nodes = (
"862 -26 OFFCURVE",
"981 93 OFFCURVE",
"981 239 CURVE",
"981 700 LINE",
"821 700 LINE",
"821 239 LINE",
"821 181 OFFCURVE",
"774 134 OFFCURVE",
"716 134 CURVE",
"658 134 OFFCURVE",
"611 181 OFFCURVE",
"611 239 CURVE",
"451 239 LINE",
"451 93 OFFCURVE",
"570 -26 OFFCURVE",
"716 -26 CURVE"
);
}
);
width = 1061;
}
);
leftKerningGroup = W;
rightKerningGroup = W;
unicode = 0057;
},
{
glyphname = W.ss01;
lastChange = "2017-04-16 11:37:40 +0000";
layers = (
{
anchors = (
{
name = accent;
position = "{-390, 869}";
}
);
hints = (
{
horizontal = 1;
origin = "{0, 13}";
target = "{0, 22}";
type = Stem;
},
{
horizontal = 1;
origin = "{0, 29}";
target = "{0, 9}";
type = Stem;
},
{
horizontal = 1;
origin = "{0, 17}";
target = down;
type = TopGhost;
}
);
layerId = "880850B5-8983-48F5-8B3B-C79FAB21DC5C";
paths = (
{
closed = 1;
nodes = (
"342 -27 OFFCURVE",
"406 14 OFFCURVE",
"416 94 CURVE SMOOTH",
"490 648 LINE SMOOTH",
"491 659 OFFCURVE",
"500 665 OFFCURVE",
"509 665 CURVE SMOOTH",
"518 665 OFFCURVE",
"527 659 OFFCURVE",
"529 648 CURVE SMOOTH",
"604 94 LINE SMOOTH",
"614 14 OFFCURVE",
"678 -26 OFFCURVE",
"742 -26 CURVE SMOOTH",
"806 -26 OFFCURVE",
"870 14 OFFCURVE",
"881 95 CURVE SMOOTH",
"960 700 LINE",
"900 700 LINE",
"822 103 LINE SMOOTH",
"815 56 OFFCURVE",
"779 33 OFFCURVE",
"742 33 CURVE SMOOTH",
"706 33 OFFCURVE",
"669 56 OFFCURVE",
"663 102 CURVE SMOOTH",
"589 656 LINE SMOOTH",
"582 702 OFFCURVE",
"546 725 OFFCURVE",
"509 725 CURVE SMOOTH",
"473 725 OFFCURVE",
"436 702 OFFCURVE",
"430 656 CURVE SMOOTH",
"357 102 LINE SMOOTH",
"351 56 OFFCURVE",
"314 33 OFFCURVE",
"277 33 CURVE SMOOTH",
"241 33 OFFCURVE",
"204 56 OFFCURVE",
"198 103 CURVE SMOOTH",
"120 700 LINE",
"60 700 LINE",
"139 95 LINE SMOOTH",
"150 14 OFFCURVE",
"214 -27 OFFCURVE",
"278 -27 CURVE SMOOTH"
);
}
);
width = 1020;
},
{
anchors = (
{
name = accent;
position = "{560, 869}";
}
);
hints = (
{
horizontal = 1;
origin = "{0, 45}";
target = "{0, 36}";
type = Stem;
},
{
horizontal = 1;
origin = "{0, 29}";
target = down;
type = TopGhost;
},
{
horizontal = 1;
origin = "{0, 41}";
target = down;
type = TopGhost;
},
{
horizontal = 1;
origin = "{0, 29}";
target = "{0, 6}";
type = Stem;
}
);
layerId = "F6EA0DC9-EF0B-4EA3-BC35-C878CD5534E5";
paths = (
{
closed = 1;
nodes = (
"383 -25 OFFCURVE",
"467 29 OFFCURVE",
"481 135 CURVE SMOOTH",
"536 543 LINE SMOOTH",
"538 558 OFFCURVE",
"549 566 OFFCURVE",
"561 566 CURVE SMOOTH",
"572 566 OFFCURVE",
"583 558 OFFCURVE",
"585 543 CURVE SMOOTH",
"639 136 LINE SMOOTH",
"653 29 OFFCURVE",
"738 -25 OFFCURVE",
"823 -25 CURVE SMOOTH",
"907 -25 OFFCURVE",
"992 29 OFFCURVE",
"1006 136 CURVE SMOOTH",
"1080 700 LINE",
"918 700 LINE",
"847 157 LINE SMOOTH",
"845 141 OFFCURVE",
"834 134 OFFCURVE",
"823 134 CURVE SMOOTH",
"811 134 OFFCURVE",
"800 141 OFFCURVE",
"798 157 CURVE SMOOTH",
"744 564 LINE SMOOTH",
"729 671 OFFCURVE",
"645 725 OFFCURVE",
"560 725 CURVE SMOOTH",
"475 725 OFFCURVE",
"391 671 OFFCURVE",
"377 565 CURVE SMOOTH",
"322 157 LINE SMOOTH",
"320 141 OFFCURVE",
"309 134 OFFCURVE",
"298 134 CURVE SMOOTH",
"286 134 OFFCURVE",
"275 141 OFFCURVE",
"273 157 CURVE SMOOTH",
"202 700 LINE",
"40 700 LINE",
"114 136 LINE SMOOTH",
"129 29 OFFCURVE",
"213 -25 OFFCURVE",
"298 -25 CURVE SMOOTH"
);
}
);
width = 1120;
}
);
leftKerningGroup = W;
rightKerningGroup = W;
},
{
glyphname = X;
lastChange = "2017-04-16 11:37:52 +0000";
layers = (
{
hints = (
{
horizontal = 1;
origin = "{0, 15}";
target = up;
type = BottomGhost;
},
{
horizontal = 1;
origin = "{1, 6}";
target = down;
type = TopGhost;
},
{
place = "{80, 60}";
type = Stem;
},
{
place = "{620, 60}";
type = Stem;
}
);
layerId = "880850B5-8983-48F5-8B3B-C79FAB21DC5C";
paths = (
{
closed = 1;
nodes = (
"80 68 OFFCURVE",
"108 139 OFFCURVE",
"152 180 CURVE",
"567 564 LINE",
"600 594 OFFCURVE",
"620 645 OFFCURVE",
"620 700 CURVE",
"680 700 LINE",
"680 632 OFFCURVE",
"652 561 OFFCURVE",
"608 520 CURVE",
"193 136 LINE",
"160 106 OFFCURVE",
"140 55 OFFCURVE",
"140 0 CURVE",
"80 0 LINE"
);
},
{
closed = 1;
nodes = (
"620 55 OFFCURVE",
"600 106 OFFCURVE",
"567 136 CURVE",
"152 520 LINE",
"108 561 OFFCURVE",
"80 632 OFFCURVE",
"80 700 CURVE",
"140 700 LINE",
"140 645 OFFCURVE",
"160 594 OFFCURVE",
"193 564 CURVE",
"608 180 LINE",
"652 139 OFFCURVE",
"680 68 OFFCURVE",
"680 0 CURVE",
"620 0 LINE"
);
}
);
width = 760;
},
{
hints = (
{
horizontal = 1;
origin = "{0, 15}";
target = up;
type = BottomGhost;
},
{
horizontal = 1;
origin = "{1, 6}";
target = down;
type = TopGhost;
},
{
place = "{80, 160}";
type = Stem;
},
{
place = "{640, 160}";
type = Stem;
}
);
layerId = "F6EA0DC9-EF0B-4EA3-BC35-C878CD5534E5";
paths = (
{
closed = 1;
nodes = (
"80 87 OFFCURVE",
"119 170 OFFCURVE",
"186 225 CURVE",
"592 597 LINE",
"622 623 OFFCURVE",
"640 660 OFFCURVE",
"640 700 CURVE",
"800 700 LINE",
"800 613 OFFCURVE",
"761 530 OFFCURVE",
"694 475 CURVE",
"288 103 LINE",
"258 77 OFFCURVE",
"240 40 OFFCURVE",
"240 0 CURVE",
"80 0 LINE"
);
},
{
closed = 1;
nodes = (
"640 40 OFFCURVE",
"622 77 OFFCURVE",
"592 103 CURVE",
"186 475 LINE",
"119 530 OFFCURVE",
"80 613 OFFCURVE",
"80 700 CURVE",
"240 700 LINE",
"240 660 OFFCURVE",
"258 623 OFFCURVE",
"288 597 CURVE",
"694 225 LINE",
"761 170 OFFCURVE",
"800 87 OFFCURVE",
"800 0 CURVE",
"640 0 LINE"
);
}
);
width = 880;
}
);
leftKerningGroup = X;
rightKerningGroup = X;
unicode = 0058;
},
{
glyphname = X.ss01;
lastChange = "2017-04-10 22:09:03 +0000";
layers = (
{
hints = (
{
horizontal = 1;
origin = "{0, 7}";
target = "{0, 8}";
type = Stem;
},
{
horizontal = 1;
origin = "{1, 15}";
target = "{1, 14}";
type = Stem;
}
);
layerId = "880850B5-8983-48F5-8B3B-C79FAB21DC5C";
paths = (
{
closed = 1;
nodes = (
"780 640 LINE",
"726 640 OFFCURVE",
"676 617 OFFCURVE",
"646 577 CURVE",
"262 86 LINE",
"221 34 OFFCURVE",
"149 0 OFFCURVE",
"80 0 CURVE",
"80 60 LINE",
"134 60 OFFCURVE",
"184 83 OFFCURVE",
"214 123 CURVE",
"598 614 LINE",
"639 666 OFFCURVE",
"711 700 OFFCURVE",
"780 700 CURVE"
);
},
{
closed = 1;
nodes = (
"149 700 OFFCURVE",
"221 666 OFFCURVE",
"262 614 CURVE",
"646 123 LINE",
"676 83 OFFCURVE",
"726 60 OFFCURVE",
"780 60 CURVE",
"780 0 LINE",
"711 0 OFFCURVE",
"639 34 OFFCURVE",
"598 86 CURVE",
"214 577 LINE",
"184 617 OFFCURVE",
"134 640 OFFCURVE",
"80 640 CURVE",
"80 700 LINE"
);
}
);
width = 860;
},
{
hints = (
{
horizontal = 1;
origin = "{0, 7}";
target = "{0, 8}";
type = Stem;
},
{
horizontal = 1;
origin = "{1, 15}";
target = "{1, 14}";
type = Stem;
}
);
layerId = "F6EA0DC9-EF0B-4EA3-BC35-C878CD5534E5";
paths = (
{
closed = 1;
nodes = (
"780 540 LINE",
"739 540 OFFCURVE",
"700 523 OFFCURVE",
"675 497 CURVE",
"303 95 LINE",
"246 34 OFFCURVE",
"166 0 OFFCURVE",
"80 0 CURVE",
"80 160 LINE",
"121 160 OFFCURVE",
"160 177 OFFCURVE",
"185 203 CURVE",
"557 605 LINE",
"614 666 OFFCURVE",
"694 700 OFFCURVE",
"780 700 CURVE"
);
},
{
closed = 1;
nodes = (
"166 700 OFFCURVE",
"246 666 OFFCURVE",
"303 605 CURVE",
"675 203 LINE",
"700 177 OFFCURVE",
"739 160 OFFCURVE",
"780 160 CURVE",
"780 0 LINE",
"694 0 OFFCURVE",
"614 34 OFFCURVE",
"557 95 CURVE",
"185 497 LINE",
"160 523 OFFCURVE",
"121 540 OFFCURVE",
"80 540 CURVE",
"80 700 LINE"
);
}
);
width = 860;
}
);
leftKerningGroup = X2;
rightKerningGroup = X2;
},
{
glyphname = Y;
lastChange = "2017-05-10 14:26:31 +0000";
layers = (
{
anchors = (
{
name = above;
position = "{383, 1049}";
},
{
name = accent;
position = "{383, 869}";
}
);
hints = (
{
horizontal = 1;
origin = "{0, 11}";
target = "{0, 10}";
type = Stem;
},
{
horizontal = 1;
origin = "{1, 6}";
target = down;
type = TopGhost;
},
{
place = "{80, 60}";
type = Stem;
},
{
place = "{624, 60}";
type = Stem;
}
);
layerId = "880850B5-8983-48F5-8B3B-C79FAB21DC5C";
paths = (
{
closed = 1;
nodes = (
"392 0 LINE SMOOTH",
"553 0 OFFCURVE",
"684 131 OFFCURVE",
"684 292 CURVE SMOOTH",
"684 700 LINE",
"624 700 LINE",
"624 292 LINE SMOOTH",
"624 164 OFFCURVE",
"520 60 OFFCURVE",
"392 60 CURVE SMOOTH",
"82 60 LINE",
"82 0 LINE"
);
},
{
closed = 1;
nodes = (
"641 249 LINE",
"318 354 LINE SMOOTH",
"199 392 OFFCURVE",
"140 473 OFFCURVE",
"140 600 CURVE SMOOTH",
"140 700 LINE",
"80 700 LINE",
"80 600 LINE SMOOTH",
"80 448 OFFCURVE",
"156 343 OFFCURVE",
"299 297 CURVE SMOOTH",
"622 192 LINE"
);
}
);
width = 766;
},
{
anchors = (
{
name = above;
position = "{383, 1049}";
},
{
name = accent;
position = "{383, 869}";
}
);
hints = (
{
horizontal = 1;
origin = "{0, 11}";
target = "{0, 10}";
type = Stem;
},
{
horizontal = 1;
origin = "{1, 6}";
target = down;
type = TopGhost;
},
{
place = "{80, 160}";
type = Stem;
},
{
place = "{524, 160}";
type = Stem;
}
);
layerId = "F6EA0DC9-EF0B-4EA3-BC35-C878CD5534E5";
paths = (
{
closed = 1;
nodes = (
"392 0 LINE SMOOTH",
"553 0 OFFCURVE",
"684 131 OFFCURVE",
"684 292 CURVE SMOOTH",
"684 700 LINE",
"524 700 LINE",
"524 292 LINE SMOOTH",
"524 219 OFFCURVE",
"465 160 OFFCURVE",
"392 160 CURVE SMOOTH",
"82 160 LINE",
"82 0 LINE"
);
},
{
closed = 1;
nodes = (
"610 364 LINE",
"349 449 LINE SMOOTH",
"272 474 OFFCURVE",
"240 518 OFFCURVE",
"240 600 CURVE SMOOTH",
"240 700 LINE",
"80 700 LINE",
"80 600 LINE SMOOTH",
"80 448 OFFCURVE",
"156 343 OFFCURVE",
"299 297 CURVE SMOOTH",
"560 212 LINE"
);
}
);
width = 764;
}
);
leftKerningGroup = Y;
rightKerningGroup = Y;
unicode = 0059;
},
{
glyphname = Y.ss01;
lastChange = "2017-05-10 14:28:08 +0000";
layers = (
{
anchors = (
{
name = above;
position = "{380, 1049}";
},
{
name = accent;
position = "{380, 869}";
}
);
hints = (
{
horizontal = 1;
origin = "{1, 3}";
target = up;
type = BottomGhost;
},
{
horizontal = 1;
origin = "{0, 17}";
target = down;
type = TopGhost;
},
{
place = "{80, 60}";
type = Stem;
},
{
place = "{350, 60}";
type = Stem;
},
{
place = "{620, 60}";
type = Stem;
}
);
layerId = "880850B5-8983-48F5-8B3B-C79FAB21DC5C";
paths = (
{
closed = 1;
nodes = (
"394 329 OFFCURVE",
"408 335 OFFCURVE",
"422 348 CURVE SMOOTH",
"608 520 LINE SMOOTH",
"652 561 OFFCURVE",
"680 632 OFFCURVE",
"680 700 CURVE",
"620 700 LINE",
"620 645 OFFCURVE",
"600 594 OFFCURVE",
"567 564 CURVE SMOOTH",
"360 373 LINE",
"400 373 LINE",
"193 564 LINE SMOOTH",
"160 594 OFFCURVE",
"140 645 OFFCURVE",
"140 700 CURVE",
"80 700 LINE",
"80 632 OFFCURVE",
"108 561 OFFCURVE",
"152 520 CURVE SMOOTH",
"338 348 LINE SMOOTH",
"352 335 OFFCURVE",
"366 329 OFFCURVE",
"380 329 CURVE SMOOTH"
);
},
{
closed = 1;
nodes = (
"410 0 LINE",
"410 360 LINE",
"350 360 LINE",
"350 0 LINE"
);
}
);
width = 760;
},
{
anchors = (
{
name = above;
position = "{400, 1049}";
},
{
name = accent;
position = "{400, 869}";
}
);
hints = (
{
horizontal = 1;
origin = "{1, 3}";
target = up;
type = BottomGhost;
},
{
horizontal = 1;
origin = "{0, 17}";
target = down;
type = TopGhost;
},
{
place = "{80, 160}";
type = Stem;
},
{
place = "{360, 160}";
type = Stem;
},
{
place = "{640, 160}";
type = Stem;
}
);
layerId = "F6EA0DC9-EF0B-4EA3-BC35-C878CD5534E5";
paths = (
{
closed = 1;
nodes = (
"438 294 OFFCURVE",
"475 312 OFFCURVE",
"513 346 CURVE SMOOTH",
"654 475 LINE",
"721 530 OFFCURVE",
"760 613 OFFCURVE",
"760 700 CURVE",
"600 700 LINE",
"600 660 OFFCURVE",
"581 624 OFFCURVE",
"552 597 CURVE SMOOTH",
"372 432 LINE",
"428 432 LINE",
"248 597 LINE SMOOTH",
"219 624 OFFCURVE",
"200 660 OFFCURVE",
"200 700 CURVE",
"40 700 LINE",
"40 613 OFFCURVE",
"79 530 OFFCURVE",
"146 475 CURVE",
"287 346 LINE SMOOTH",
"324 312 OFFCURVE",
"362 294 OFFCURVE",
"400 294 CURVE SMOOTH"
);
},
{
closed = 1;
nodes = (
"480 0 LINE",
"480 400 LINE",
"320 400 LINE",
"320 0 LINE"
);
}
);
width = 800;
}
);
leftKerningGroup = Y2;
rightKerningGroup = Y2;
},
{
glyphname = Z;
lastChange = "2017-06-05 22:24:25 +0000";
layers = (
{
anchors = (
{
name = accent;
position = "{412, 869}";
}
);
hints = (
{
horizontal = 1;
origin = "{0, 31}";
target = "{0, 2}";
type = Stem;
},
{
horizontal = 1;
origin = "{0, 16}";
target = "{0, 17}";
type = Stem;
},
{
place = "{60, 60}";
type = Stem;
},
{
place = "{670, 60}";
type = Stem;
}
);
layerId = "880850B5-8983-48F5-8B3B-C79FAB21DC5C";
paths = (
{
closed = 1;
nodes = (
"727 0 LINE",
"727 60 LINE",
"151 60 LINE SMOOTH",
"132 60 OFFCURVE",
"120 76 OFFCURVE",
"120 92 CURVE SMOOTH",
"120 101 OFFCURVE",
"123 111 OFFCURVE",
"132 117 CURVE SMOOTH",
"693 535 LINE SMOOTH",
"718 554 OFFCURVE",
"730 581 OFFCURVE",
"730 607 CURVE SMOOTH",
"730 654 OFFCURVE",
"694 700 OFFCURVE",
"638 700 CURVE SMOOTH",
"95 700 LINE",
"95 640 LINE",
"638 640 LINE SMOOTH",
"658 640 OFFCURVE",
"670 624 OFFCURVE",
"670 608 CURVE SMOOTH",
"670 599 OFFCURVE",
"666 590 OFFCURVE",
"657 583 CURVE SMOOTH",
"97 165 LINE SMOOTH",
"72 146 OFFCURVE",
"60 119 OFFCURVE",
"60 93 CURVE SMOOTH",
"60 46 OFFCURVE",
"95 0 OFFCURVE",
"151 0 CURVE SMOOTH"
);
}
);
width = 790;
},
{
anchors = (
{
name = accent;
position = "{448, 869}";
}
);
hints = (
{
horizontal = 1;
origin = "{0, 31}";
target = "{0, 2}";
type = Stem;
},
{
horizontal = 1;
origin = "{0, 16}";
target = "{0, 17}";
type = Stem;
}
);
layerId = "F6EA0DC9-EF0B-4EA3-BC35-C878CD5534E5";
paths = (
{
closed = 1;
nodes = (
"770 0 LINE",
"770 160 LINE",
"220 160 LINE",
"222 155 OFFCURVE",
"223 150 OFFCURVE",
"225 145 CURVE SMOOTH",
"227 138 OFFCURVE",
"229 131 OFFCURVE",
"231 124 CURVE",
"704 440 LINE SMOOTH",
"749 470 OFFCURVE",
"769 513 OFFCURVE",
"769 557 CURVE SMOOTH",
"769 629 OFFCURVE",
"716 700 OFFCURVE",
"629 700 CURVE SMOOTH",
"130 700 LINE",
"130 540 LINE",
"629 540 LINE",
"627 547 OFFCURVE",
"624 554 OFFCURVE",
"623 561 CURVE SMOOTH",
"622 566 OFFCURVE",
"620 571 OFFCURVE",
"619 576 CURVE",
"146 260 LINE SMOOTH",
"101 230 OFFCURVE",
"80 187 OFFCURVE",
"80 142 CURVE SMOOTH",
"80 71 OFFCURVE",
"133 0 OFFCURVE",
"220 0 CURVE SMOOTH"
);
}
);
width = 879;
}
);
leftKerningGroup = Z;
rightKerningGroup = Z;
unicode = 005A;
},
{
glyphname = a;
lastChange = "2017-06-07 03:26:30 +0000";
layers = (
{
anchors = (
{
name = above;
position = "{357, 969}";
},
{
name = accent;
position = "{357, 759}";
},
{
name = below;
position = "{357, -167}";
},
{
name = bottom;
position = "{351, 8}";
}
);
guideLines = (
{
angle = 90;
position = "{341, 661}";
}
);
hints = (
{
horizontal = 1;
origin = "{0, 33}";
target = "{0, 18}";
type = Stem;
},
{
horizontal = 1;
origin = "{0, 24}";
target = "{0, 27}";
type = Stem;
},
{
horizontal = 1;
origin = "{0, 8}";
target = "{0, 9}";
type = Stem;
},
{
place = "{566, 77}";
type = Stem;
}
);
layerId = "880850B5-8983-48F5-8B3B-C79FAB21DC5C";
paths = (
{
closed = 1;
nodes = (
"505 0 LINE SMOOTH",
"574 0 OFFCURVE",
"625 51 OFFCURVE",
"625 120 CURVE SMOOTH",
"625 385 LINE SMOOTH",
"625 503 OFFCURVE",
"528 600 OFFCURVE",
"410 600 CURVE SMOOTH",
"140 600 LINE",
"140 540 LINE",
"410 540 LINE SMOOTH",
"495 540 OFFCURVE",
"565 470 OFFCURVE",
"565 385 CURVE SMOOTH",
"565 121 LINE SMOOTH",
"565 86 OFFCURVE",
"539 60 OFFCURVE",
"504 60 CURVE SMOOTH",
"251 60 LINE SMOOTH",
"179 60 OFFCURVE",
"136 103 OFFCURVE",
"136 175 CURVE SMOOTH",
"136 238 OFFCURVE",
"188 290 OFFCURVE",
"251 290 CURVE SMOOTH",
"588 290 LINE",
"588 350 LINE",
"251 350 LINE SMOOTH",
"155 350 OFFCURVE",
"76 272 OFFCURVE",
"76 175 CURVE SMOOTH",
"76 69 OFFCURVE",
"146 0 OFFCURVE",
"251 0 CURVE SMOOTH"
);
}
);
width = 700;
},
{
anchors = (
{
name = above;
position = "{364, 969}";
},
{
name = accent;
position = "{364, 759}";
},
{
name = below;
position = "{364, -167}";
},
{
name = bottom;
position = "{358, 8}";
}
);
guideLines = (
{
angle = 90;
position = "{356, 700}";
}
);
hints = (
{
horizontal = 1;
origin = "{0, 33}";
target = "{0, 18}";
type = Stem;
},
{
horizontal = 1;
origin = "{0, 24}";
target = "{0, 27}";
type = Stem;
},
{
horizontal = 1;
origin = "{0, 8}";
target = "{0, 9}";
type = Stem;
},
{
place = "{68, 162}";
type = Stem;
},
{
place = "{472, 168}";
type = Stem;
}
);
layerId = "F6EA0DC9-EF0B-4EA3-BC35-C878CD5534E5";
paths = (
{
closed = 1;
nodes = (
"493 0 LINE SMOOTH",
"570 0 OFFCURVE",
"632 62 OFFCURVE",
"632 139 CURVE SMOOTH",
"632 410 LINE SMOOTH",
"632 515 OFFCURVE",
"547 600 OFFCURVE",
"442 600 CURVE SMOOTH",
"148 600 LINE",
"148 440 LINE",
"442 440 LINE SMOOTH",
"459 440 OFFCURVE",
"472 427 OFFCURVE",
"472 410 CURVE SMOOTH",
"472 163 LINE SMOOTH",
"472 161 OFFCURVE",
"471 160 OFFCURVE",
"469 160 CURVE SMOOTH",
"258 160 LINE SMOOTH",
"237 160 OFFCURVE",
"222 176 OFFCURVE",
"222 196 CURVE SMOOTH",
"222 217 OFFCURVE",
"237 233 OFFCURVE",
"258 233 CURVE SMOOTH",
"553 233 LINE",
"553 380 LINE",
"258 380 LINE SMOOTH",
"152 380 OFFCURVE",
"68 295 OFFCURVE",
"68 190 CURVE SMOOTH",
"68 85 OFFCURVE",
"153 0 OFFCURVE",
"258 0 CURVE SMOOTH"
);
}
);
width = 700;
}
);
leftKerningGroup = a;
rightKerningGroup = a;
unicode = 0061;
},
{
glyphname = ae;
lastChange = "2017-06-05 22:14:33 +0000";
layers = (
{
hints = (
{
horizontal = 1;
origin = "{0, 33}";
target = "{0, 18}";
type = Stem;
},
{
horizontal = 1;
origin = "{0, 8}";
target = "{0, 9}";
type = Stem;
},
{
horizontal = 1;
origin = "{1, 27}";
target = "{1, 12}";
type = Stem;
},
{
horizontal = 1;
origin = "{0, 24}";
target = "{0, 27}";
type = Stem;
},
{
horizontal = 1;
origin = "{1, 33}";
target = "{1, 6}";
type = Stem;
},
{
place = "{60, 160}";
type = Stem;
}
);
layerId = "F6EA0DC9-EF0B-4EA3-BC35-C878CD5534E5";
paths = (
{
closed = 1;
nodes = (
"493 0 LINE SMOOTH",
"570 0 OFFCURVE",
"632 62 OFFCURVE",
"632 139 CURVE SMOOTH",
"632 410 LINE",
"632 515 OFFCURVE",
"547 600 OFFCURVE",
"442 600 CURVE SMOOTH",
"148 600 LINE",
"148 440 LINE",
"442 440 LINE SMOOTH",
"459 440 OFFCURVE",
"472 427 OFFCURVE",
"472 410 CURVE SMOOTH",
"472 139 LINE",
"479 146 OFFCURVE",
"485 153 OFFCURVE",
"492 160 CURVE",
"258 160 LINE SMOOTH",
"241 160 OFFCURVE",
"228 173 OFFCURVE",
"228 190 CURVE SMOOTH",
"228 207 OFFCURVE",
"241 220 OFFCURVE",
"258 220 CURVE SMOOTH",
"553 220 LINE",
"553 380 LINE",
"258 380 LINE SMOOTH",
"152 380 OFFCURVE",
"68 295 OFFCURVE",
"68 190 CURVE SMOOTH",
"68 85 OFFCURVE",
"153 0 OFFCURVE",
"258 0 CURVE SMOOTH"
);
},
{
closed = 1;
nodes = (
"952 -9 OFFCURVE",
"1053 51 OFFCURVE",
"1110 147 CURVE",
"946 194 LINE",
"917 167 OFFCURVE",
"880 151 OFFCURVE",
"839 151 CURVE SMOOTH",
"756 151 OFFCURVE",
"691 221 OFFCURVE",
"691 301 CURVE SMOOTH",
"691 383 OFFCURVE",
"758 450 OFFCURVE",
"841 450 CURVE SMOOTH",
"924 450 OFFCURVE",
"990 383 OFFCURVE",
"990 300 CURVE",
"990 349 OFFCURVE",
"1030 350 OFFCURVE",
"1080 350 CURVE",
"643 351 LINE",
"643 231 LINE",
"1080 230 LINE SMOOTH",
"1119 230 OFFCURVE",
"1150 261 OFFCURVE",
"1150 300 CURVE SMOOTH",
"1150 471 OFFCURVE",
"1012 609 OFFCURVE",
"841 610 CURVE SMOOTH",
"670 611 OFFCURVE",
"531 472 OFFCURVE",
"531 301 CURVE SMOOTH",
"531 130 OFFCURVE",
"670 -9 OFFCURVE",
"841 -9 CURVE SMOOTH"
);
}
);
width = 1210;
},
{
layerId = "880850B5-8983-48F5-8B3B-C79FAB21DC5C";
paths = (
{
closed = 1;
nodes = (
"505 0 LINE SMOOTH",
"574 0 OFFCURVE",
"625 51 OFFCURVE",
"625 120 CURVE SMOOTH",
"625 385 LINE SMOOTH",
"625 503 OFFCURVE",
"528 600 OFFCURVE",
"410 600 CURVE SMOOTH",
"140 600 LINE",
"140 540 LINE",
"410 540 LINE SMOOTH",
"495 540 OFFCURVE",
"565 470 OFFCURVE",
"565 385 CURVE SMOOTH",
"565 121 LINE SMOOTH",
"565 86 OFFCURVE",
"539 60 OFFCURVE",
"504 60 CURVE SMOOTH",
"251 60 LINE SMOOTH",
"179 60 OFFCURVE",
"136 103 OFFCURVE",
"136 175 CURVE SMOOTH",
"136 238 OFFCURVE",
"188 290 OFFCURVE",
"251 290 CURVE SMOOTH",
"588 290 LINE",
"588 350 LINE",
"251 350 LINE SMOOTH",
"155 350 OFFCURVE",
"76 272 OFFCURVE",
"76 175 CURVE SMOOTH",
"76 69 OFFCURVE",
"146 0 OFFCURVE",
"251 0 CURVE SMOOTH"
);
},
{
closed = 1;
nodes = (
"990 -9 OFFCURVE",
"1090 55 OFFCURVE",
"1144 147 CURVE",
"1092 177 LINE",
"1047 100 OFFCURVE",
"965 52 OFFCURVE",
"875 51 CURVE SMOOTH",
"737 49 OFFCURVE",
"625 163 OFFCURVE",
"625 301 CURVE SMOOTH",
"625 439 OFFCURVE",
"737 550 OFFCURVE",
"875 550 CURVE SMOOTH",
"1013 550 OFFCURVE",
"1124 438 OFFCURVE",
"1124 300 CURVE",
"1138 310 OFFCURVE",
"1153 321 OFFCURVE",
"1167 331 CURVE",
"610 331 LINE",
"610 271 LINE",
"1153 271 LINE SMOOTH",
"1170 271 OFFCURVE",
"1184 284 OFFCURVE",
"1184 300 CURVE SMOOTH",
"1184 471 OFFCURVE",
"1046 609 OFFCURVE",
"875 610 CURVE SMOOTH",
"704 611 OFFCURVE",
"565 472 OFFCURVE",
"565 301 CURVE SMOOTH",
"565 130 OFFCURVE",
"704 -9 OFFCURVE",
"875 -9 CURVE SMOOTH"
);
}
);
width = 1244;
}
);
leftKerningGroup = a;
leftMetricsKey = a;
rightKerningGroup = e;
rightMetricsKey = e;
unicode = 00E6;
},
{
glyphname = b;
lastChange = "2017-06-05 20:21:16 +0000";
layers = (
{
guideLines = (
{
angle = 90;
position = "{70, 900}";
},
{
angle = 270;
position = "{103, 900}";
}
);
layerId = "880850B5-8983-48F5-8B3B-C79FAB21DC5C";
paths = (
{
closed = 1;
nodes = (
"514 -9 OFFCURVE",
"654 132 OFFCURVE",
"654 301 CURVE SMOOTH",
"654 470 OFFCURVE",
"514 611 OFFCURVE",
"344 611 CURVE SMOOTH",
"240 611 OFFCURVE",
"149 559 OFFCURVE",
"92 480 CURVE",
"135 440 LINE",
"185 511 OFFCURVE",
"263 551 OFFCURVE",
"344 551 CURVE SMOOTH",
"481 551 OFFCURVE",
"594 438 OFFCURVE",
"594 301 CURVE SMOOTH",
"594 164 OFFCURVE",
"481 51 OFFCURVE",
"344 51 CURVE SMOOTH",
"270 51 OFFCURVE",
"200 84 OFFCURVE",
"152 142 CURVE",
"143 152 OFFCURVE",
"140 160 OFFCURVE",
"140 184 CURVE SMOOTH",
"140 800 LINE",
"80 800 LINE",
"80 184 LINE SMOOTH",
"80 152 OFFCURVE",
"85 127 OFFCURVE",
"106 103 CURVE SMOOTH",
"164 36 OFFCURVE",
"249 -9 OFFCURVE",
"344 -9 CURVE SMOOTH"
);
}
);
width = 714;
},
{
hints = (
{
horizontal = 1;
origin = "{0, 33}";
target = "{0, 18}";
type = Stem;
},
{
horizontal = 1;
origin = "{0, 5}";
target = "{0, 12}";
type = Stem;
},
{
horizontal = 1;
origin = "{0, 26}";
target = down;
type = TopGhost;
},
{
place = "{80, 160}";
type = Stem;
},
{
place = "{494, 160}";
type = Stem;
}
);
layerId = "F6EA0DC9-EF0B-4EA3-BC35-C878CD5534E5";
paths = (
{
closed = 1;
nodes = (
"514 -9 OFFCURVE",
"654 132 OFFCURVE",
"654 301 CURVE SMOOTH",
"654 470 OFFCURVE",
"514 611 OFFCURVE",
"344 611 CURVE SMOOTH",
"240 611 OFFCURVE",
"149 559 OFFCURVE",
"92 480 CURVE",
"222 386 LINE",
"252 428 OFFCURVE",
"296 451 OFFCURVE",
"344 451 CURVE SMOOTH",
"425 451 OFFCURVE",
"494 382 OFFCURVE",
"494 301 CURVE SMOOTH",
"494 220 OFFCURVE",
"425 151 OFFCURVE",
"344 151 CURVE SMOOTH",
"302 151 OFFCURVE",
"265 168 OFFCURVE",
"246 187 CURVE SMOOTH",
"241 192 OFFCURVE",
"240 195 OFFCURVE",
"240 200 CURVE SMOOTH",
"240 800 LINE",
"80 800 LINE",
"80 184 LINE SMOOTH",
"80 152 OFFCURVE",
"85 127 OFFCURVE",
"106 103 CURVE SMOOTH",
"164 36 OFFCURVE",
"249 -9 OFFCURVE",
"344 -9 CURVE SMOOTH"
);
}
);
width = 714;
}
);
leftKerningGroup = b;
rightKerningGroup = o;
unicode = 0062;
},
{
glyphname = c;
lastChange = "2017-06-06 22:48:11 +0000";
layers = (
{
anchors = (
{
name = accent;
position = "{370, 759}";
},
{
name = bottom;
position = "{370, 0}";
}
);
hints = (
{
horizontal = 1;
origin = "{0, 25}";
target = "{0, 6}";
type = Stem;
},
{
horizontal = 1;
origin = "{0, 19}";
target = "{0, 12}";
type = Stem;
},
{
place = "{60, 60}";
type = Stem;
}
);
layerId = "880850B5-8983-48F5-8B3B-C79FAB21DC5C";
paths = (
{
closed = 1;
nodes = (
"484 -9 OFFCURVE",
"585 53 OFFCURVE",
"638 145 CURVE",
"586 175 LINE",
"542 98 OFFCURVE",
"460 51 OFFCURVE",
"370 51 CURVE SMOOTH",
"232 51 OFFCURVE",
"120 163 OFFCURVE",
"120 301 CURVE SMOOTH",
"120 439 OFFCURVE",
"232 550 OFFCURVE",
"370 550 CURVE SMOOTH",
"460 550 OFFCURVE",
"542 503 OFFCURVE",
"586 426 CURVE",
"638 456 LINE",
"585 549 OFFCURVE",
"484 610 OFFCURVE",
"370 610 CURVE SMOOTH",
"199 610 OFFCURVE",
"60 472 OFFCURVE",
"60 301 CURVE SMOOTH",
"60 130 OFFCURVE",
"199 -9 OFFCURVE",
"370 -9 CURVE SMOOTH"
);
}
);
width = 718;
},
{
anchors = (
{
name = accent;
position = "{370, 759}";
},
{
name = bottom;
position = "{370, 0}";
}
);
hints = (
{
horizontal = 1;
origin = "{0, 25}";
target = "{0, 6}";
type = Stem;
},
{
horizontal = 1;
origin = "{0, 19}";
target = "{0, 12}";
type = Stem;
},
{
place = "{60, 149}";
type = Stem;
}
);
layerId = "F6EA0DC9-EF0B-4EA3-BC35-C878CD5534E5";
paths = (
{
closed = 1;
nodes = (
"484 -9 OFFCURVE",
"582 48 OFFCURVE",
"638 145 CURVE",
"517 213 LINE",
"488 165 OFFCURVE",
"434 134 OFFCURVE",
"374 134 CURVE SMOOTH",
"282 134 OFFCURVE",
"209 212 OFFCURVE",
"209 304 CURVE SMOOTH",
"209 395 OFFCURVE",
"282 468 OFFCURVE",
"374 468 CURVE SMOOTH",
"434 468 OFFCURVE",
"488 438 OFFCURVE",
"521 385 CURVE",
"638 456 LINE",
"585 549 OFFCURVE",
"484 610 OFFCURVE",
"370 610 CURVE SMOOTH",
"199 610 OFFCURVE",
"60 472 OFFCURVE",
"60 301 CURVE SMOOTH",
"60 130 OFFCURVE",
"199 -9 OFFCURVE",
"370 -9 CURVE SMOOTH"
);
}
);
width = 718;
}
);
leftKerningGroup = o;
rightKerningGroup = c;
unicode = 0063;
},
{
glyphname = d;
lastChange = "2017-06-07 03:26:38 +0000";
layers = (
{
anchors = (
{
name = accentside;
position = "{699, 681}";
},
{
name = bar;
position = "{601, 681}";
}
);
layerId = "880850B5-8983-48F5-8B3B-C79FAB21DC5C";
paths = (
{
closed = 1;
nodes = (
"465 -9 OFFCURVE",
"550 36 OFFCURVE",
"608 103 CURVE SMOOTH",
"629 127 OFFCURVE",
"634 152 OFFCURVE",
"634 184 CURVE SMOOTH",
"634 800 LINE",
"574 800 LINE",
"574 184 LINE SMOOTH",
"574 160 OFFCURVE",
"571 152 OFFCURVE",
"562 142 CURVE",
"514 84 OFFCURVE",
"444 51 OFFCURVE",
"370 51 CURVE SMOOTH",
"233 51 OFFCURVE",
"120 164 OFFCURVE",
"120 301 CURVE SMOOTH",
"120 438 OFFCURVE",
"233 551 OFFCURVE",
"370 551 CURVE SMOOTH",
"451 551 OFFCURVE",
"529 511 OFFCURVE",
"579 440 CURVE",
"622 480 LINE",
"565 559 OFFCURVE",
"474 611 OFFCURVE",
"370 611 CURVE SMOOTH",
"200 611 OFFCURVE",
"60 470 OFFCURVE",
"60 301 CURVE SMOOTH",
"60 132 OFFCURVE",
"200 -9 OFFCURVE",
"370 -9 CURVE SMOOTH"
);
}
);
width = 714;
},
{
anchors = (
{
name = accentside;
position = "{725, 700}";
},
{
name = bar;
position = "{550, 701}";
}
);
guideLines = (
{
angle = 90;
position = "{370, 471}";
},
{
position = "{200, 301}";
}
);
hints = (
{
horizontal = 1;
place = "{-9, 160}";
type = Stem;
},
{
horizontal = 1;
place = "{611, -160}";
type = Stem;
},
{
horizontal = 1;
place = "{800, -20}";
target = down;
type = TopGhost;
},
{
place = "{60, 160}";
type = Stem;
},
{
place = "{474, 160}";
type = Stem;
}
);
layerId = "F6EA0DC9-EF0B-4EA3-BC35-C878CD5534E5";
paths = (
{
closed = 1;
nodes = (
"465 -9 OFFCURVE",
"550 36 OFFCURVE",
"608 103 CURVE SMOOTH",
"629 127 OFFCURVE",
"634 152 OFFCURVE",
"634 184 CURVE SMOOTH",
"634 800 LINE",
"474 800 LINE",
"474 197 LINE SMOOTH",
"474 195 OFFCURVE",
"473 192 OFFCURVE",
"468 187 CURVE SMOOTH",
"449 168 OFFCURVE",
"412 151 OFFCURVE",
"370 151 CURVE SMOOTH",
"289 151 OFFCURVE",
"220 220 OFFCURVE",
"220 301 CURVE SMOOTH",
"220 382 OFFCURVE",
"289 451 OFFCURVE",
"370 451 CURVE SMOOTH",
"418 451 OFFCURVE",
"462 428 OFFCURVE",
"492 386 CURVE",
"622 480 LINE",
"565 559 OFFCURVE",
"474 611 OFFCURVE",
"370 611 CURVE SMOOTH",
"200 611 OFFCURVE",
"60 470 OFFCURVE",
"60 301 CURVE SMOOTH",
"60 132 OFFCURVE",
"200 -9 OFFCURVE",
"370 -9 CURVE SMOOTH"
);
}
);
width = 714;
}
);
leftKerningGroup = o;
rightKerningGroup = d;
unicode = 0064;
},
{
glyphname = eth;
lastChange = "2017-04-10 22:10:08 +0000";
layers = (
{
hints = (
{
horizontal = 1;
origin = "{0, 11}";
target = "{1, 11}";
type = Stem;
},
{
horizontal = 1;
origin = "{0, 5}";
target = "{1, 5}";
type = Stem;
},
{
place = "{60, 160}";
type = Stem;
},
{
place = "{521, 160}";
type = Stem;
}
);
layerId = "F6EA0DC9-EF0B-4EA3-BC35-C878CD5534E5";
paths = (
{
closed = 1;
nodes = (
"542 -9 OFFCURVE",
"681 130 OFFCURVE",
"681 301 CURVE SMOOTH",
"681 472 OFFCURVE",
"541 611 OFFCURVE",
"370 611 CURVE SMOOTH",
"199 611 OFFCURVE",
"60 472 OFFCURVE",
"60 301 CURVE SMOOTH",
"60 130 OFFCURVE",
"199 -9 OFFCURVE",
"370 -9 CURVE SMOOTH"
);
},
{
closed = 1;
nodes = (
"287 151 OFFCURVE",
"220 218 OFFCURVE",
"220 301 CURVE SMOOTH",
"220 384 OFFCURVE",
"287 451 OFFCURVE",
"370 451 CURVE SMOOTH",
"453 451 OFFCURVE",
"521 383 OFFCURVE",
"521 301 CURVE SMOOTH",
"521 218 OFFCURVE",
"453 151 OFFCURVE",
"370 151 CURVE SMOOTH"
);
},
{
closed = 1;
nodes = (
"681 291 LINE",
"690 482 OFFCURVE",
"630 722 OFFCURVE",
"531 889 CURVE",
"388 822 LINE",
"477 675 OFFCURVE",
"530 462 OFFCURVE",
"521 291 CURVE"
);
},
{
closed = 1;
nodes = (
"666 798 LINE",
"630 876 LINE",
"340 740 LINE",
"376 662 LINE"
);
}
);
width = 752;
},
{
layerId = "880850B5-8983-48F5-8B3B-C79FAB21DC5C";
paths = (
{
closed = 1;
nodes = (
"542 -9 OFFCURVE",
"681 130 OFFCURVE",
"681 301 CURVE SMOOTH",
"681 472 OFFCURVE",
"541 611 OFFCURVE",
"370 611 CURVE SMOOTH",
"199 611 OFFCURVE",
"60 472 OFFCURVE",
"60 301 CURVE SMOOTH",
"60 130 OFFCURVE",
"199 -9 OFFCURVE",
"370 -9 CURVE SMOOTH"
);
},
{
closed = 1;
nodes = (
"232 51 OFFCURVE",
"120 163 OFFCURVE",
"120 301 CURVE SMOOTH",
"120 439 OFFCURVE",
"232 551 OFFCURVE",
"370 551 CURVE SMOOTH",
"508 551 OFFCURVE",
"621 439 OFFCURVE",
"621 301 CURVE SMOOTH",
"621 163 OFFCURVE",
"509 51 OFFCURVE",
"370 51 CURVE SMOOTH"
);
},
{
closed = 1;
nodes = (
"681 301 LINE",
"681 500 OFFCURVE",
"628 686 OFFCURVE",
"536 848 CURVE",
"481 822 LINE",
"572 662 OFFCURVE",
"621 484 OFFCURVE",
"621 301 CURVE"
);
},
{
closed = 1;
nodes = (
"654 777 LINE",
"629 831 LINE",
"435 740 LINE",
"460 686 LINE"
);
}
);
width = 761;
}
);
leftKerningGroup = o;
rightKerningGroup = d;
unicode = 00F0;
},
{
glyphname = e;
lastChange = "2017-06-07 03:21:39 +0000";
layers = (
{
anchors = (
{
name = above;
position = "{370, 969}";
},
{
name = accent;
position = "{370, 759}";
},
{
name = below;
position = "{370, -167}";
},
{
name = bottom;
position = "{347, -1}";
}
);
hints = (
{
horizontal = 1;
origin = "{0, 33}";
target = "{0, 2}";
type = Stem;
},
{
horizontal = 1;
origin = "{0, 30}";
target = "{0, 19}";
type = Stem;
},
{
horizontal = 1;
place = "{610, -2147483648}";
type = Stem;
},
{
place = "{60, 62}";
type = Stem;
},
{
place = "{617, 62}";
type = Stem;
},
{
horizontal = 1;
origin = "{0, 27}";
target = "{0, 12}";
type = Stem;
}
);
layerId = "880850B5-8983-48F5-8B3B-C79FAB21DC5C";
paths = (
{
closed = 1;
nodes = (
"485 -8 OFFCURVE",
"585 55 OFFCURVE",
"639 147 CURVE",
"587 177 LINE",
"542 100 OFFCURVE",
"460 52 OFFCURVE",
"370 51 CURVE SMOOTH",
"232 51 OFFCURVE",
"120 163 OFFCURVE",
"120 301 CURVE SMOOTH",
"120 439 OFFCURVE",
"232 550 OFFCURVE",
"370 550 CURVE SMOOTH",
"508 549 OFFCURVE",
"619 438 OFFCURVE",
"619 300 CURVE",
"633 310 OFFCURVE",
"648 321 OFFCURVE",
"662 331 CURVE",
"105 331 LINE",
"105 271 LINE",
"648 271 LINE SMOOTH",
"665 271 OFFCURVE",
"679 284 OFFCURVE",
"679 300 CURVE SMOOTH",
"679 471 OFFCURVE",
"541 609 OFFCURVE",
"370 610 CURVE SMOOTH",
"199 610 OFFCURVE",
"60 472 OFFCURVE",
"60 301 CURVE SMOOTH",
"60 130 OFFCURVE",
"199 -9 OFFCURVE",
"370 -9 CURVE SMOOTH"
);
}
);
width = 739;
},
{
anchors = (
{
name = above;
position = "{370, 969}";
},
{
name = accent;
position = "{370, 759}";
},
{
name = below;
position = "{370, -167}";
},
{
name = bottom;
position = "{346, -1}";
}
);
guideLines = (
{
position = "{0, 301}";
},
{
angle = 90;
position = "{370, 720}";
}
);
hints = (
{
horizontal = 1;
origin = "{0, 33}";
target = "{0, 6}";
type = Stem;
},
{
horizontal = 1;
origin = "{0, 27}";
target = "{0, 12}";
type = Stem;
}
);
layerId = "F6EA0DC9-EF0B-4EA3-BC35-C878CD5534E5";
paths = (
{
closed = 1;
nodes = (
"481 -9 OFFCURVE",
"582 51 OFFCURVE",
"639 147 CURVE",
"480 189 LINE",
"451 162 OFFCURVE",
"409 144 OFFCURVE",
"368 144 CURVE SMOOTH",
"285 144 OFFCURVE",
"213 221 OFFCURVE",
"213 301 CURVE SMOOTH",
"213 383 OFFCURVE",
"287 457 OFFCURVE",
"370 457 CURVE SMOOTH",
"453 457 OFFCURVE",
"526 383 OFFCURVE",
"526 300 CURVE",
"526 349 OFFCURVE",
"559 350 OFFCURVE",
"609 350 CURVE",
"172 352 LINE",
"172 232 LINE",
"609 230 LINE SMOOTH",
"648 230 OFFCURVE",
"679 261 OFFCURVE",
"679 300 CURVE SMOOTH",
"679 471 OFFCURVE",
"541 610 OFFCURVE",
"370 610 CURVE SMOOTH",
"199 610 OFFCURVE",
"60 472 OFFCURVE",
"60 301 CURVE SMOOTH",
"60 130 OFFCURVE",
"199 -9 OFFCURVE",
"370 -9 CURVE SMOOTH"
);
}
);
width = 739;
}
);
leftKerningGroup = o;
rightKerningGroup = o;
unicode = 0065;
},
{
glyphname = f;
lastChange = "2017-06-05 20:34:39 +0000";
layers = (
{
hints = (
{
horizontal = 1;
place = "{0, 21}";
target = up;
type = BottomGhost;
},
{
horizontal = 1;
origin = "{1, 3}";
target = "{1, 2}";
type = Stem;
},
{
horizontal = 1;
origin = "{0, 11}";
target = "{0, 11}";
type = Stem;
},
{
place = "{80, 60}";
type = Stem;
}
);
layerId = "880850B5-8983-48F5-8B3B-C79FAB21DC5C";
paths = (
{
closed = 1;
nodes = (
"140 0 LINE",
"140 609 LINE SMOOTH",
"140 721 OFFCURVE",
"231 812 OFFCURVE",
"342 812 CURVE SMOOTH",
"384 812 OFFCURVE",
"423 799 OFFCURVE",
"456 776 CURVE",
"487 828 LINE",
"445 856 OFFCURVE",
"395 872 OFFCURVE",
"342 872 CURVE SMOOTH",
"197 872 OFFCURVE",
"80 753 OFFCURVE",
"80 609 CURVE SMOOTH",
"80 0 LINE"
);
},
{
closed = 1;
nodes = (
"390 540 LINE",
"390 600 LINE",
"111 600 LINE",
"111 540 LINE"
);
}
);
width = 527;
},
{
hints = (
{
horizontal = 1;
place = "{0, 21}";
target = up;
type = BottomGhost;
},
{
horizontal = 1;
origin = "{1, 3}";
target = "{1, 2}";
type = Stem;
},
{
horizontal = 1;
place = "{845, -245}";
type = Stem;
},
{
horizontal = 1;
place = "{845, -20}";
target = down;
type = TopGhost;
},
{
place = "{80, 160}";
type = Stem;
}
);
layerId = "F6EA0DC9-EF0B-4EA3-BC35-C878CD5534E5";
paths = (
{
closed = 1;
nodes = (
"240 0 LINE",
"240 569 LINE SMOOTH",
"240 652 OFFCURVE",
"308 720 OFFCURVE",
"390 720 CURVE SMOOTH",
"421 720 OFFCURVE",
"447 712 OFFCURVE",
"473 695 CURVE",
"562 828 LINE",
"511 861 OFFCURVE",
"450 880 OFFCURVE",
"390 880 CURVE SMOOTH",
"219 880 OFFCURVE",
"80 740 OFFCURVE",
"80 569 CURVE SMOOTH",
"80 0 LINE"
);
},
{
closed = 1;
nodes = (
"467 440 LINE",
"467 600 LINE",
"200 600 LINE",
"200 440 LINE"
);
}
);
width = 602;
}
);
leftKerningGroup = f;
rightKerningGroup = f;
unicode = 0066;
},
{
glyphname = g;
lastChange = "2017-06-07 03:26:51 +0000";
layers = (
{
anchors = (
{
name = accent;
position = "{370, 759}";
}
);
hints = (
{
horizontal = 1;
origin = "{0, 41}";
target = "{0, 40}";
type = Stem;
},
{
horizontal = 1;
origin = "{0, 16}";
target = "{0, 23}";
type = Stem;
},
{
horizontal = 1;
origin = "{0, 10}";
target = "{0, 29}";
type = Stem;
},
{
place = "{60, 60}";
type = Stem;
},
{
place = "{574, 60}";
type = Stem;
}
);
layerId = "880850B5-8983-48F5-8B3B-C79FAB21DC5C";
paths = (
{
closed = 1;
nodes = (
"419 -229 LINE SMOOTH",
"537 -229 OFFCURVE",
"634 -132 OFFCURVE",
"634 -14 CURVE SMOOTH",
"634 418 LINE SMOOTH",
"634 450 OFFCURVE",
"628 475 OFFCURVE",
"608 499 CURVE SMOOTH",
"551 567 OFFCURVE",
"465 611 OFFCURVE",
"370 611 CURVE SMOOTH",
"200 611 OFFCURVE",
"60 470 OFFCURVE",
"60 301 CURVE SMOOTH",
"60 132 OFFCURVE",
"200 -9 OFFCURVE",
"370 -9 CURVE SMOOTH",
"474 -9 OFFCURVE",
"565 43 OFFCURVE",
"622 122 CURVE",
"573 157 LINE",
"525 89 OFFCURVE",
"451 51 OFFCURVE",
"370 51 CURVE SMOOTH",
"233 51 OFFCURVE",
"120 164 OFFCURVE",
"120 301 CURVE SMOOTH",
"120 438 OFFCURVE",
"233 551 OFFCURVE",
"370 551 CURVE SMOOTH",
"444 551 OFFCURVE",
"514 518 OFFCURVE",
"562 461 CURVE SMOOTH",
"571 450 OFFCURVE",
"574 441 OFFCURVE",
"574 418 CURVE SMOOTH",
"574 -14 LINE SMOOTH",
"574 -99 OFFCURVE",
"504 -169 OFFCURVE",
"419 -169 CURVE SMOOTH",
"149 -169 LINE",
"149 -229 LINE"
);
}
);
width = 714;
},
{
anchors = (
{
name = accent;
position = "{370, 759}";
}
);
hints = (
{
horizontal = 1;
origin = "{0, 41}";
target = "{0, 40}";
type = Stem;
},
{
horizontal = 1;
origin = "{0, 16}";
target = "{0, 23}";
type = Stem;
},
{
horizontal = 1;
origin = "{0, 10}";
target = "{0, 29}";
type = Stem;
},
{
place = "{60, 160}";
type = Stem;
},
{
place = "{474, 160}";
type = Stem;
}
);
layerId = "F6EA0DC9-EF0B-4EA3-BC35-C878CD5534E5";
paths = (
{
closed = 1;
nodes = (
"444 -230 LINE SMOOTH",
"549 -230 OFFCURVE",
"634 -145 OFFCURVE",
"634 -40 CURVE SMOOTH",
"634 416 LINE SMOOTH",
"634 448 OFFCURVE",
"629 472 OFFCURVE",
"608 497 CURVE SMOOTH",
"551 565 OFFCURVE",
"465 609 OFFCURVE",
"370 609 CURVE SMOOTH",
"200 609 OFFCURVE",
"60 468 OFFCURVE",
"60 299 CURVE SMOOTH",
"60 130 OFFCURVE",
"200 -11 OFFCURVE",
"370 -11 CURVE SMOOTH",
"474 -11 OFFCURVE",
"565 41 OFFCURVE",
"622 120 CURVE",
"492 214 LINE",
"462 172 OFFCURVE",
"418 149 OFFCURVE",
"370 149 CURVE SMOOTH",
"289 149 OFFCURVE",
"220 218 OFFCURVE",
"220 299 CURVE SMOOTH",
"220 380 OFFCURVE",
"289 449 OFFCURVE",
"370 449 CURVE SMOOTH",
"407 449 OFFCURVE",
"443 436 OFFCURVE",
"463 418 CURVE SMOOTH",
"472 410 OFFCURVE",
"474 400 OFFCURVE",
"474 386 CURVE SMOOTH",
"474 -40 LINE SMOOTH",
"474 -57 OFFCURVE",
"461 -70 OFFCURVE",
"444 -70 CURVE SMOOTH",
"150 -70 LINE",
"150 -230 LINE"
);
}
);
width = 714;
}
);
leftKerningGroup = g;
rightKerningGroup = g;
unicode = 0067;
},
{
glyphname = yogh;
lastChange = "2017-04-27 23:03:55 +0000";
layers = (
{
layerId = "880850B5-8983-48F5-8B3B-C79FAB21DC5C";
paths = (
{
closed = 1;
nodes = (
"431 -100 LINE SMOOTH",
"536 -100 OFFCURVE",
"621 -15 OFFCURVE",
"621 90 CURVE SMOOTH",
"621 195 OFFCURVE",
"536 280 OFFCURVE",
"431 280 CURVE SMOOTH",
"222 280 LINE",
"227 266 LINE",
"589 509 LINE SMOOTH",
"605 520 OFFCURVE",
"612 536 OFFCURVE",
"612 551 CURVE SMOOTH",
"612 576 OFFCURVE",
"593 600 OFFCURVE",
"561 600 CURVE SMOOTH",
"89 600 LINE",
"89 540 LINE",
"554 540 LINE",
"549 555 LINE",
"193 314 LINE SMOOTH",
"176 303 OFFCURVE",
"169 286 OFFCURVE",
"169 271 CURVE SMOOTH",
"169 245 OFFCURVE",
"189 220 OFFCURVE",
"222 220 CURVE SMOOTH",
"431 220 LINE SMOOTH",
"503 220 OFFCURVE",
"561 162 OFFCURVE",
"561 90 CURVE SMOOTH",
"561 18 OFFCURVE",
"503 -40 OFFCURVE",
"431 -40 CURVE SMOOTH",
"237 -40 LINE SMOOTH",
"192 -40 OFFCURVE",
"153 -17 OFFCURVE",
"129 17 CURVE",
"80 -16 LINE",
"114 -67 OFFCURVE",
"171 -100 OFFCURVE",
"237 -100 CURVE SMOOTH"
);
}
);
width = 701;
},
{
layerId = "F6EA0DC9-EF0B-4EA3-BC35-C878CD5534E5";
paths = (
{
closed = 1;
nodes = (
"459 -150 LINE SMOOTH",
"577 -150 OFFCURVE",
"674 -53 OFFCURVE",
"674 65 CURVE SMOOTH",
"674 183 OFFCURVE",
"578 280 OFFCURVE",
"459 280 CURVE SMOOTH",
"394 280 LINE",
"403 255 LINE",
"612 433 LINE SMOOTH",
"635 452 OFFCURVE",
"645 478 OFFCURVE",
"645 503 CURVE SMOOTH",
"645 552 OFFCURVE",
"607 600 OFFCURVE",
"549 600 CURVE SMOOTH",
"115 600 LINE",
"115 440 LINE",
"411 440 LINE",
"402 465 LINE",
"193 287 LINE SMOOTH",
"170 268 OFFCURVE",
"160 242 OFFCURVE",
"160 217 CURVE SMOOTH",
"160 168 OFFCURVE",
"198 120 OFFCURVE",
"256 120 CURVE SMOOTH",
"459 120 LINE SMOOTH",
"490 120 OFFCURVE",
"514 96 OFFCURVE",
"514 65 CURVE SMOOTH",
"514 34 OFFCURVE",
"490 10 OFFCURVE",
"459 10 CURVE SMOOTH",
"259 10 LINE SMOOTH",
"240 10 OFFCURVE",
"223 19 OFFCURVE",
"213 34 CURVE",
"80 -54 LINE",
"119 -112 OFFCURVE",
"185 -150 OFFCURVE",
"259 -150 CURVE SMOOTH"
);
}
);
width = 754;
}
);
leftMetricsKey = Yogh;
rightMetricsKey = Yogh;
unicode = 021D;
},
{
glyphname = h;
lastChange = "2022-10-15 20:52:23 +0000";
layers = (
{
anchors = (
{
name = bar;
position = "{93, 681}";
},
{
name = bottom;
position = "{608, 8}";
}
);
layerId = "880850B5-8983-48F5-8B3B-C79FAB21DC5C";
paths = (
{
closed = 1;
nodes = (
"637 0 LINE",
"637 301 LINE SMOOTH",
"637 470 OFFCURVE",
"497 611 OFFCURVE",
"327 611 CURVE SMOOTH",
"223 611 OFFCURVE",
"132 559 OFFCURVE",
"75 480 CURVE",
"118 440 LINE",
"168 511 OFFCURVE",
"246 551 OFFCURVE",
"327 551 CURVE SMOOTH",
"464 551 OFFCURVE",
"577 438 OFFCURVE",
"577 301 CURVE SMOOTH",
"577 0 LINE"
);
},
{
closed = 1;
nodes = (
"123 1 LINE",
"123 800 LINE",
"63 800 LINE",
"63 1 LINE"
);
}
);
width = 700;
},
{
anchors = (
{
name = bar;
position = "{143, 701}";
},
{
name = bottom;
position = "{561, 8}";
}
);
hints = (
{
horizontal = 1;
origin = "{1, 3}";
target = up;
type = BottomGhost;
},
{
horizontal = 1;
origin = "{0, 4}";
target = "{0, 11}";
type = Stem;
},
{
horizontal = 1;
origin = "{1, 2}";
target = down;
type = TopGhost;
},
{
place = "{63, 143}";
type = Stem;
},
{
place = "{477, 143}";
type = Stem;
}
);
layerId = "F6EA0DC9-EF0B-4EA3-BC35-C878CD5534E5";
paths = (
{
closed = 1;
nodes = (
"637 0 LINE",
"637 301 LINE SMOOTH",
"637 470 OFFCURVE",
"497 611 OFFCURVE",
"327 611 CURVE SMOOTH",
"223 611 OFFCURVE",
"132 559 OFFCURVE",
"75 480 CURVE",
"205 386 LINE",
"235 428 OFFCURVE",
"279 451 OFFCURVE",
"327 451 CURVE SMOOTH",
"408 451 OFFCURVE",
"477 382 OFFCURVE",
"477 301 CURVE SMOOTH",
"477 0 LINE"
);
},
{
closed = 1;
nodes = (
"223 0 LINE",
"223 800 LINE",
"63 800 LINE",
"63 0 LINE"
);
}
);
width = 700;
}
);
leftKerningGroup = h;
rightKerningGroup = n;
unicode = 0068;
},
{
glyphname = idotless;
lastChange = "2017-04-11 22:01:49 +0000";
layers = (
{
anchors = (
{
name = above;
position = "{130, 969}";
},
{
name = accent;
position = "{130, 759}";
},
{
name = below;
position = "{130, -167}";
},
{
name = bottom;
position = "{136, 8}";
}
);
hints = (
{
horizontal = 1;
origin = "{0, 0}";
target = up;
type = BottomGhost;
},
{
horizontal = 1;
origin = "{0, 3}";
target = down;
type = TopGhost;
},
{
place = "{100, 60}";
type = Stem;
}
);
layerId = "880850B5-8983-48F5-8B3B-C79FAB21DC5C";
paths = (
{
closed = 1;
nodes = (
"100 0 LINE",
"160 0 LINE",
"160 600 LINE",
"100 600 LINE"
);
}
);
width = 260;
},
{
anchors = (
{
name = above;
position = "{180, 969}";
},
{
name = accent;
position = "{180, 759}";
},
{
name = below;
position = "{180, -167}";
},
{
name = bottom;
position = "{173, 8}";
}
);
guideLines = (
{
angle = 90;
position = "{180, 701}";
}
);
hints = (
{
horizontal = 1;
origin = "{0, 0}";
target = up;
type = BottomGhost;
},
{
horizontal = 1;
origin = "{0, 3}";
target = down;
type = TopGhost;
},
{
place = "{100, 160}";
type = Stem;
}
);
layerId = "F6EA0DC9-EF0B-4EA3-BC35-C878CD5534E5";
paths = (
{
closed = 1;
nodes = (
"100 0 LINE",
"260 0 LINE",
"260 600 LINE",
"100 600 LINE"
);
}
);
width = 360;
}
);
leftKerningGroup = i;
rightKerningGroup = i;
unicode = 0131;
},
{
glyphname = jdotless;
lastChange = "2017-04-10 22:12:00 +0000";
layers = (
{
anchors = (
{
name = accent;
position = "{109, 759}";
}
);
hints = (
{
horizontal = 1;
origin = "{0, 11}";
target = "{0, 10}";
type = Stem;
},
{
horizontal = 1;
origin = "{0, 5}";
target = down;
type = TopGhost;
},
{
place = "{80, 60}";
type = Stem;
}
);
layerId = "880850B5-8983-48F5-8B3B-C79FAB21DC5C";
paths = (
{
closed = 1;
nodes = (
"-60 -230 LINE SMOOTH",
"70 -230 OFFCURVE",
"140 -160 OFFCURVE",
"140 -30 CURVE SMOOTH",
"140 600 LINE",
"80 600 LINE",
"80 -30 LINE SMOOTH",
"80 -127 OFFCURVE",
"36 -170 OFFCURVE",
"-60 -170 CURVE SMOOTH",
"-129 -170 LINE",
"-129 -230 LINE"
);
}
);
width = 220;
},
{
anchors = (
{
name = accent;
position = "{181, 759}";
}
);
hints = (
{
horizontal = 1;
origin = "{0, 11}";
target = "{0, 10}";
type = Stem;
},
{
horizontal = 1;
origin = "{0, 5}";
target = down;
type = TopGhost;
},
{
place = "{100, 160}";
type = Stem;
}
);
layerId = "F6EA0DC9-EF0B-4EA3-BC35-C878CD5534E5";
paths = (
{
closed = 1;
nodes = (
"60 -230 LINE SMOOTH",
"190 -230 OFFCURVE",
"260 -160 OFFCURVE",
"260 -30 CURVE SMOOTH",
"260 600 LINE",
"100 600 LINE",
"100 -30 LINE SMOOTH",
"100 -52 OFFCURVE",
"82 -70 OFFCURVE",
"60 -70 CURVE SMOOTH",
"-49 -70 LINE",
"-49 -230 LINE"
);
}
);
width = 360;
}
);
leftKerningGroup = j;
rightKerningGroup = j;
unicode = 0237;
},
{
glyphname = k;
lastChange = "2017-06-07 03:22:35 +0000";
layers = (
{
anchors = (
{
name = accent;
position = "{320, 759}";
}
);
hints = (
{
horizontal = 1;
origin = "{1, 3}";
target = up;
type = BottomGhost;
},
{
horizontal = 1;
origin = "{0, 9}";
target = down;
type = TopGhost;
},
{
horizontal = 1;
origin = "{1, 2}";
target = down;
type = TopGhost;
},
{
place = "{80, 60}";
type = Stem;
},
{
place = "{184, 59}";
type = Stem;
}
);
layerId = "880850B5-8983-48F5-8B3B-C79FAB21DC5C";
paths = (
{
closed = 1;
nodes = (
"571 0 LINE",
"261 288 LINE SMOOTH",
"249 299 OFFCURVE",
"243 308 OFFCURVE",
"243 317 CURVE SMOOTH",
"243 326 OFFCURVE",
"249 335 OFFCURVE",
"259 346 CURVE SMOOTH",
"496 600 LINE",
"415 600 LINE",
"216 387 LINE SMOOTH",
"194 364 OFFCURVE",
"184 340 OFFCURVE",
"184 317 CURVE SMOOTH",
"184 292 OFFCURVE",
"196 268 OFFCURVE",
"221 245 CURVE SMOOTH",
"484 0 LINE"
);
},
{
closed = 1;
nodes = (
"140 0 LINE",
"140 800 LINE",
"80 800 LINE",
"80 0 LINE"
);
}
);
width = 631;
},
{
anchors = (
{
name = accent;
position = "{430, 759}";
}
);
hints = (
{
horizontal = 1;
origin = "{1, 3}";
target = up;
type = BottomGhost;
},
{
horizontal = 1;
origin = "{0, 9}";
target = down;
type = TopGhost;
},
{
horizontal = 1;
origin = "{1, 2}";
target = down;
type = TopGhost;
},
{
place = "{80, 160}";
type = Stem;
},
{
origin = "{0, 13}";
target = "{0, 9}";
type = Stem;
}
);
layerId = "F6EA0DC9-EF0B-4EA3-BC35-C878CD5534E5";
paths = (
{
closed = 1;
nodes = (
"699 0 LINE",
"460 317 LINE SMOOTH",
"456 322 OFFCURVE",
"455 326 OFFCURVE",
"455 329 CURVE SMOOTH",
"455 333 OFFCURVE",
"457 336 OFFCURVE",
"460 341 CURVE SMOOTH",
"624 600 LINE",
"435 600 LINE",
"285 363 LINE SMOOTH",
"277 350 OFFCURVE",
"273 336 OFFCURVE",
"273 324 CURVE SMOOTH",
"273 308 OFFCURVE",
"278 294 OFFCURVE",
"289 279 CURVE SMOOTH",
"499 0 LINE"
);
},
{
closed = 1;
nodes = (
"240 0 LINE",
"240 800 LINE",
"80 800 LINE",
"80 0 LINE"
);
}
);
width = 759;
}
);
leftKerningGroup = k;
rightKerningGroup = k;
unicode = 006B;
},
{
glyphname = l;
lastChange = "2017-06-06 22:46:15 +0000";
layers = (
{
anchors = (
{
name = accent;
position = "{110, 969}";
},
{
name = accentside;
position = "{229, 681}";
},
{
name = slash;
position = "{111, 389}";
}
);
hints = (
{
origin = "{0, 2}";
target = "{0, 1}";
type = Stem;
}
);
layerId = "880850B5-8983-48F5-8B3B-C79FAB21DC5C";
paths = (
{
closed = 1;
nodes = (
"140 0 LINE",
"140 800 LINE",
"80 800 LINE",
"80 0 LINE"
);
}
);
width = 220;
},
{
anchors = (
{
name = accent;
position = "{160, 969}";
},
{
name = accentside;
position = "{345, 700}";
},
{
name = slash;
position = "{160, 400}";
}
);
hints = (
{
horizontal = 1;
origin = "{0, 3}";
target = up;
type = BottomGhost;
},
{
horizontal = 1;
origin = "{0, 2}";
target = down;
type = TopGhost;
},
{
place = "{80, 160}";
type = Stem;
}
);
layerId = "F6EA0DC9-EF0B-4EA3-BC35-C878CD5534E5";
paths = (
{
closed = 1;
nodes = (
"240 0 LINE",
"240 800 LINE",
"80 800 LINE",
"80 0 LINE"
);
}
);
width = 320;
}
);
leftKerningGroup = l;
rightKerningGroup = l;
unicode = 006C;
},
{
glyphname = m;
lastChange = "2017-06-07 03:26:45 +0000";
layers = (
{
hints = (
{
horizontal = 1;
origin = "{1, 17}";
target = up;
type = BottomGhost;
},
{
horizontal = 1;
origin = "{1, 13}";
target = "{1, 4}";
type = Stem;
},
{
place = "{73, 60}";
type = Stem;
},
{
place = "{420, 60}";
type = Stem;
},
{
place = "{767, 60}";
type = Stem;
}
);
layerId = "880850B5-8983-48F5-8B3B-C79FAB21DC5C";
paths = (
{
closed = 1;
nodes = (
"827 0 LINE",
"827 406 LINE SMOOTH",
"827 519 OFFCURVE",
"735 610 OFFCURVE",
"624 610 CURVE SMOOTH",
"511 610 OFFCURVE",
"420 519 OFFCURVE",
"420 406 CURVE",
"480 406 LINE",
"480 486 OFFCURVE",
"544 550 OFFCURVE",
"624 550 CURVE SMOOTH",
"703 550 OFFCURVE",
"767 485 OFFCURVE",
"767 406 CURVE SMOOTH",
"767 0 LINE"
);
},
{
closed = 1;
nodes = (
"133 0 LINE",
"133 406 LINE SMOOTH",
"133 486 OFFCURVE",
"197 550 OFFCURVE",
"277 550 CURVE SMOOTH",
"356 550 OFFCURVE",
"420 485 OFFCURVE",
"420 406 CURVE SMOOTH",
"420 0 LINE",
"480 0 LINE",
"480 406 LINE SMOOTH",
"480 519 OFFCURVE",
"388 610 OFFCURVE",
"277 610 CURVE SMOOTH",
"164 610 OFFCURVE",
"73 519 OFFCURVE",
"73 406 CURVE SMOOTH",
"73 0 LINE"
);
}
);
width = 900;
},
{
hints = (
{
horizontal = 1;
origin = "{1, 17}";
target = up;
type = BottomGhost;
},
{
horizontal = 1;
origin = "{1, 13}";
target = "{1, 4}";
type = Stem;
},
{
place = "{62, 160}";
type = Stem;
},
{
place = "{370, 160}";
type = Stem;
},
{
place = "{678, 160}";
type = Stem;
}
);
layerId = "F6EA0DC9-EF0B-4EA3-BC35-C878CD5534E5";
paths = (
{
closed = 1;
nodes = (
"838 0 LINE",
"838 376 LINE SMOOTH",
"838 505 OFFCURVE",
"733 610 OFFCURVE",
"604 610 CURVE SMOOTH",
"475 610 OFFCURVE",
"370 505 OFFCURVE",
"370 376 CURVE",
"530 376 LINE",
"530 417 OFFCURVE",
"563 450 OFFCURVE",
"604 450 CURVE SMOOTH",
"645 450 OFFCURVE",
"678 417 OFFCURVE",
"678 376 CURVE SMOOTH",
"678 0 LINE"
);
},
{
closed = 1;
nodes = (
"222 0 LINE",
"222 376 LINE SMOOTH",
"222 417 OFFCURVE",
"255 450 OFFCURVE",
"296 450 CURVE SMOOTH",
"337 450 OFFCURVE",
"370 417 OFFCURVE",
"370 376 CURVE SMOOTH",
"370 0 LINE",
"530 0 LINE",
"530 376 LINE SMOOTH",
"530 506 OFFCURVE",
"425 610 OFFCURVE",
"296 610 CURVE SMOOTH",
"167 610 OFFCURVE",
"62 505 OFFCURVE",
"62 376 CURVE SMOOTH",
"62 0 LINE"
);
}
);
width = 900;
}
);
leftKerningGroup = m;
rightKerningGroup = m;
unicode = 006D;
},
{
glyphname = n;
lastChange = "2017-06-07 03:22:26 +0000";
layers = (
{
anchors = (
{
name = accent;
position = "{344, 759}";
}
);
hints = (
{
horizontal = 1;
origin = "{0, 23}";
target = up;
type = BottomGhost;
},
{
horizontal = 1;
origin = "{0, 16}";
target = "{0, 7}";
type = Stem;
},
{
place = "{80, 60}";
type = Stem;
},
{
place = "{594, 60}";
type = Stem;
}
);
layerId = "880850B5-8983-48F5-8B3B-C79FAB21DC5C";
paths = (
{
closed = 1;
nodes = (
"140 0 LINE",
"140 418 LINE SMOOTH",
"140 441 OFFCURVE",
"143 450 OFFCURVE",
"152 460 CURVE SMOOTH",
"200 518 OFFCURVE",
"270 551 OFFCURVE",
"344 551 CURVE SMOOTH",
"481 551 OFFCURVE",
"594 438 OFFCURVE",
"594 301 CURVE SMOOTH",
"594 0 LINE",
"654 0 LINE",
"654 301 LINE SMOOTH",
"654 470 OFFCURVE",
"514 611 OFFCURVE",
"344 611 CURVE SMOOTH",
"249 611 OFFCURVE",
"163 567 OFFCURVE",
"106 499 CURVE SMOOTH",
"86 475 OFFCURVE",
"80 450 OFFCURVE",
"80 418 CURVE SMOOTH",
"80 0 LINE"
);
}
);
width = 734;
},
{
anchors = (
{
name = accent;
position = "{344, 759}";
}
);
hints = (
{
horizontal = 1;
origin = "{0, 23}";
target = up;
type = BottomGhost;
},
{
horizontal = 1;
origin = "{0, 16}";
target = "{0, 7}";
type = Stem;
},
{
place = "{80, 160}";
type = Stem;
},
{
place = "{494, 160}";
type = Stem;
}
);
layerId = "F6EA0DC9-EF0B-4EA3-BC35-C878CD5534E5";
paths = (
{
closed = 1;
nodes = (
"240 0 LINE",
"240 470 LINE",
"229 437 OFFCURVE",
"219 404 OFFCURVE",
"208 371 CURVE",
"255 435 OFFCURVE",
"300 451 OFFCURVE",
"344 451 CURVE SMOOTH",
"425 451 OFFCURVE",
"494 382 OFFCURVE",
"494 301 CURVE SMOOTH",
"494 0 LINE",
"654 0 LINE",
"654 301 LINE SMOOTH",
"654 470 OFFCURVE",
"514 611 OFFCURVE",
"344 611 CURVE SMOOTH",
"249 611 OFFCURVE",
"163 567 OFFCURVE",
"106 499 CURVE SMOOTH",
"86 475 OFFCURVE",
"80 450 OFFCURVE",
"80 418 CURVE SMOOTH",
"80 0 LINE"
);
}
);
width = 734;
}
);
leftKerningGroup = n;
rightKerningGroup = n;
unicode = 006E;
},
{
glyphname = eng;
lastChange = "2017-04-10 22:12:36 +0000";
layers = (
{
anchors = (
{
name = accent;
position = "{344, 759}";
}
);
hints = (
{
horizontal = 1;
origin = "{0, 31}";
target = "{0, 30}";
type = Stem;
},
{
horizontal = 1;
origin = "{0, 14}";
target = up;
type = BottomGhost;
},
{
horizontal = 1;
origin = "{0, 7}";
target = "{0, 22}";
type = Stem;
},
{
place = "{80, 160}";
type = Stem;
},
{
place = "{494, 160}";
type = Stem;
}
);
layerId = "F6EA0DC9-EF0B-4EA3-BC35-C878CD5534E5";
paths = (
{
closed = 1;
nodes = (
"454 -230 LINE SMOOTH",
"584 -230 OFFCURVE",
"654 -161 OFFCURVE",
"654 -30 CURVE SMOOTH",
"654 301 LINE SMOOTH",
"654 470 OFFCURVE",
"514 611 OFFCURVE",
"344 611 CURVE SMOOTH",
"249 611 OFFCURVE",
"163 567 OFFCURVE",
"106 499 CURVE SMOOTH",
"86 475 OFFCURVE",
"80 450 OFFCURVE",
"80 418 CURVE SMOOTH",
"80 0 LINE",
"240 0 LINE",
"240 470 LINE",
"229 437 OFFCURVE",
"219 404 OFFCURVE",
"208 371 CURVE",
"255 435 OFFCURVE",
"300 451 OFFCURVE",
"344 451 CURVE SMOOTH",
"425 451 OFFCURVE",
"494 382 OFFCURVE",
"494 301 CURVE SMOOTH",
"494 -30 LINE SMOOTH",
"494 -52 OFFCURVE",
"476 -70 OFFCURVE",
"454 -70 CURVE SMOOTH",
"345 -70 LINE",
"345 -230 LINE"
);
}
);
width = 734;
},
{
anchors = (
{
name = accent;
position = "{344, 759}";
}
);
layerId = "880850B5-8983-48F5-8B3B-C79FAB21DC5C";
paths = (
{
closed = 1;
nodes = (
"454 -230 LINE SMOOTH",
"584 -230 OFFCURVE",
"654 -160 OFFCURVE",
"654 -30 CURVE",
"654 301 LINE SMOOTH",
"654 470 OFFCURVE",
"514 611 OFFCURVE",
"344 611 CURVE SMOOTH",
"249 611 OFFCURVE",
"163 567 OFFCURVE",
"106 499 CURVE SMOOTH",
"86 475 OFFCURVE",
"80 450 OFFCURVE",
"80 418 CURVE SMOOTH",
"80 0 LINE",
"140 0 LINE",
"140 418 LINE SMOOTH",
"140 441 OFFCURVE",
"143 450 OFFCURVE",
"152 460 CURVE SMOOTH",
"200 518 OFFCURVE",
"270 551 OFFCURVE",
"344 551 CURVE SMOOTH",
"481 551 OFFCURVE",
"594 438 OFFCURVE",
"594 301 CURVE SMOOTH",
"594 -30 LINE SMOOTH",
"594 -127 OFFCURVE",
"550 -170 OFFCURVE",
"454 -170 CURVE SMOOTH",
"385 -170 LINE",
"385 -230 LINE"
);
}
);
width = 734;
}
);
leftKerningGroup = n;
leftMetricsKey = n;
rightKerningGroup = n;
rightMetricsKey = g;
unicode = 014B;
},
{
glyphname = o;
lastChange = "2017-06-07 03:26:49 +0000";
layers = (
{
anchors = (
{
name = above;
position = "{370, 969}";
},
{
name = accent;
position = "{370, 759}";
},
{
name = below;
position = "{370, -167}";
},
{
name = bottom;
position = "{347, -2}";
},
{
name = slash;
position = "{370, 301}";
}
);
hints = (
{
horizontal = 1;
origin = "{0, 5}";
target = "{1, 5}";
type = Stem;
},
{
horizontal = 1;
origin = "{0, 11}";
target = "{1, 11}";
type = Stem;
},
{
origin = "{0, 8}";
target = "{1, 2}";
type = Stem;
},
{
origin = "{1, 8}";
target = "{0, 2}";
type = Stem;
}
);
layerId = "880850B5-8983-48F5-8B3B-C79FAB21DC5C";
paths = (
{
closed = 1;
nodes = (
"542 -9 OFFCURVE",
"681 130 OFFCURVE",
"681 301 CURVE SMOOTH",
"681 472 OFFCURVE",
"541 611 OFFCURVE",
"370 611 CURVE SMOOTH",
"199 611 OFFCURVE",
"60 472 OFFCURVE",
"60 301 CURVE SMOOTH",
"60 130 OFFCURVE",
"199 -9 OFFCURVE",
"370 -9 CURVE SMOOTH"
);
},
{
closed = 1;
nodes = (
"232 51 OFFCURVE",
"120 163 OFFCURVE",
"120 301 CURVE SMOOTH",
"120 439 OFFCURVE",
"232 551 OFFCURVE",
"370 551 CURVE SMOOTH",
"508 551 OFFCURVE",
"621 439 OFFCURVE",
"621 301 CURVE SMOOTH",
"621 163 OFFCURVE",
"509 51 OFFCURVE",
"370 51 CURVE SMOOTH"
);
}
);
width = 741;
},
{
anchors = (
{
name = above;
position = "{370, 969}";
},
{
name = accent;
position = "{371, 759}";
},
{
name = below;
position = "{370, -167}";
},
{
name = bottom;
position = "{349, -1}";
},
{
name = slash;
position = "{370, 301}";
}
);
guideLines = (
{
angle = 90;
position = "{370, 700}";
}
);
hints = (
{
horizontal = 1;
origin = "{0, 11}";
target = "{1, 11}";
type = Stem;
},
{
horizontal = 1;
origin = "{0, 5}";
target = "{1, 5}";
type = Stem;
},
{
place = "{60, 160}";
type = Stem;
},
{
place = "{521, 160}";
type = Stem;
}
);
layerId = "F6EA0DC9-EF0B-4EA3-BC35-C878CD5534E5";
paths = (
{
closed = 1;
nodes = (
"542 -9 OFFCURVE",
"681 130 OFFCURVE",
"681 301 CURVE SMOOTH",
"681 472 OFFCURVE",
"541 611 OFFCURVE",
"370 611 CURVE SMOOTH",
"199 611 OFFCURVE",
"60 472 OFFCURVE",
"60 301 CURVE SMOOTH",
"60 130 OFFCURVE",
"199 -9 OFFCURVE",
"370 -9 CURVE SMOOTH"
);
},
{
closed = 1;
nodes = (
"287 151 OFFCURVE",
"220 218 OFFCURVE",
"220 301 CURVE SMOOTH",
"220 384 OFFCURVE",
"287 451 OFFCURVE",
"370 451 CURVE SMOOTH",
"453 451 OFFCURVE",
"521 383 OFFCURVE",
"521 301 CURVE SMOOTH",
"521 218 OFFCURVE",
"453 151 OFFCURVE",
"370 151 CURVE SMOOTH"
);
}
);
width = 741;
}
);
leftKerningGroup = o;
rightKerningGroup = o;
unicode = 006F;
},
{
glyphname = oe;
lastChange = "2017-04-10 22:12:53 +0000";
layers = (
{
anchors = (
{
name = accent;
position = "{1031, 759}";
}
);
hints = (
{
horizontal = 1;
origin = "{2, 5}";
target = "{1, 5}";
type = Stem;
},
{
horizontal = 1;
origin = "{2, 11}";
target = "{1, 11}";
type = Stem;
},
{
horizontal = 1;
origin = "{0, 27}";
target = "{0, 12}";
type = Stem;
},
{
place = "{60, 160}";
type = Stem;
}
);
layerId = "F6EA0DC9-EF0B-4EA3-BC35-C878CD5534E5";
paths = (
{
closed = 1;
nodes = (
"942 -9 OFFCURVE",
"1043 51 OFFCURVE",
"1100 147 CURVE",
"936 194 LINE",
"907 167 OFFCURVE",
"870 151 OFFCURVE",
"829 151 CURVE SMOOTH",
"746 151 OFFCURVE",
"681 221 OFFCURVE",
"681 301 CURVE SMOOTH",
"681 383 OFFCURVE",
"748 450 OFFCURVE",
"831 450 CURVE SMOOTH",
"914 450 OFFCURVE",
"980 383 OFFCURVE",
"980 300 CURVE",
"980 349 OFFCURVE",
"1020 350 OFFCURVE",
"1070 350 CURVE",
"633 351 LINE",
"633 231 LINE",
"1070 230 LINE SMOOTH",
"1109 230 OFFCURVE",
"1140 261 OFFCURVE",
"1140 300 CURVE SMOOTH",
"1140 471 OFFCURVE",
"1002 609 OFFCURVE",
"831 610 CURVE SMOOTH",
"660 611 OFFCURVE",
"521 472 OFFCURVE",
"521 301 CURVE SMOOTH",
"521 130 OFFCURVE",
"660 -9 OFFCURVE",
"831 -9 CURVE SMOOTH"
);
},
{
closed = 1;
nodes = (
"453 451 OFFCURVE",
"521 383 OFFCURVE",
"521 301 CURVE SMOOTH",
"521 218 OFFCURVE",
"453 151 OFFCURVE",
"370 151 CURVE SMOOTH",
"287 151 OFFCURVE",
"220 218 OFFCURVE",
"220 301 CURVE SMOOTH",
"220 384 OFFCURVE",
"287 451 OFFCURVE",
"370 451 CURVE SMOOTH"
);
},
{
closed = 1;
nodes = (
"199 611 OFFCURVE",
"60 472 OFFCURVE",
"60 301 CURVE",
"60 130 OFFCURVE",
"199 -9 OFFCURVE",
"370 -9 CURVE",
"542 -9 OFFCURVE",
"681 130 OFFCURVE",
"681 301 CURVE",
"681 472 OFFCURVE",
"541 611 OFFCURVE",
"370 611 CURVE"
);
}
);
width = 1200;
},
{
anchors = (
{
name = accent;
position = "{1032, 759}";
}
);
layerId = "880850B5-8983-48F5-8B3B-C79FAB21DC5C";
paths = (
{
closed = 1;
nodes = (
"1046 -9 OFFCURVE",
"1146 55 OFFCURVE",
"1200 147 CURVE",
"1148 177 LINE",
"1103 100 OFFCURVE",
"1021 52 OFFCURVE",
"931 51 CURVE SMOOTH",
"793 49 OFFCURVE",
"681 163 OFFCURVE",
"681 301 CURVE SMOOTH",
"681 439 OFFCURVE",
"793 550 OFFCURVE",
"931 550 CURVE SMOOTH",
"1069 550 OFFCURVE",
"1180 438 OFFCURVE",
"1180 300 CURVE",
"1194 310 OFFCURVE",
"1209 321 OFFCURVE",
"1223 331 CURVE",
"666 331 LINE",
"666 271 LINE",
"1209 271 LINE SMOOTH",
"1226 271 OFFCURVE",
"1240 284 OFFCURVE",
"1240 300 CURVE SMOOTH",
"1240 471 OFFCURVE",
"1102 609 OFFCURVE",
"931 610 CURVE SMOOTH",
"760 611 OFFCURVE",
"621 472 OFFCURVE",
"621 301 CURVE SMOOTH",
"621 130 OFFCURVE",
"760 -9 OFFCURVE",
"931 -9 CURVE SMOOTH"
);
},
{
closed = 1;
nodes = (
"508 551 OFFCURVE",
"621 439 OFFCURVE",
"621 301 CURVE SMOOTH",
"621 163 OFFCURVE",
"509 51 OFFCURVE",
"370 51 CURVE SMOOTH",
"232 51 OFFCURVE",
"120 163 OFFCURVE",
"120 301 CURVE SMOOTH",
"120 439 OFFCURVE",
"232 551 OFFCURVE",
"370 551 CURVE SMOOTH"
);
},
{
closed = 1;
nodes = (
"199 611 OFFCURVE",
"60 472 OFFCURVE",
"60 301 CURVE",
"60 130 OFFCURVE",
"199 -9 OFFCURVE",
"370 -9 CURVE",
"542 -9 OFFCURVE",
"681 130 OFFCURVE",
"681 301 CURVE",
"681 472 OFFCURVE",
"541 611 OFFCURVE",
"370 611 CURVE"
);
}
);
width = 1300;
}
);
leftKerningGroup = o;
leftMetricsKey = o;
rightKerningGroup = o;
rightMetricsKey = e;
unicode = 0153;
},
{
glyphname = p;
lastChange = "2017-06-07 03:23:17 +0000";
layers = (
{
hints = (
{
horizontal = 1;
origin = "{0, 20}";
target = "{0, 13}";
type = Stem;
},
{
horizontal = 1;
origin = "{0, 26}";
target = "{0, 7}";
type = Stem;
},
{
place = "{40, 60}";
type = Stem;
},
{
place = "{554, 60}";
type = Stem;
}
);
layerId = "880850B5-8983-48F5-8B3B-C79FAB21DC5C";
paths = (
{
closed = 1;
nodes = (
"140 -200 LINE",
"140 416 LINE SMOOTH",
"140 440 OFFCURVE",
"143 448 OFFCURVE",
"152 458 CURVE",
"200 516 OFFCURVE",
"270 549 OFFCURVE",
"344 549 CURVE SMOOTH",
"481 549 OFFCURVE",
"594 436 OFFCURVE",
"594 299 CURVE SMOOTH",
"594 162 OFFCURVE",
"481 49 OFFCURVE",
"344 49 CURVE SMOOTH",
"263 49 OFFCURVE",
"185 89 OFFCURVE",
"135 160 CURVE",
"92 120 LINE",
"149 41 OFFCURVE",
"240 -11 OFFCURVE",
"344 -11 CURVE SMOOTH",
"514 -11 OFFCURVE",
"654 130 OFFCURVE",
"654 299 CURVE SMOOTH",
"654 468 OFFCURVE",
"514 609 OFFCURVE",
"344 609 CURVE SMOOTH",
"249 609 OFFCURVE",
"163 565 OFFCURVE",
"106 497 CURVE SMOOTH",
"86 473 OFFCURVE",
"80 448 OFFCURVE",
"80 416 CURVE SMOOTH",
"80 -200 LINE"
);
}
);
width = 714;
},
{
guideLines = (
{
position = "{-228, 611}";
}
);
hints = (
{
horizontal = 1;
place = "{-11, 160}";
type = Stem;
},
{
horizontal = 1;
place = "{609, -160}";
type = Stem;
},
{
place = "{80, 160}";
type = Stem;
},
{
place = "{494, 160}";
type = Stem;
}
);
layerId = "F6EA0DC9-EF0B-4EA3-BC35-C878CD5534E5";
paths = (
{
closed = 1;
nodes = (
"240 -200 LINE",
"240 403 LINE SMOOTH",
"240 405 OFFCURVE",
"241 408 OFFCURVE",
"246 413 CURVE SMOOTH",
"265 432 OFFCURVE",
"302 449 OFFCURVE",
"344 449 CURVE SMOOTH",
"425 449 OFFCURVE",
"494 380 OFFCURVE",
"494 299 CURVE SMOOTH",
"494 218 OFFCURVE",
"425 149 OFFCURVE",
"344 149 CURVE SMOOTH",
"296 149 OFFCURVE",
"252 172 OFFCURVE",
"222 214 CURVE",
"92 120 LINE",
"149 41 OFFCURVE",
"240 -11 OFFCURVE",
"344 -11 CURVE SMOOTH",
"514 -11 OFFCURVE",
"654 130 OFFCURVE",
"654 299 CURVE SMOOTH",
"654 468 OFFCURVE",
"514 609 OFFCURVE",
"344 609 CURVE SMOOTH",
"249 609 OFFCURVE",
"164 564 OFFCURVE",
"106 497 CURVE SMOOTH",
"85 473 OFFCURVE",
"80 448 OFFCURVE",
"80 416 CURVE SMOOTH",
"80 -200 LINE"
);
}
);
width = 714;
}
);
leftKerningGroup = p;
rightKerningGroup = o;
rightMetricsKey = o;
unicode = 0070;
},
{
glyphname = thorn;
lastChange = "2017-04-10 22:13:07 +0000";
layers = (
{
hints = (
{
horizontal = 1;
origin = "{1, 9}";
target = "{1, 2}";
type = Stem;
},
{
horizontal = 1;
origin = "{1, 15}";
target = "{1, 22}";
type = Stem;
},
{
horizontal = 1;
origin = "{0, 1}";
target = down;
type = TopGhost;
},
{
place = "{80, 160}";
type = Stem;
},
{
place = "{494, 160}";
type = Stem;
}
);
layerId = "F6EA0DC9-EF0B-4EA3-BC35-C878CD5534E5";
paths = (
{
closed = 1;
nodes = (
"240 800 LINE",
"80 800 LINE",
"80 -200 LINE",
"240 -200 LINE"
);
},
{
closed = 1;
nodes = (
"494 220 OFFCURVE",
"425 151 OFFCURVE",
"344 151 CURVE SMOOTH",
"296 151 OFFCURVE",
"252 174 OFFCURVE",
"222 216 CURVE",
"92 122 LINE",
"149 43 OFFCURVE",
"240 -9 OFFCURVE",
"344 -9 CURVE SMOOTH",
"514 -9 OFFCURVE",
"654 132 OFFCURVE",
"654 301 CURVE SMOOTH",
"654 470 OFFCURVE",
"514 611 OFFCURVE",
"344 611 CURVE SMOOTH",
"240 611 OFFCURVE",
"149 559 OFFCURVE",
"92 480 CURVE",
"222 386 LINE",
"252 428 OFFCURVE",
"296 451 OFFCURVE",
"344 451 CURVE SMOOTH",
"425 451 OFFCURVE",
"494 382 OFFCURVE",
"494 301 CURVE SMOOTH"
);
}
);
width = 714;
},
{
layerId = "880850B5-8983-48F5-8B3B-C79FAB21DC5C";
paths = (
{
closed = 1;
nodes = (
"140 800 LINE",
"80 800 LINE",
"80 -199 LINE",
"140 -199 LINE"
);
},
{
closed = 1;
nodes = (
"594 164 OFFCURVE",
"481 51 OFFCURVE",
"344 51 CURVE SMOOTH",
"263 51 OFFCURVE",
"185 91 OFFCURVE",
"135 162 CURVE",
"92 122 LINE",
"149 43 OFFCURVE",
"240 -9 OFFCURVE",
"344 -9 CURVE SMOOTH",
"514 -9 OFFCURVE",
"654 132 OFFCURVE",
"654 301 CURVE SMOOTH",
"654 470 OFFCURVE",
"514 611 OFFCURVE",
"344 611 CURVE SMOOTH",
"240 611 OFFCURVE",
"149 559 OFFCURVE",
"92 480 CURVE",
"135 440 LINE",
"185 511 OFFCURVE",
"263 551 OFFCURVE",
"344 551 CURVE SMOOTH",
"481 551 OFFCURVE",
"594 438 OFFCURVE",
"594 301 CURVE SMOOTH"
);
}
);
width = 714;
}
);
leftKerningGroup = thorn;
rightKerningGroup = thorn;
rightMetricsKey = o;
unicode = 00FE;
},
{
glyphname = r;
lastChange = "2017-06-05 20:34:14 +0000";
layers = (
{
anchors = (
{
name = accent;
position = "{294, 759}";
}
);
guideLines = (
{
position = "{140, 367}";
},
{
angle = 90;
position = "{313, 540}";
}
);
hints = (
{
horizontal = 1;
origin = "{0, 21}";
target = up;
type = BottomGhost;
},
{
horizontal = 1;
origin = "{0, 14}";
target = "{0, 7}";
type = Stem;
},
{
place = "{80, 60}";
type = Stem;
}
);
layerId = "880850B5-8983-48F5-8B3B-C79FAB21DC5C";
paths = (
{
closed = 1;
nodes = (
"140 0 LINE",
"140 418 LINE SMOOTH",
"140 441 OFFCURVE",
"143 450 OFFCURVE",
"152 460 CURVE SMOOTH",
"200 518 OFFCURVE",
"270 551 OFFCURVE",
"344 551 CURVE SMOOTH",
"391 551 OFFCURVE",
"435 538 OFFCURVE",
"472 515 CURVE",
"500 568 LINE",
"454 595 OFFCURVE",
"401 611 OFFCURVE",
"344 611 CURVE SMOOTH",
"249 611 OFFCURVE",
"163 567 OFFCURVE",
"106 499 CURVE SMOOTH",
"86 475 OFFCURVE",
"80 450 OFFCURVE",
"80 418 CURVE SMOOTH",
"80 0 LINE"
);
}
);
width = 580;
},
{
anchors = (
{
name = accent;
position = "{284, 759}";
}
);
hints = (
{
horizontal = 1;
origin = "{0, 21}";
target = up;
type = BottomGhost;
},
{
horizontal = 1;
origin = "{0, 14}";
target = "{0, 7}";
type = Stem;
},
{
place = "{80, 160}";
type = Stem;
}
);
layerId = "F6EA0DC9-EF0B-4EA3-BC35-C878CD5534E5";
paths = (
{
closed = 1;
nodes = (
"240 0 LINE",
"240 404 LINE SMOOTH",
"240 406 OFFCURVE",
"241 409 OFFCURVE",
"243 411 CURVE SMOOTH",
"270 437 OFFCURVE",
"306 451 OFFCURVE",
"344 451 CURVE SMOOTH",
"371 451 OFFCURVE",
"394 445 OFFCURVE",
"419 430 CURVE",
"500 568 LINE",
"454 595 OFFCURVE",
"401 611 OFFCURVE",
"344 611 CURVE SMOOTH",
"249 611 OFFCURVE",
"163 567 OFFCURVE",
"106 499 CURVE SMOOTH",
"86 475 OFFCURVE",
"80 450 OFFCURVE",
"80 418 CURVE SMOOTH",
"80 0 LINE"
);
}
);
width = 560;
}
);
leftKerningGroup = r;
rightKerningGroup = r;
unicode = 0072;
},
{
glyphname = s;
lastChange = "2017-06-06 22:47:49 +0000";
layers = (
{
anchors = (
{
name = accent;
position = "{334, 759}";
},
{
name = bottom;
position = "{334, 8}";
}
);
hints = (
{
place = "{80.574, 0}";
type = Stem;
},
{
origin = "{0, 26}";
target = "{0, 3}";
type = Stem;
},
{
origin = "{0, 19}";
target = "{0, 10}";
type = Stem;
},
{
horizontal = 1;
origin = "{0, 15}";
target = "{0, 14}";
type = Stem;
},
{
horizontal = 1;
origin = "{0, 31}";
target = "{0, 30}";
type = Stem;
},
{
horizontal = 1;
origin = "{0, 22}";
target = "{0, 7}";
type = Stem;
}
);
layerId = "880850B5-8983-48F5-8B3B-C79FAB21DC5C";
paths = (
{
closed = 1;
nodes = (
"421 0 LINE SMOOTH",
"513 0 OFFCURVE",
"588 75 OFFCURVE",
"588 169 CURVE SMOOTH",
"588 261 OFFCURVE",
"513 336 OFFCURVE",
"421 336 CURVE SMOOTH",
"243 336 LINE SMOOTH",
"186 336 OFFCURVE",
"140 382 OFFCURVE",
"140 439 CURVE SMOOTH",
"140 496 OFFCURVE",
"186 542 OFFCURVE",
"243 542 CURVE SMOOTH",
"558 542 LINE",
"558 602 LINE",
"243 602 LINE SMOOTH",
"153 602 OFFCURVE",
"80 529 OFFCURVE",
"80 439 CURVE SMOOTH",
"80 349 OFFCURVE",
"153 276 OFFCURVE",
"243 276 CURVE SMOOTH",
"421 276 LINE SMOOTH",
"480 276 OFFCURVE",
"528 228 OFFCURVE",
"528 169 CURVE SMOOTH",
"528 108 OFFCURVE",
"480 60 OFFCURVE",
"421 60 CURVE SMOOTH",
"92 60 LINE",
"92 0 LINE"
);
}
);
width = 648;
},
{
anchors = (
{
name = accent;
position = "{338, 759}";
},
{
name = bottom;
position = "{338, 8}";
}
);
hints = (
{
horizontal = 1;
origin = "{0, 15}";
target = "{0, 14}";
type = Stem;
},
{
horizontal = 1;
origin = "{0, 31}";
target = "{0, 30}";
type = Stem;
},
{
origin = "{0, 19}";
target = "{0, 10}";
type = Stem;
},
{
origin = "{0, 26}";
target = "{0, 3}";
type = Stem;
},
{
horizontal = 1;
origin = "{0, 22}";
target = "{0, 7}";
type = Stem;
}
);
layerId = "F6EA0DC9-EF0B-4EA3-BC35-C878CD5534E5";
paths = (
{
closed = 1;
nodes = (
"400 0 LINE SMOOTH",
"505 0 OFFCURVE",
"590 85 OFFCURVE",
"590 190 CURVE SMOOTH",
"590 295 OFFCURVE",
"506 380 OFFCURVE",
"400 380 CURVE SMOOTH",
"270 380 LINE SMOOTH",
"253 380 OFFCURVE",
"240 393 OFFCURVE",
"240 410 CURVE SMOOTH",
"240 427 OFFCURVE",
"253 440 OFFCURVE",
"270 440 CURVE SMOOTH",
"535 440 LINE",
"535 600 LINE",
"270 600 LINE SMOOTH",
"165 600 OFFCURVE",
"80 515 OFFCURVE",
"80 410 CURVE SMOOTH",
"80 305 OFFCURVE",
"164 220 OFFCURVE",
"270 220 CURVE SMOOTH",
"400 220 LINE SMOOTH",
"417 220 OFFCURVE",
"430 207 OFFCURVE",
"430 190 CURVE SMOOTH",
"430 173 OFFCURVE",
"417 160 OFFCURVE",
"400 160 CURVE SMOOTH",
"95 160 LINE",
"95 0 LINE"
);
}
);
width = 650;
}
);
leftKerningGroup = s;
rightKerningGroup = s;
unicode = 0073;
},
{
glyphname = germandbls;
lastChange = "2017-04-14 22:01:19 +0000";
layers = (
{
hints = (
{
horizontal = 1;
origin = "{0, 45}";
target = "{0, 23}";
type = Stem;
},
{
horizontal = 1;
origin = "{0, 16}";
target = "{0, 31}";
type = Stem;
},
{
horizontal = 1;
origin = "{0, 41}";
target = "{0, 4}";
type = Stem;
},
{
place = "{80, 160}";
type = Stem;
},
{
place = "{488, 160}";
type = Stem;
}
);
layerId = "F6EA0DC9-EF0B-4EA3-BC35-C878CD5534E5";
paths = (
{
closed = 1;
nodes = (
"240 0 LINE",
"240 494 LINE SMOOTH",
"240 526 OFFCURVE",
"265 549 OFFCURVE",
"300 549 CURVE SMOOTH",
"319 549 OFFCURVE",
"341 543 OFFCURVE",
"360 526 CURVE",
"347 578 LINE",
"302 438 LINE SMOOTH",
"294 413 OFFCURVE",
"290 389 OFFCURVE",
"290 368 CURVE SMOOTH",
"290 280 OFFCURVE",
"357 230 OFFCURVE",
"444 230 CURVE SMOOTH",
"455 230 LINE SMOOTH",
"471 230 OFFCURVE",
"488 215 OFFCURVE",
"488 196 CURVE SMOOTH",
"488 175 OFFCURVE",
"473 160 OFFCURVE",
"454 160 CURVE SMOOTH",
"330 160 LINE",
"330 0 LINE",
"454 0 LINE SMOOTH",
"561 0 OFFCURVE",
"648 87 OFFCURVE",
"648 196 CURVE SMOOTH",
"648 303 OFFCURVE",
"561 390 OFFCURVE",
"455 390 CURVE",
"518 591 LINE SMOOTH",
"521 600 OFFCURVE",
"522 608 OFFCURVE",
"522 616 CURVE SMOOTH",
"522 639 OFFCURVE",
"510 657 OFFCURVE",
"486 669 CURVE SMOOTH",
"430 696 OFFCURVE",
"373 710 OFFCURVE",
"316 710 CURVE SMOOTH",
"177 710 OFFCURVE",
"80 613 OFFCURVE",
"80 494 CURVE SMOOTH",
"80 0 LINE"
);
}
);
width = 708;
},
{
hints = (
{
horizontal = 1;
origin = "{0, 45}";
target = "{0, 23}";
type = Stem;
},
{
horizontal = 1;
origin = "{0, 15}";
target = "{0, 9}";
type = Stem;
},
{
horizontal = 1;
origin = "{0, 41}";
target = "{0, 4}";
type = Stem;
},
{
place = "{80, 60}";
type = Stem;
},
{
place = "{528, 60}";
type = Stem;
}
);
layerId = "880850B5-8983-48F5-8B3B-C79FAB21DC5C";
paths = (
{
closed = 1;
nodes = (
"140 0 LINE",
"140 494 LINE SMOOTH",
"140 581 OFFCURVE",
"210 650 OFFCURVE",
"316 650 CURVE SMOOTH",
"379 650 OFFCURVE",
"430 630 OFFCURVE",
"443 623 CURVE",
"444 652 LINE",
"351 353 LINE SMOOTH",
"349 347 OFFCURVE",
"348 342 OFFCURVE",
"348 337 CURVE SMOOTH",
"348 313 OFFCURVE",
"368 293 OFFCURVE",
"392 293 CURVE SMOOTH",
"414 293 LINE SMOOTH",
"476 293 OFFCURVE",
"528 241 OFFCURVE",
"528 178 CURVE SMOOTH",
"528 113 OFFCURVE",
"476 60 OFFCURVE",
"413 60 CURVE SMOOTH",
"240 60 LINE",
"240 0 LINE",
"413 0 LINE SMOOTH",
"509 0 OFFCURVE",
"588 79 OFFCURVE",
"588 178 CURVE SMOOTH",
"588 274 OFFCURVE",
"509 353 OFFCURVE",
"414 353 CURVE",
"498 623 LINE SMOOTH",
"500 629 OFFCURVE",
"501 635 OFFCURVE",
"501 641 CURVE SMOOTH",
"501 656 OFFCURVE",
"493 668 OFFCURVE",
"477 675 CURVE SMOOTH",
"432 695 OFFCURVE",
"375 710 OFFCURVE",
"316 710 CURVE SMOOTH",
"177 710 OFFCURVE",
"80 613 OFFCURVE",
"80 494 CURVE SMOOTH",
"80 0 LINE"
);
}
);
width = 648;
}
);
unicode = 00DF;
},
{
glyphname = germandbls.case;
lastChange = "2017-04-10 22:14:07 +0000";
layers = (
{
hints = (
{
horizontal = 1;
origin = "{0, 47}";
target = "{0, 23}";
type = Stem;
},
{
horizontal = 1;
origin = "{0, 15}";
target = "{0, 32}";
type = Stem;
},
{
horizontal = 1;
origin = "{0, 43}";
target = "{0, 4}";
type = Stem;
},
{
place = "{80, 160}";
type = Stem;
},
{
place = "{534, 160}";
type = Stem;
}
);
layerId = "F6EA0DC9-EF0B-4EA3-BC35-C878CD5534E5";
paths = (
{
closed = 1;
nodes = (
"240 0 LINE",
"240 480 LINE SMOOTH",
"240 529 OFFCURVE",
"276 558 OFFCURVE",
"319 558 CURVE SMOOTH",
"346 558 OFFCURVE",
"375 547 OFFCURVE",
"399 523 CURVE",
"389 577 LINE",
"315 338 LINE SMOOTH",
"312 327 OFFCURVE",
"310 317 OFFCURVE",
"310 307 CURVE SMOOTH",
"310 258 OFFCURVE",
"348 220 OFFCURVE",
"402 220 CURVE SMOOTH",
"504 220 LINE SMOOTH",
"521 220 OFFCURVE",
"534 207 OFFCURVE",
"534 190 CURVE SMOOTH",
"534 173 OFFCURVE",
"521 160 OFFCURVE",
"504 160 CURVE SMOOTH",
"300 160 LINE",
"300 0 LINE",
"504 0 LINE SMOOTH",
"609 0 OFFCURVE",
"694 85 OFFCURVE",
"694 190 CURVE SMOOTH",
"694 295 OFFCURVE",
"609 380 OFFCURVE",
"504 380 CURVE SMOOTH",
"458 380 LINE",
"485 343 LINE",
"540 524 LINE SMOOTH",
"545 540 OFFCURVE",
"547 556 OFFCURVE",
"547 570 CURVE SMOOTH",
"547 601 OFFCURVE",
"537 629 OFFCURVE",
"519 651 CURVE SMOOTH",
"493 683 OFFCURVE",
"418 725 OFFCURVE",
"330 725 CURVE SMOOTH",
"192 725 OFFCURVE",
"80 626 OFFCURVE",
"80 480 CURVE SMOOTH",
"80 0 LINE"
);
}
);
width = 754;
},
{
hints = (
{
horizontal = 1;
origin = "{0, 47}";
target = "{0, 23}";
type = Stem;
},
{
horizontal = 1;
origin = "{0, 15}";
target = "{0, 32}";
type = Stem;
},
{
horizontal = 1;
origin = "{0, 43}";
target = "{0, 4}";
type = Stem;
},
{
place = "{80, 60}";
type = Stem;
},
{
place = "{634, 60}";
type = Stem;
}
);
layerId = "880850B5-8983-48F5-8B3B-C79FAB21DC5C";
paths = (
{
closed = 1;
nodes = (
"140 0 LINE",
"140 506 LINE SMOOTH",
"140 626 OFFCURVE",
"223 668 OFFCURVE",
"332 668 CURVE SMOOTH",
"382 668 OFFCURVE",
"437 659 OFFCURVE",
"492 645 CURVE",
"473 671 LINE",
"382 379 LINE SMOOTH",
"380 373 OFFCURVE",
"379 368 OFFCURVE",
"379 363 CURVE SMOOTH",
"379 338 OFFCURVE",
"398 320 OFFCURVE",
"425 320 CURVE SMOOTH",
"504 320 LINE SMOOTH",
"576 320 OFFCURVE",
"634 262 OFFCURVE",
"634 190 CURVE SMOOTH",
"634 118 OFFCURVE",
"576 60 OFFCURVE",
"504 60 CURVE SMOOTH",
"239 60 LINE",
"239 0 LINE",
"504 0 LINE SMOOTH",
"609 0 OFFCURVE",
"694 85 OFFCURVE",
"694 190 CURVE SMOOTH",
"694 295 OFFCURVE",
"609 380 OFFCURVE",
"504 380 CURVE SMOOTH",
"406 380 LINE",
"435 346 LINE",
"528 646 LINE SMOOTH",
"530 652 OFFCURVE",
"531 657 OFFCURVE",
"531 663 CURVE SMOOTH",
"531 687 OFFCURVE",
"513 701 OFFCURVE",
"486 707 CURVE SMOOTH",
"432 719 OFFCURVE",
"379 726 OFFCURVE",
"331 726 CURVE SMOOTH",
"187 726 OFFCURVE",
"80 667 OFFCURVE",
"80 506 CURVE SMOOTH",
"80 0 LINE"
);
}
);
width = 754;
}
);
},
{
glyphname = longs;
lastChange = "2017-04-16 05:05:17 +0000";
layers = (
{
layerId = "F6EA0DC9-EF0B-4EA3-BC35-C878CD5534E5";
paths = (
{
closed = 1;
nodes = (
"185 801 OFFCURVE",
"100 716 OFFCURVE",
"100 611 CURVE SMOOTH",
"100 -40 LINE SMOOTH",
"100 -57 OFFCURVE",
"87 -70 OFFCURVE",
"70 -70 CURVE SMOOTH",
"-80 -70 LINE",
"-80 -230 LINE",
"70 -230 LINE SMOOTH",
"175 -230 OFFCURVE",
"260 -145 OFFCURVE",
"260 -40 CURVE SMOOTH",
"260 611 LINE SMOOTH",
"260 628 OFFCURVE",
"273 641 OFFCURVE",
"290 641 CURVE SMOOTH",
"440 641 LINE",
"440 801 LINE",
"290 801 LINE SMOOTH"
);
}
);
width = 360;
},
{
layerId = "880850B5-8983-48F5-8B3B-C79FAB21DC5C";
paths = (
{
closed = 1;
nodes = (
"215 801 OFFCURVE",
"130 716 OFFCURVE",
"130 611 CURVE SMOOTH",
"130 -40 LINE SMOOTH",
"130 -112 OFFCURVE",
"72 -170 OFFCURVE",
"0 -170 CURVE SMOOTH",
"-100 -170 LINE",
"-100 -230 LINE",
"0 -230 LINE SMOOTH",
"105 -230 OFFCURVE",
"190 -145 OFFCURVE",
"190 -40 CURVE SMOOTH",
"190 611 LINE SMOOTH",
"190 683 OFFCURVE",
"248 741 OFFCURVE",
"320 741 CURVE SMOOTH",
"420 741 LINE",
"420 801 LINE",
"320 801 LINE SMOOTH"
);
}
);
width = 320;
}
);
unicode = 017F;
},
{
glyphname = t;
lastChange = "2017-06-07 03:21:36 +0000";
layers = (
{
anchors = (
{
name = accent;
position = "{274, 799}";
},
{
name = accentside;
position = "{399, 681}";
},
{
name = bar;
position = "{108, 362}";
},
{
name = bottom;
position = "{274, 8}";
}
);
layerId = "880850B5-8983-48F5-8B3B-C79FAB21DC5C";
paths = (
{
closed = 1;
nodes = (
"450 0 LINE",
"450 60 LINE",
"270 60 LINE SMOOTH",
"198 60 OFFCURVE",
"140 118 OFFCURVE",
"140 190 CURVE SMOOTH",
"140 700 LINE",
"80 700 LINE",
"80 190 LINE SMOOTH",
"80 85 OFFCURVE",
"166 0 OFFCURVE",
"270 0 CURVE SMOOTH"
);
},
{
closed = 1;
nodes = (
"450 540 LINE",
"450 600 LINE",
"111 600 LINE",
"111 540 LINE"
);
}
);
width = 530;
},
{
anchors = (
{
name = accent;
position = "{264, 849}";
},
{
name = accentside;
position = "{395, 700}";
},
{
name = bar;
position = "{157, 297}";
},
{
name = bottom;
position = "{284, 8}";
}
);
hints = (
{
horizontal = 1;
origin = "{0, 11}";
target = "{0, 2}";
type = Stem;
},
{
horizontal = 1;
origin = "{1, 2}";
target = "{1, 3}";
type = Stem;
},
{
horizontal = 1;
origin = "{0, 7}";
target = down;
type = TopGhost;
},
{
place = "{80, 160}";
type = Stem;
}
);
layerId = "F6EA0DC9-EF0B-4EA3-BC35-C878CD5534E5";
paths = (
{
closed = 1;
nodes = (
"450 0 LINE",
"450 160 LINE",
"270 160 LINE SMOOTH",
"253 160 OFFCURVE",
"240 173 OFFCURVE",
"240 190 CURVE SMOOTH",
"240 700 LINE",
"80 700 LINE",
"80 190 LINE SMOOTH",
"80 85 OFFCURVE",
"165 0 OFFCURVE",
"270 0 CURVE SMOOTH"
);
},
{
closed = 1;
nodes = (
"450 440 LINE",
"450 600 LINE",
"155 600 LINE",
"155 440 LINE"
);
}
);
width = 530;
}
);
leftKerningGroup = t;
rightKerningGroup = t;
unicode = 0074;
},
{
glyphname = u;
lastChange = "2017-06-07 03:26:37 +0000";
layers = (
{
anchors = (
{
name = above;
position = "{342, 969}";
},
{
name = accent;
position = "{342, 759}";
},
{
name = below;
position = "{342, -167}";
},
{
name = bottom;
position = "{324, -1}";
}
);
hints = (
{
horizontal = 1;
origin = "{0, 17}";
target = "{0, 8}";
type = Stem;
},
{
horizontal = 1;
origin = "{0, 13}";
target = down;
type = TopGhost;
},
{
place = "{80, 60}";
type = Stem;
},
{
place = "{544, 60}";
type = Stem;
}
);
layerId = "880850B5-8983-48F5-8B3B-C79FAB21DC5C";
paths = (
{
closed = 1;
nodes = (
"486 -9 OFFCURVE",
"604 109 OFFCURVE",
"604 254 CURVE SMOOTH",
"604 600 LINE",
"544 600 LINE",
"544 254 LINE SMOOTH",
"544 142 OFFCURVE",
"453 51 OFFCURVE",
"342 51 CURVE SMOOTH",
"231 51 OFFCURVE",
"140 142 OFFCURVE",
"140 254 CURVE SMOOTH",
"140 600 LINE",
"80 600 LINE",
"80 254 LINE SMOOTH",
"80 109 OFFCURVE",
"198 -9 OFFCURVE",
"342 -9 CURVE SMOOTH"
);
}
);
width = 684;
},
{
anchors = (
{
name = above;
position = "{366, 969}";
},
{
name = accent;
position = "{366, 759}";
},
{
name = below;
position = "{366, -167}";
},
{
name = bottom;
position = "{346, 0}";
}
);
guideLines = (
{
angle = 90;
position = "{366, 700}";
}
);
hints = (
{
horizontal = 1;
origin = "{0, 17}";
target = "{0, 8}";
type = Stem;
},
{
horizontal = 1;
origin = "{0, 13}";
target = down;
type = TopGhost;
},
{
place = "{80, 160}";
type = Stem;
},
{
place = "{492, 160}";
type = Stem;
}
);
layerId = "F6EA0DC9-EF0B-4EA3-BC35-C878CD5534E5";
paths = (
{
closed = 1;
nodes = (
"524 -9 OFFCURVE",
"652 119 OFFCURVE",
"652 277 CURVE SMOOTH",
"652 600 LINE",
"492 600 LINE",
"492 277 LINE SMOOTH",
"492 207 OFFCURVE",
"436 151 OFFCURVE",
"366 151 CURVE SMOOTH",
"296 151 OFFCURVE",
"240 207 OFFCURVE",
"240 277 CURVE SMOOTH",
"240 600 LINE",
"80 600 LINE",
"80 277 LINE SMOOTH",
"80 119 OFFCURVE",
"208 -9 OFFCURVE",
"366 -9 CURVE SMOOTH"
);
}
);
width = 732;
}
);
leftKerningGroup = u;
rightKerningGroup = u;
unicode = 0075;
},
{
glyphname = v;
lastChange = "2017-06-07 03:24:15 +0000";
layers = (
{
hints = (
{
horizontal = 1;
origin = "{0, 17}";
target = "{0, 8}";
type = Stem;
},
{
horizontal = 1;
origin = "{0, 13}";
target = down;
type = TopGhost;
}
);
layerId = "880850B5-8983-48F5-8B3B-C79FAB21DC5C";
paths = (
{
closed = 1;
nodes = (
"364 -7 OFFCURVE",
"405 22 OFFCURVE",
"419 66 CURVE SMOOTH",
"593 600 LINE",
"529 600 LINE",
"361 84 LINE SMOOTH",
"355 65 OFFCURVE",
"338 53 OFFCURVE",
"316 53 CURVE SMOOTH",
"294 53 OFFCURVE",
"277 65 OFFCURVE",
"271 84 CURVE SMOOTH",
"104 600 LINE",
"40 600 LINE",
"213 66 LINE SMOOTH",
"227 22 OFFCURVE",
"268 -7 OFFCURVE",
"316 -7 CURVE SMOOTH"
);
}
);
width = 633;
},
{
hints = (
{
horizontal = 1;
origin = "{0, 17}";
target = up;
type = BottomGhost;
},
{
horizontal = 1;
origin = "{0, 13}";
target = down;
type = TopGhost;
}
);
layerId = "F6EA0DC9-EF0B-4EA3-BC35-C878CD5534E5";
paths = (
{
closed = 1;
nodes = (
"401 -10 OFFCURVE",
"450 21 OFFCURVE",
"473 82 CURVE SMOOTH",
"665 600 LINE",
"494 600 LINE",
"357 229 LINE SMOOTH",
"356 226 OFFCURVE",
"354 224 OFFCURVE",
"352 224 CURVE SMOOTH",
"350 224 OFFCURVE",
"348 226 OFFCURVE",
"347 229 CURVE SMOOTH",
"210 600 LINE",
"40 600 LINE",
"231 82 LINE SMOOTH",
"254 21 OFFCURVE",
"303 -10 OFFCURVE",
"352 -10 CURVE SMOOTH"
);
}
);
width = 705;
}
);
leftKerningGroup = v;
rightKerningGroup = v;
unicode = 0076;
},
{
glyphname = w;
lastChange = "2017-06-05 22:25:26 +0000";
layers = (
{
anchors = (
{
name = accent;
position = "{450, 759}";
}
);
hints = (
{
horizontal = 1;
origin = "{1, 17}";
target = "{1, 8}";
type = Stem;
},
{
horizontal = 1;
origin = "{1, 13}";
target = down;
type = TopGhost;
},
{
place = "{73, 60}";
type = Stem;
},
{
place = "{420, 60}";
type = Stem;
},
{
place = "{767, 60}";
type = Stem;
}
);
layerId = "880850B5-8983-48F5-8B3B-C79FAB21DC5C";
paths = (
{
closed = 1;
nodes = (
"735 -10 OFFCURVE",
"827 81 OFFCURVE",
"827 194 CURVE SMOOTH",
"827 600 LINE",
"767 600 LINE",
"767 194 LINE SMOOTH",
"767 115 OFFCURVE",
"703 50 OFFCURVE",
"624 50 CURVE SMOOTH",
"544 50 OFFCURVE",
"480 114 OFFCURVE",
"480 194 CURVE",
"420 194 LINE",
"420 81 OFFCURVE",
"511 -10 OFFCURVE",
"624 -10 CURVE SMOOTH"
);
},
{
closed = 1;
nodes = (
"388 -10 OFFCURVE",
"480 81 OFFCURVE",
"480 194 CURVE SMOOTH",
"480 600 LINE",
"420 600 LINE",
"420 194 LINE SMOOTH",
"420 115 OFFCURVE",
"356 50 OFFCURVE",
"277 50 CURVE SMOOTH",
"197 50 OFFCURVE",
"133 114 OFFCURVE",
"133 194 CURVE SMOOTH",
"133 600 LINE",
"73 600 LINE",
"73 194 LINE SMOOTH",
"73 81 OFFCURVE",
"164 -10 OFFCURVE",
"277 -10 CURVE SMOOTH"
);
}
);
width = 900;
},
{
anchors = (
{
name = accent;
position = "{450, 759}";
}
);
hints = (
{
horizontal = 1;
origin = "{1, 17}";
target = "{1, 8}";
type = Stem;
},
{
horizontal = 1;
origin = "{1, 13}";
target = down;
type = TopGhost;
},
{
place = "{62, 160}";
type = Stem;
},
{
place = "{370, 160}";
type = Stem;
},
{
place = "{678, 160}";
type = Stem;
}
);
layerId = "F6EA0DC9-EF0B-4EA3-BC35-C878CD5534E5";
paths = (
{
closed = 1;
nodes = (
"733 -10 OFFCURVE",
"838 95 OFFCURVE",
"838 224 CURVE SMOOTH",
"838 600 LINE",
"678 600 LINE",
"678 224 LINE SMOOTH",
"678 183 OFFCURVE",
"645 150 OFFCURVE",
"604 150 CURVE SMOOTH",
"563 150 OFFCURVE",
"530 183 OFFCURVE",
"530 224 CURVE",
"370 224 LINE",
"370 95 OFFCURVE",
"475 -10 OFFCURVE",
"604 -10 CURVE SMOOTH"
);
},
{
closed = 1;
nodes = (
"425 -10 OFFCURVE",
"530 94 OFFCURVE",
"530 224 CURVE SMOOTH",
"530 600 LINE",
"370 600 LINE",
"370 224 LINE SMOOTH",
"370 183 OFFCURVE",
"337 150 OFFCURVE",
"296 150 CURVE SMOOTH",
"255 150 OFFCURVE",
"222 183 OFFCURVE",
"222 224 CURVE SMOOTH",
"222 600 LINE",
"62 600 LINE",
"62 224 LINE SMOOTH",
"62 95 OFFCURVE",
"167 -10 OFFCURVE",
"296 -10 CURVE SMOOTH"
);
}
);
width = 900;
}
);
leftKerningGroup = w;
rightKerningGroup = w;
unicode = 0077;
},
{
glyphname = x;
lastChange = "2017-06-05 20:33:49 +0000";
layers = (
{
hints = (
{
horizontal = 1;
origin = "{1, 15}";
target = up;
type = BottomGhost;
},
{
horizontal = 1;
origin = "{0, 8}";
target = down;
type = TopGhost;
},
{
place = "{75, 60}";
type = Stem;
},
{
place = "{565, 60}";
type = Stem;
}
);
layerId = "880850B5-8983-48F5-8B3B-C79FAB21DC5C";
paths = (
{
closed = 1;
nodes = (
"625 0 LINE",
"625 97 OFFCURVE",
"570 175 OFFCURVE",
"493 232 CURVE SMOOTH",
"236 420 LINE SMOOTH",
"175 465 OFFCURVE",
"135 523 OFFCURVE",
"135 600 CURVE",
"75 600 LINE",
"75 502 OFFCURVE",
"129 424 OFFCURVE",
"206 368 CURVE SMOOTH",
"463 180 LINE SMOOTH",
"525 135 OFFCURVE",
"564 77 OFFCURVE",
"565 0 CURVE"
);
},
{
closed = 1;
nodes = (
"135 0 LINE",
"135 76 OFFCURVE",
"176 135 OFFCURVE",
"237 180 CURVE SMOOTH",
"494 368 LINE SMOOTH",
"571 424 OFFCURVE",
"625 502 OFFCURVE",
"625 600 CURVE",
"565 600 LINE",
"565 523 OFFCURVE",
"525 465 OFFCURVE",
"464 420 CURVE SMOOTH",
"207 232 LINE SMOOTH",
"130 176 OFFCURVE",
"75 97 OFFCURVE",
"75 0 CURVE"
);
}
);
width = 700;
},
{
guideLines = (
{
angle = 90;
position = "{681, 642}";
}
);
hints = (
{
horizontal = 1;
origin = "{1, 15}";
target = up;
type = BottomGhost;
},
{
horizontal = 1;
origin = "{0, 8}";
target = down;
type = TopGhost;
},
{
place = "{49, 160}";
type = Stem;
},
{
place = "{491, 160}";
type = Stem;
}
);
layerId = "F6EA0DC9-EF0B-4EA3-BC35-C878CD5534E5";
paths = (
{
closed = 1;
nodes = (
"651 0 LINE",
"651 87 OFFCURVE",
"608 165 OFFCURVE",
"545 225 CURVE SMOOTH",
"257 499 LINE SMOOTH",
"228 527 OFFCURVE",
"209 560 OFFCURVE",
"209 600 CURVE",
"49 600 LINE",
"49 513 OFFCURVE",
"92 435 OFFCURVE",
"155 375 CURVE SMOOTH",
"443 101 LINE SMOOTH",
"472 73 OFFCURVE",
"491 40 OFFCURVE",
"491 0 CURVE"
);
},
{
closed = 1;
nodes = (
"209 0 LINE",
"209 40 OFFCURVE",
"228 73 OFFCURVE",
"257 101 CURVE SMOOTH",
"545 375 LINE SMOOTH",
"608 435 OFFCURVE",
"651 513 OFFCURVE",
"651 600 CURVE",
"491 600 LINE",
"491 560 OFFCURVE",
"472 527 OFFCURVE",
"443 499 CURVE SMOOTH",
"155 225 LINE SMOOTH",
"92 165 OFFCURVE",
"49 87 OFFCURVE",
"49 0 CURVE"
);
}
);
width = 700;
}
);
leftKerningGroup = x;
rightKerningGroup = x;
unicode = 0078;
},
{
glyphname = y;
lastChange = "2017-06-05 22:25:23 +0000";
layers = (
{
anchors = (
{
name = above;
position = "{351, 939}";
},
{
name = accent;
position = "{351, 759}";
}
);
hints = (
{
horizontal = 1;
origin = "{0, 11}";
target = "{0, 10}";
type = Stem;
},
{
horizontal = 1;
origin = "{1, 15}";
target = "{1, 6}";
type = Stem;
},
{
horizontal = 1;
origin = "{1, 11}";
target = down;
type = TopGhost;
},
{
place = "{88, 68}";
type = Stem;
},
{
place = "{552, 68}";
type = Stem;
}
);
layerId = "880850B5-8983-48F5-8B3B-C79FAB21DC5C";
paths = (
{
closed = 1;
nodes = (
"397 -229 LINE SMOOTH",
"515 -229 OFFCURVE",
"612 -132 OFFCURVE",
"612 -14 CURVE SMOOTH",
"612 600 LINE",
"552 600 LINE",
"552 -14 LINE SMOOTH",
"552 -99 OFFCURVE",
"482 -169 OFFCURVE",
"397 -169 CURVE SMOOTH",
"127 -169 LINE",
"127 -229 LINE"
);
},
{
closed = 1;
nodes = (
"494 -9 OFFCURVE",
"612 109 OFFCURVE",
"612 254 CURVE",
"552 254 LINE",
"552 142 OFFCURVE",
"461 51 OFFCURVE",
"350 51 CURVE SMOOTH",
"239 51 OFFCURVE",
"148 142 OFFCURVE",
"148 254 CURVE SMOOTH",
"148 600 LINE",
"88 600 LINE",
"88 254 LINE SMOOTH",
"88 109 OFFCURVE",
"206 -9 OFFCURVE",
"350 -9 CURVE SMOOTH"
);
}
);
width = 700;
},
{
anchors = (
{
name = above;
position = "{353, 939}";
},
{
name = accent;
position = "{353, 759}";
}
);
guideLines = (
{
angle = 90;
position = "{370, 700}";
}
);
hints = (
{
horizontal = 1;
place = "{-230, 160}";
type = Stem;
},
{
horizontal = 1;
place = "{9, 153}";
type = Stem;
},
{
horizontal = 1;
place = "{600, -20}";
target = down;
type = TopGhost;
},
{
place = "{63, 143}";
type = Stem;
},
{
place = "{477, 143}";
type = Stem;
}
);
layerId = "F6EA0DC9-EF0B-4EA3-BC35-C878CD5534E5";
paths = (
{
closed = 1;
nodes = (
"395 -230 LINE SMOOTH",
"530 -230 OFFCURVE",
"637 -123 OFFCURVE",
"637 12 CURVE SMOOTH",
"637 600 LINE",
"477 600 LINE",
"477 12 LINE SMOOTH",
"477 -35 OFFCURVE",
"442 -70 OFFCURVE",
"395 -70 CURVE SMOOTH",
"153 -70 LINE",
"153 -230 LINE"
);
},
{
closed = 1;
nodes = (
"477 9 OFFCURVE",
"568 62 OFFCURVE",
"625 140 CURVE",
"510 230 LINE",
"479 188 OFFCURVE",
"428 162 OFFCURVE",
"380 162 CURVE SMOOTH",
"299 162 OFFCURVE",
"223 238 OFFCURVE",
"223 319 CURVE SMOOTH",
"223 600 LINE",
"63 600 LINE",
"63 319 LINE SMOOTH",
"63 150 OFFCURVE",
"203 9 OFFCURVE",
"373 9 CURVE SMOOTH"
);
}
);
width = 700;
}
);
leftKerningGroup = y;
rightKerningGroup = y;
unicode = 0079;
},
{
glyphname = z;
lastChange = "2017-06-07 03:24:10 +0000";
layers = (
{
anchors = (
{
name = accent;
position = "{392, 759}";
}
);
hints = (
{
horizontal = 1;
origin = "{0, 31}";
target = "{0, 2}";
type = Stem;
},
{
horizontal = 1;
origin = "{0, 16}";
target = "{0, 17}";
type = Stem;
},
{
place = "{104, 62}";
type = Stem;
},
{
place = "{583, 62}";
type = Stem;
}
);
layerId = "880850B5-8983-48F5-8B3B-C79FAB21DC5C";
paths = (
{
closed = 1;
nodes = (
"645 0 LINE",
"645 60 LINE",
"182 60 LINE SMOOTH",
"172 60 OFFCURVE",
"166 66 OFFCURVE",
"166 74 CURVE SMOOTH",
"166 79 OFFCURVE",
"168 83 OFFCURVE",
"172 87 CURVE SMOOTH",
"616 467 LINE SMOOTH",
"636 484 OFFCURVE",
"645 506 OFFCURVE",
"645 526 CURVE SMOOTH",
"645 564 OFFCURVE",
"615 600 OFFCURVE",
"567 600 CURVE SMOOTH",
"124 600 LINE",
"124 540 LINE",
"567 540 LINE SMOOTH",
"577 540 OFFCURVE",
"583 534 OFFCURVE",
"583 526 CURVE SMOOTH",
"583 521 OFFCURVE",
"581 517 OFFCURVE",
"577 513 CURVE SMOOTH",
"133 133 LINE SMOOTH",
"113 116 OFFCURVE",
"104 94 OFFCURVE",
"104 74 CURVE SMOOTH",
"104 36 OFFCURVE",
"134 0 OFFCURVE",
"182 0 CURVE SMOOTH"
);
}
);
width = 750;
},
{
anchors = (
{
name = accent;
position = "{385, 759}";
}
);
hints = (
{
horizontal = 1;
origin = "{0, 31}";
target = "{0, 2}";
type = Stem;
},
{
horizontal = 1;
origin = "{0, 16}";
target = "{0, 17}";
type = Stem;
}
);
layerId = "F6EA0DC9-EF0B-4EA3-BC35-C878CD5534E5";
paths = (
{
closed = 1;
nodes = (
"678 0 LINE",
"678 160 LINE",
"167 160 LINE",
"206 160 OFFCURVE",
"232 127 OFFCURVE",
"232 93 CURVE SMOOTH",
"232 76 OFFCURVE",
"225 60 OFFCURVE",
"210 46 CURVE",
"645 434 LINE SMOOTH",
"668 454 OFFCURVE",
"678 480 OFFCURVE",
"678 505 CURVE SMOOTH",
"678 554 OFFCURVE",
"640 600 OFFCURVE",
"582 600 CURVE SMOOTH",
"81 600 LINE",
"81 440 LINE",
"582 440 LINE",
"543 440 OFFCURVE",
"517 473 OFFCURVE",
"517 507 CURVE SMOOTH",
"517 523 OFFCURVE",
"524 540 OFFCURVE",
"538 553 CURVE",
"104 166 LINE SMOOTH",
"81 146 OFFCURVE",
"71 120 OFFCURVE",
"71 95 CURVE SMOOTH",
"71 46 OFFCURVE",
"109 0 OFFCURVE",
"167 0 CURVE SMOOTH"
);
}
);
width = 750;
}
);
leftKerningGroup = z;
rightKerningGroup = z;
unicode = 007A;
},
{
glyphname = E_S;
lastChange = "2017-06-05 15:44:56 +0000";
layers = (
{
hints = (
{
horizontal = 1;
origin = "{0, 41}";
target = "{0, 38}";
type = Stem;
},
{
horizontal = 1;
origin = "{1, 3}";
target = "{1, 2}";
type = Stem;
},
{
horizontal = 1;
origin = "{0, 34}";
target = "{0, 37}";
type = Stem;
},
{
place = "{80, 160}";
type = Stem;
},
{
place = "{745, 160}";
type = Stem;
},
{
place = "{1193, 160}";
type = Stem;
}
);
layerId = "F6EA0DC9-EF0B-4EA3-BC35-C878CD5534E5";
paths = (
{
closed = 1;
nodes = (
"1131 0 LINE SMOOTH",
"1248 0 OFFCURVE",
"1346 96 OFFCURVE",
"1346 215 CURVE SMOOTH",
"1346 333 OFFCURVE",
"1249 430 OFFCURVE",
"1131 430 CURVE SMOOTH",
"953 430 LINE SMOOTH",
"922 430 OFFCURVE",
"898 454 OFFCURVE",
"898 485 CURVE SMOOTH",
"898 516 OFFCURVE",
"922 540 OFFCURVE",
"953 540 CURVE SMOOTH",
"1306 540 LINE",
"1306 700 LINE",
"953 700 LINE SMOOTH",
"834 700 OFFCURVE",
"738 602 OFFCURVE",
"738 485 CURVE SMOOTH",
"738 366 OFFCURVE",
"834 270 OFFCURVE",
"953 270 CURVE SMOOTH",
"1131 270 LINE SMOOTH",
"1161 270 OFFCURVE",
"1186 245 OFFCURVE",
"1186 215 CURVE SMOOTH",
"1186 184 OFFCURVE",
"1162 160 OFFCURVE",
"1131 160 CURVE SMOOTH",
"233 160 LINE",
"233 540 LINE",
"688 540 LINE",
"688 700 LINE",
"233 700 LINE SMOOTH",
"129 700 OFFCURVE",
"73 644 OFFCURVE",
"73 540 CURVE SMOOTH",
"73 160 LINE SMOOTH",
"73 56 OFFCURVE",
"129 0 OFFCURVE",
"233 0 CURVE SMOOTH"
);
},
{
closed = 1;
nodes = (
"546 270 LINE",
"546 430 LINE",
"153 430 LINE",
"153 270 LINE"
);
}
);
width = 1426;
},
{
hints = (
{
horizontal = 1;
origin = "{0, 41}";
target = "{0, 38}";
type = Stem;
},
{
horizontal = 1;
origin = "{1, 3}";
target = "{1, 2}";
type = Stem;
},
{
horizontal = 1;
origin = "{0, 34}";
target = "{0, 37}";
type = Stem;
},
{
place = "{80, 60}";
type = Stem;
},
{
place = "{715, 60}";
type = Stem;
},
{
place = "{1263, 60}";
type = Stem;
}
);
layerId = "880850B5-8983-48F5-8B3B-C79FAB21DC5C";
paths = (
{
closed = 1;
nodes = (
"1141 0 LINE SMOOTH",
"1246 0 OFFCURVE",
"1331 85 OFFCURVE",
"1331 190 CURVE SMOOTH",
"1331 295 OFFCURVE",
"1246 380 OFFCURVE",
"1141 380 CURVE SMOOTH",
"913 380 LINE SMOOTH",
"841 380 OFFCURVE",
"783 438 OFFCURVE",
"783 510 CURVE SMOOTH",
"783 582 OFFCURVE",
"841 640 OFFCURVE",
"913 640 CURVE SMOOTH",
"1291 640 LINE",
"1291 700 LINE",
"913 700 LINE SMOOTH",
"808 700 OFFCURVE",
"723 615 OFFCURVE",
"723 510 CURVE SMOOTH",
"723 405 OFFCURVE",
"808 320 OFFCURVE",
"913 320 CURVE SMOOTH",
"1141 320 LINE SMOOTH",
"1213 320 OFFCURVE",
"1271 262 OFFCURVE",
"1271 190 CURVE SMOOTH",
"1271 118 OFFCURVE",
"1213 60 OFFCURVE",
"1141 60 CURVE SMOOTH",
"148 60 LINE",
"148 640 LINE",
"673 640 LINE",
"673 700 LINE",
"148 700 LINE SMOOTH",
"109 700 OFFCURVE",
"88 679 OFFCURVE",
"88 640 CURVE SMOOTH",
"88 60 LINE SMOOTH",
"88 21 OFFCURVE",
"109 0 OFFCURVE",
"148 0 CURVE SMOOTH"
);
},
{
closed = 1;
nodes = (
"511 320 LINE",
"511 380 LINE",
"118 380 LINE",
"118 320 LINE"
);
}
);
width = 1391;
}
);
leftMetricsKey = E;
rightMetricsKey = S;
},
{
glyphname = E_S.ss01;
lastChange = "2017-06-05 15:44:54 +0000";
layers = (
{
hints = (
{
horizontal = 1;
origin = "{0, 41}";
target = "{0, 38}";
type = Stem;
},
{
horizontal = 1;
origin = "{0, 37}";
target = "{0, 34}";
type = Stem;
},
{
horizontal = 1;
origin = "{1, 2}";
target = "{1, 3}";
type = Stem;
},
{
place = "{80, 160}";
type = Stem;
},
{
place = "{745, 160}";
type = Stem;
},
{
place = "{1193, 160}";
type = Stem;
}
);
layerId = "F6EA0DC9-EF0B-4EA3-BC35-C878CD5534E5";
paths = (
{
closed = 1;
nodes = (
"1131 0 LINE SMOOTH",
"1248 0 OFFCURVE",
"1346 96 OFFCURVE",
"1346 215 CURVE SMOOTH",
"1346 333 OFFCURVE",
"1249 430 OFFCURVE",
"1131 430 CURVE SMOOTH",
"953 430 LINE SMOOTH",
"922 430 OFFCURVE",
"898 454 OFFCURVE",
"898 485 CURVE SMOOTH",
"898 516 OFFCURVE",
"922 540 OFFCURVE",
"953 540 CURVE SMOOTH",
"1306 540 LINE",
"1306 700 LINE",
"953 700 LINE SMOOTH",
"834 700 OFFCURVE",
"738 602 OFFCURVE",
"738 485 CURVE SMOOTH",
"738 366 OFFCURVE",
"834 270 OFFCURVE",
"953 270 CURVE SMOOTH",
"1131 270 LINE SMOOTH",
"1161 270 OFFCURVE",
"1186 245 OFFCURVE",
"1186 215 CURVE SMOOTH",
"1186 184 OFFCURVE",
"1162 160 OFFCURVE",
"1131 160 CURVE SMOOTH",
"233 160 LINE",
"233 270 LINE",
"688 270 LINE",
"688 430 LINE",
"233 430 LINE SMOOTH",
"129 430 OFFCURVE",
"73 374 OFFCURVE",
"73 270 CURVE SMOOTH",
"73 160 LINE SMOOTH",
"73 56 OFFCURVE",
"129 0 OFFCURVE",
"233 0 CURVE SMOOTH"
);
},
{
closed = 1;
nodes = (
"689 540 LINE",
"689 700 LINE",
"103 700 LINE",
"103 540 LINE"
);
}
);
width = 1426;
},
{
hints = (
{
horizontal = 1;
origin = "{0, 41}";
target = "{0, 38}";
type = Stem;
},
{
horizontal = 1;
origin = "{0, 22}";
target = "{0, 7}";
type = Stem;
},
{
horizontal = 1;
origin = "{1, 2}";
target = "{1, 3}";
type = Stem;
},
{
horizontal = 1;
origin = "{0, 37}";
target = "{0, 34}";
type = Stem;
},
{
place = "{80, 60}";
type = Stem;
},
{
place = "{715, 60}";
type = Stem;
},
{
place = "{1263, 60}";
type = Stem;
}
);
layerId = "880850B5-8983-48F5-8B3B-C79FAB21DC5C";
paths = (
{
closed = 1;
nodes = (
"1141 0 LINE SMOOTH",
"1246 0 OFFCURVE",
"1331 85 OFFCURVE",
"1331 190 CURVE SMOOTH",
"1331 295 OFFCURVE",
"1246 380 OFFCURVE",
"1141 380 CURVE SMOOTH",
"913 380 LINE SMOOTH",
"841 380 OFFCURVE",
"783 438 OFFCURVE",
"783 510 CURVE SMOOTH",
"783 582 OFFCURVE",
"841 640 OFFCURVE",
"913 640 CURVE SMOOTH",
"1291 640 LINE",
"1291 700 LINE",
"913 700 LINE SMOOTH",
"808 700 OFFCURVE",
"723 615 OFFCURVE",
"723 510 CURVE SMOOTH",
"723 405 OFFCURVE",
"808 320 OFFCURVE",
"913 320 CURVE SMOOTH",
"1141 320 LINE SMOOTH",
"1213 320 OFFCURVE",
"1271 262 OFFCURVE",
"1271 190 CURVE SMOOTH",
"1271 118 OFFCURVE",
"1213 60 OFFCURVE",
"1141 60 CURVE SMOOTH",
"148 60 LINE",
"148 317 LINE",
"673 317 LINE",
"673 377 LINE",
"148 377 LINE SMOOTH",
"109 377 OFFCURVE",
"88 356 OFFCURVE",
"88 317 CURVE SMOOTH",
"88 60 LINE SMOOTH",
"88 21 OFFCURVE",
"109 0 OFFCURVE",
"148 0 CURVE SMOOTH"
);
},
{
closed = 1;
nodes = (
"673 640 LINE",
"673 700 LINE",
"98 700 LINE",
"98 640 LINE"
);
}
);
width = 1391;
}
);
leftMetricsKey = E;
rightMetricsKey = S;
},
{
glyphname = I_J;
lastChange = "2017-04-16 11:40:20 +0000";
layers = (
{
hints = (
{
horizontal = 1;
origin = "{0, 11}";
target = "{0, 10}";
type = Stem;
},
{
horizontal = 1;
origin = "{1, 2}";
target = down;
type = TopGhost;
},
{
place = "{140, 60}";
type = Stem;
},
{
place = "{405, 60}";
type = Stem;
}
);
layerId = "880850B5-8983-48F5-8B3B-C79FAB21DC5C";
paths = (
{
closed = 1;
nodes = (
"145 0 LINE SMOOTH",
"339 0 OFFCURVE",
"465 126 OFFCURVE",
"465 320 CURVE SMOOTH",
"465 700 LINE",
"405 700 LINE",
"405 320 LINE SMOOTH",
"405 159 OFFCURVE",
"306 60 OFFCURVE",
"145 60 CURVE SMOOTH",
"80 60 LINE",
"80 0 LINE"
);
},
{
closed = 1;
nodes = (
"200 160 LINE",
"200 700 LINE",
"140 700 LINE",
"140 160 LINE"
);
}
);
width = 565;
},
{
hints = (
{
horizontal = 1;
origin = "{0, 11}";
target = "{0, 10}";
type = Stem;
},
{
horizontal = 1;
origin = "{1, 2}";
target = down;
type = TopGhost;
},
{
place = "{130, 160}";
type = Stem;
},
{
place = "{395, 160}";
type = Stem;
}
);
layerId = "F6EA0DC9-EF0B-4EA3-BC35-C878CD5534E5";
paths = (
{
closed = 1;
nodes = (
"235 0 LINE SMOOTH",
"429 0 OFFCURVE",
"555 126 OFFCURVE",
"555 320 CURVE SMOOTH",
"555 700 LINE",
"395 700 LINE",
"395 320 LINE SMOOTH",
"395 216 OFFCURVE",
"339 160 OFFCURVE",
"235 160 CURVE SMOOTH",
"80 160 LINE",
"80 0 LINE"
);
},
{
closed = 1;
nodes = (
"290 320 LINE",
"290 700 LINE",
"130 700 LINE",
"130 320 LINE"
);
}
);
width = 635;
}
);
},
{
glyphname = K_S;
lastChange = "2017-06-05 15:44:51 +0000";
layers = (
{
hints = (
{
horizontal = 1;
origin = "{1, 3}";
target = "{0, 30}";
type = Stem;
},
{
horizontal = 1;
origin = "{0, 22}";
target = "{0, 7}";
type = Stem;
},
{
horizontal = 1;
origin = "{1, 2}";
target = "{0, 13}";
type = Stem;
},
{
place = "{80, 60}";
type = Stem;
},
{
place = "{210, 60}";
type = Stem;
},
{
place = "{630, 60}";
type = Stem;
},
{
place = "{1178, 60}";
type = Stem;
}
);
layerId = "880850B5-8983-48F5-8B3B-C79FAB21DC5C";
paths = (
{
closed = 1;
nodes = (
"1087 0 LINE SMOOTH",
"1192 0 OFFCURVE",
"1277 85 OFFCURVE",
"1277 190 CURVE SMOOTH",
"1277 295 OFFCURVE",
"1192 380 OFFCURVE",
"1087 380 CURVE SMOOTH",
"859 380 LINE SMOOTH",
"787 380 OFFCURVE",
"729 438 OFFCURVE",
"729 510 CURVE SMOOTH",
"729 582 OFFCURVE",
"787 640 OFFCURVE",
"859 640 CURVE SMOOTH",
"1237 640 LINE",
"1237 700 LINE",
"859 700 LINE SMOOTH",
"754 700 OFFCURVE",
"669 615 OFFCURVE",
"669 510 CURVE SMOOTH",
"669 405 OFFCURVE",
"754 320 OFFCURVE",
"859 320 CURVE SMOOTH",
"1087 320 LINE SMOOTH",
"1159 320 OFFCURVE",
"1217 262 OFFCURVE",
"1217 190 CURVE SMOOTH",
"1217 118 OFFCURVE",
"1159 60 OFFCURVE",
"1087 60 CURVE SMOOTH",
"548 60 LINE",
"548 0 LINE"
);
},
{
closed = 1;
nodes = (
"179 0 LINE",
"179 700 LINE",
"119 700 LINE",
"119 0 LINE"
);
},
{
closed = 1;
nodes = (
"648 0 LINE",
"321 244 LINE SMOOTH",
"313 250 OFFCURVE",
"309 259 OFFCURVE",
"309 268 CURVE SMOOTH",
"309 276 OFFCURVE",
"312 283 OFFCURVE",
"317 288 CURVE SMOOTH",
"697 700 LINE",
"615 700 LINE",
"273 329 LINE SMOOTH",
"257 312 OFFCURVE",
"249 290 OFFCURVE",
"249 267 CURVE SMOOTH",
"249 239 OFFCURVE",
"262 212 OFFCURVE",
"285 196 CURVE SMOOTH",
"548 0 LINE"
);
}
);
width = 1337;
},
{
hints = (
{
horizontal = 1;
origin = "{1, 3}";
target = "{0, 30}";
type = Stem;
},
{
horizontal = 1;
origin = "{0, 22}";
target = "{0, 7}";
type = Stem;
},
{
horizontal = 1;
origin = "{1, 2}";
target = "{0, 13}";
type = Stem;
},
{
place = "{80, 160}";
type = Stem;
},
{
place = "{294, 160}";
type = Stem;
},
{
place = "{707, 160}";
type = Stem;
},
{
place = "{1155, 160}";
type = Stem;
}
);
layerId = "F6EA0DC9-EF0B-4EA3-BC35-C878CD5534E5";
paths = (
{
closed = 1;
nodes = (
"1092 0 LINE",
"1209 0 OFFCURVE",
"1307 96 OFFCURVE",
"1307 215 CURVE",
"1307 333 OFFCURVE",
"1210 430 OFFCURVE",
"1092 430 CURVE",
"914 430 LINE",
"883 430 OFFCURVE",
"859 454 OFFCURVE",
"859 485 CURVE",
"859 516 OFFCURVE",
"883 540 OFFCURVE",
"914 540 CURVE",
"1267 540 LINE",
"1267 700 LINE",
"914 700 LINE",
"795 700 OFFCURVE",
"699 602 OFFCURVE",
"699 485 CURVE",
"699 366 OFFCURVE",
"795 270 OFFCURVE",
"914 270 CURVE",
"1092 270 LINE",
"1122 270 OFFCURVE",
"1147 245 OFFCURVE",
"1147 215 CURVE",
"1147 184 OFFCURVE",
"1123 160 OFFCURVE",
"1092 160 CURVE",
"543 160 LINE",
"543 0 LINE"
);
},
{
closed = 1;
nodes = (
"232 0 LINE",
"232 700 LINE",
"72 700 LINE",
"72 0 LINE"
);
},
{
closed = 1;
nodes = (
"705 0 LINE",
"457 248 LINE SMOOTH",
"450 255 OFFCURVE",
"446 266 OFFCURVE",
"446 276 CURVE SMOOTH",
"446 284 OFFCURVE",
"448 291 OFFCURVE",
"452 298 CURVE SMOOTH",
"709 700 LINE",
"519 700 LINE",
"317 384 LINE SMOOTH",
"297 352 OFFCURVE",
"286 314 OFFCURVE",
"286 276 CURVE SMOOTH",
"286 224 OFFCURVE",
"307 172 OFFCURVE",
"344 135 CURVE SMOOTH",
"479 0 LINE"
);
}
);
width = 1387;
}
);
leftKerningGroup = K;
leftMetricsKey = K;
rightKerningGroup = S;
rightMetricsKey = S;
},
{
glyphname = N_N;
lastChange = "2017-06-05 22:15:45 +0000";
layers = (
{
hints = (
{
horizontal = 1;
origin = "{0, 59}";
target = "{0, 36}";
type = Stem;
},
{
horizontal = 1;
origin = "{0, 43}";
target = "{0, 52}";
type = Stem;
},
{
horizontal = 1;
origin = "{0, 18}";
target = down;
type = TopGhost;
},
{
horizontal = 1;
origin = "{0, 47}";
target = up;
type = BottomGhost;
},
{
place = "{80, 60}";
type = Stem;
},
{
place = "{677, 60}";
type = Stem;
},
{
place = "{1274, 60}";
type = Stem;
}
);
layerId = "880850B5-8983-48F5-8B3B-C79FAB21DC5C";
paths = (
{
closed = 1;
nodes = (
"714 -22 OFFCURVE",
"779 39 OFFCURVE",
"779 123 CURVE SMOOTH",
"779 578 LINE SMOOTH",
"779 627 OFFCURVE",
"816 663 OFFCURVE",
"866 663 CURVE SMOOTH",
"903 663 OFFCURVE",
"934 640 OFFCURVE",
"947 601 CURVE",
"1091 84 LINE SMOOTH",
"1110 17 OFFCURVE",
"1167 -22 OFFCURVE",
"1230 -22 CURVE SMOOTH",
"1311 -22 OFFCURVE",
"1376 39 OFFCURVE",
"1376 123 CURVE SMOOTH",
"1376 701 LINE",
"1316 701 LINE",
"1316 123 LINE SMOOTH",
"1316 75 OFFCURVE",
"1283 38 OFFCURVE",
"1230 38 CURVE SMOOTH",
"1194 38 OFFCURVE",
"1160 60 OFFCURVE",
"1149 100 CURVE SMOOTH",
"1004 617 LINE SMOOTH",
"986 684 OFFCURVE",
"929 723 OFFCURVE",
"865 723 CURVE SMOOTH",
"812 723 OFFCURVE",
"719 686 OFFCURVE",
"719 578 CURVE SMOOTH",
"719 123 LINE SMOOTH",
"719 75 OFFCURVE",
"686 38 OFFCURVE",
"633 38 CURVE SMOOTH",
"597 38 OFFCURVE",
"563 60 OFFCURVE",
"552 100 CURVE SMOOTH",
"407 617 LINE SMOOTH",
"389 684 OFFCURVE",
"332 723 OFFCURVE",
"268 723 CURVE SMOOTH",
"215 723 OFFCURVE",
"122 686 OFFCURVE",
"122 578 CURVE SMOOTH",
"122 0 LINE",
"182 0 LINE",
"182 578 LINE SMOOTH",
"182 627 OFFCURVE",
"219 663 OFFCURVE",
"269 663 CURVE SMOOTH",
"306 663 OFFCURVE",
"337 640 OFFCURVE",
"350 601 CURVE",
"494 84 LINE SMOOTH",
"513 17 OFFCURVE",
"570 -22 OFFCURVE",
"633 -22 CURVE SMOOTH"
);
}
);
width = 1497;
},
{
hints = (
{
horizontal = 1;
origin = "{0, 59}";
target = "{0, 36}";
type = Stem;
},
{
horizontal = 1;
origin = "{0, 43}";
target = "{0, 52}";
type = Stem;
},
{
horizontal = 1;
origin = "{0, 18}";
target = down;
type = TopGhost;
},
{
horizontal = 1;
origin = "{0, 47}";
target = up;
type = BottomGhost;
},
{
place = "{80, 160}";
type = Stem;
},
{
place = "{633, 160}";
type = Stem;
},
{
place = "{1186, 160}";
type = Stem;
}
);
layerId = "F6EA0DC9-EF0B-4EA3-BC35-C878CD5534E5";
paths = (
{
closed = 1;
nodes = (
"721 -25 OFFCURVE",
"807 61 OFFCURVE",
"807 166 CURVE SMOOTH",
"807 535 LINE SMOOTH",
"807 552 OFFCURVE",
"821 566 OFFCURVE",
"838 566 CURVE SMOOTH",
"850 566 OFFCURVE",
"861 558 OFFCURVE",
"866 547 CURVE",
"989 105 LINE",
"1014 30 OFFCURVE",
"1086 -25 OFFCURVE",
"1170 -25 CURVE SMOOTH",
"1274 -25 OFFCURVE",
"1360 61 OFFCURVE",
"1360 166 CURVE SMOOTH",
"1360 701 LINE",
"1200 701 LINE",
"1200 166 LINE SMOOTH",
"1200 149 OFFCURVE",
"1186 135 OFFCURVE",
"1170 135 CURVE SMOOTH",
"1157 135 OFFCURVE",
"1146 143 OFFCURVE",
"1142 154 CURVE",
"1018 596 LINE",
"993 671 OFFCURVE",
"922 726 OFFCURVE",
"838 726 CURVE SMOOTH",
"733 726 OFFCURVE",
"647 640 OFFCURVE",
"647 535 CURVE SMOOTH",
"647 166 LINE SMOOTH",
"647 149 OFFCURVE",
"633 135 OFFCURVE",
"617 135 CURVE SMOOTH",
"604 135 OFFCURVE",
"593 143 OFFCURVE",
"589 154 CURVE",
"465 596 LINE",
"440 671 OFFCURVE",
"369 726 OFFCURVE",
"285 726 CURVE SMOOTH",
"180 726 OFFCURVE",
"94 640 OFFCURVE",
"94 535 CURVE SMOOTH",
"94 0 LINE",
"254 0 LINE",
"254 535 LINE SMOOTH",
"254 552 OFFCURVE",
"268 566 OFFCURVE",
"285 566 CURVE SMOOTH",
"297 566 OFFCURVE",
"308 558 OFFCURVE",
"313 547 CURVE",
"436 105 LINE",
"461 30 OFFCURVE",
"533 -25 OFFCURVE",
"617 -25 CURVE SMOOTH"
);
}
);
width = 1453;
}
);
leftKerningGroup = N;
leftMetricsKey = N;
rightKerningGroup = N;
rightMetricsKey = N;
},
{
glyphname = R_S;
lastChange = "2017-04-16 11:40:25 +0000";
layers = (
{
hints = (
{
horizontal = 1;
origin = "{0, 14}";
target = "{0, 44}";
type = Stem;
},
{
horizontal = 1;
origin = "{0, 36}";
target = "{0, 21}";
type = Stem;
},
{
horizontal = 1;
origin = "{0, 30}";
target = "{0, 27}";
type = Stem;
},
{
horizontal = 1;
origin = "{0, 48}";
target = "{0, 9}";
type = Stem;
},
{
place = "{80, 60}";
type = Stem;
},
{
place = "{350.76, 60.38}";
type = Stem;
},
{
place = "{668, 60}";
type = Stem;
},
{
place = "{768, 60}";
type = Stem;
},
{
place = "{1316, 60}";
type = Stem;
}
);
layerId = "880850B5-8983-48F5-8B3B-C79FAB21DC5C";
paths = (
{
closed = 1;
nodes = (
"140 -1 LINE",
"140 639 LINE",
"553 639 LINE SMOOTH",
"617 639 OFFCURVE",
"668 588 OFFCURVE",
"668 524 CURVE SMOOTH",
"668 461 OFFCURVE",
"617 409 OFFCURVE",
"553 409 CURVE SMOOTH",
"461 409 LINE SMOOTH",
"363 409 OFFCURVE",
"314 290 OFFCURVE",
"383 221 CURVE SMOOTH",
"606 -1 LINE",
"1186 0 LINE SMOOTH",
"1291 0 OFFCURVE",
"1376 85 OFFCURVE",
"1376 190 CURVE SMOOTH",
"1376 295 OFFCURVE",
"1291 380 OFFCURVE",
"1186 380 CURVE SMOOTH",
"958 380 LINE SMOOTH",
"886 380 OFFCURVE",
"828 438 OFFCURVE",
"828 510 CURVE SMOOTH",
"828 582 OFFCURVE",
"886 640 OFFCURVE",
"958 640 CURVE SMOOTH",
"1336 640 LINE",
"1336 700 LINE",
"958 700 LINE SMOOTH",
"853 700 OFFCURVE",
"768 615 OFFCURVE",
"768 510 CURVE SMOOTH",
"768 405 OFFCURVE",
"853 320 OFFCURVE",
"958 320 CURVE SMOOTH",
"1186 320 LINE SMOOTH",
"1258 320 OFFCURVE",
"1316 262 OFFCURVE",
"1316 190 CURVE SMOOTH",
"1316 118 OFFCURVE",
"1258 60 OFFCURVE",
"1186 60 CURVE SMOOTH",
"629 60 LINE",
"426 264 LINE SMOOTH",
"394 295 OFFCURVE",
"416 349 OFFCURVE",
"461 349 CURVE SMOOTH",
"553 349 LINE SMOOTH",
"650 349 OFFCURVE",
"728 428 OFFCURVE",
"728 524 CURVE SMOOTH",
"728 621 OFFCURVE",
"650 699 OFFCURVE",
"553 699 CURVE SMOOTH",
"140 699 LINE SMOOTH",
"101 699 OFFCURVE",
"80 678 OFFCURVE",
"80 639 CURVE SMOOTH",
"80 -1 LINE"
);
}
);
width = 1436;
},
{
hints = (
{
horizontal = 1;
origin = "{0, 60}";
target = "{0, 44}";
type = Stem;
},
{
horizontal = 1;
origin = "{0, 48}";
target = "{0, 9}";
type = Stem;
},
{
horizontal = 1;
origin = "{0, 56}";
target = "{0, 59}";
type = Stem;
},
{
place = "{80, 160}";
type = Stem;
},
{
place = "{291.96, 159.4}";
type = Stem;
},
{
place = "{568, 160}";
type = Stem;
},
{
place = "{768, 160}";
type = Stem;
},
{
place = "{1216, 160}";
type = Stem;
}
);
layerId = "F6EA0DC9-EF0B-4EA3-BC35-C878CD5534E5";
paths = (
{
closed = 1;
nodes = (
"240 0 LINE",
"240 540 LINE",
"512 540 LINE SMOOTH",
"543 540 OFFCURVE",
"568 515 OFFCURVE",
"568 485 CURVE SMOOTH",
"568 454 OFFCURVE",
"544 430 OFFCURVE",
"513 430 CURVE SMOOTH",
"474 430 LINE SMOOTH",
"313 430 OFFCURVE",
"231 233 OFFCURVE",
"345 119 CURVE SMOOTH",
"464 0 LINE",
"1161 0 LINE SMOOTH",
"1278 0 OFFCURVE",
"1376 96 OFFCURVE",
"1376 215 CURVE SMOOTH",
"1376 333 OFFCURVE",
"1279 430 OFFCURVE",
"1161 430 CURVE SMOOTH",
"983 430 LINE SMOOTH",
"952 430 OFFCURVE",
"928 454 OFFCURVE",
"928 485 CURVE SMOOTH",
"928 516 OFFCURVE",
"952 540 OFFCURVE",
"983 540 CURVE SMOOTH",
"1336 540 LINE",
"1336 700 LINE",
"983 700 LINE SMOOTH",
"864 700 OFFCURVE",
"768 602 OFFCURVE",
"768 485 CURVE SMOOTH",
"768 366 OFFCURVE",
"864 270 OFFCURVE",
"983 270 CURVE SMOOTH",
"1161 270 LINE SMOOTH",
"1191 270 OFFCURVE",
"1216 245 OFFCURVE",
"1216 215 CURVE SMOOTH",
"1216 184 OFFCURVE",
"1192 160 OFFCURVE",
"1161 160 CURVE SMOOTH",
"530 160 LINE",
"458 232 LINE",
"444 247 OFFCURVE",
"453 270 OFFCURVE",
"474 270 CURVE SMOOTH",
"513 270 LINE SMOOTH",
"631 270 OFFCURVE",
"728 367 OFFCURVE",
"728 486 CURVE",
"727 604 OFFCURVE",
"629 700 OFFCURVE",
"512 700 CURVE SMOOTH",
"240 700 LINE SMOOTH",
"136 700 OFFCURVE",
"80 644 OFFCURVE",
"80 540 CURVE SMOOTH",
"80 0 LINE"
);
}
);
width = 1456;
}
);
leftKerningGroup = R;
leftMetricsKey = R;
rightKerningGroup = S;
rightMetricsKey = S;
},
{
glyphname = "Be-cy";
lastChange = "2022-10-16 05:38:40 +0000";
layers = (
{
hints = (
{
horizontal = 1;
origin = "{0, 33}";
target = "{0, 30}";
type = Stem;
},
{
horizontal = 1;
origin = "{0, 8}";
target = "{0, 7}";
type = Stem;
},
{
horizontal = 1;
origin = "{0, 26}";
target = "{0, 23}";
type = Stem;
},
{
place = "{80, 160}";
type = Stem;
},
{
place = "{558, 160}";
type = Stem;
}
);
layerId = "F6EA0DC9-EF0B-4EA3-BC35-C878CD5534E5";
paths = (
{
closed = 1;
nodes = (
"508 0 LINE SMOOTH",
"624 0 OFFCURVE",
"718 93 OFFCURVE",
"718 209 CURVE SMOOTH",
"718 325 OFFCURVE",
"625 418 OFFCURVE",
"509 418 CURVE SMOOTH",
"160 418 LINE",
"160 258 LINE",
"509 258 LINE SMOOTH",
"537 258 OFFCURVE",
"558 237 OFFCURVE",
"558 209 CURVE SMOOTH",
"558 182 OFFCURVE",
"536 160 OFFCURVE",
"508 160 CURVE SMOOTH",
"243 160 LINE SMOOTH",
"241 160 OFFCURVE",
"240 161 OFFCURVE",
"240 163 CURVE SMOOTH",
"240 537 LINE SMOOTH",
"240 539 OFFCURVE",
"241 540 OFFCURVE",
"243 540 CURVE SMOOTH",
"593 540 LINE",
"593 700 LINE",
"243 700 LINE SMOOTH",
"145 700 OFFCURVE",
"80 635 OFFCURVE",
"80 537 CURVE SMOOTH",
"80 160 LINE SMOOTH",
"80 56 OFFCURVE",
"136 0 OFFCURVE",
"240 0 CURVE SMOOTH"
);
}
);
width = 778;
},
{
hints = (
{
horizontal = 1;
origin = "{0, 33}";
target = "{0, 16}";
type = Stem;
},
{
horizontal = 1;
origin = "{0, 8}";
target = "{0, 7}";
type = Stem;
},
{
horizontal = 1;
origin = "{0, 26}";
target = "{0, 23}";
type = Stem;
},
{
place = "{40, 60}";
type = Stem;
}
);
layerId = "880850B5-8983-48F5-8B3B-C79FAB21DC5C";
paths = (
{
closed = 1;
nodes = (
"528 0 LINE SMOOTH",
"644 0 OFFCURVE",
"738 93 OFFCURVE",
"738 209 CURVE SMOOTH",
"738 325 OFFCURVE",
"645 418 OFFCURVE",
"529 418 CURVE SMOOTH",
"130 418 LINE",
"130 358 LINE",
"529 358 LINE SMOOTH",
"612 358 OFFCURVE",
"678 292 OFFCURVE",
"678 209 CURVE SMOOTH",
"678 126 OFFCURVE",
"611 60 OFFCURVE",
"528 60 CURVE SMOOTH",
"260 60 LINE SMOOTH",
"189 60 OFFCURVE",
"160 89 OFFCURVE",
"160 160 CURVE SMOOTH",
"160 537 LINE SMOOTH",
"160 602 OFFCURVE",
"198 640 OFFCURVE",
"263 640 CURVE SMOOTH",
"613 640 LINE",
"613 700 LINE",
"263 700 LINE SMOOTH",
"165 700 OFFCURVE",
"100 635 OFFCURVE",
"100 537 CURVE SMOOTH",
"100 160 LINE SMOOTH",
"100 56 OFFCURVE",
"156 0 OFFCURVE",
"260 0 CURVE SMOOTH"
);
}
);
width = 838;
}
);
leftKerningGroup = I;
rightKerningGroup = "Be-cy";
unicode = 0411;
},
{
glyphname = "Ge-cy";
lastChange = "2017-04-15 03:42:48 +0000";
layers = (
{
anchors = (
{
name = above;
position = "{367, 1079}";
},
{
name = accent;
position = "{367, 869}";
},
{
name = below;
position = "{367, -167}";
}
);
layerId = "F6EA0DC9-EF0B-4EA3-BC35-C878CD5534E5";
paths = (
{
closed = 1;
nodes = (
"243 700 LINE SMOOTH",
"145 700 OFFCURVE",
"80 635 OFFCURVE",
"80 537 CURVE SMOOTH",
"80 0 LINE",
"240 0 LINE",
"240 537 LINE SMOOTH",
"240 539 OFFCURVE",
"241 540 OFFCURVE",
"243 540 CURVE SMOOTH",
"653 540 LINE",
"653 700 LINE"
);
}
);
width = 693;
},
{
anchors = (
{
name = above;
position = "{367, 1079}";
},
{
name = accent;
position = "{367, 869}";
},
{
name = below;
position = "{367, -167}";
}
);
layerId = "880850B5-8983-48F5-8B3B-C79FAB21DC5C";
paths = (
{
closed = 1;
nodes = (
"172 700 LINE SMOOTH",
"119 700 OFFCURVE",
"80 661 OFFCURVE",
"80 608 CURVE SMOOTH",
"80 0 LINE",
"140 0 LINE",
"140 609 LINE SMOOTH",
"140 626 OFFCURVE",
"154 640 OFFCURVE",
"171 640 CURVE SMOOTH",
"654 640 LINE",
"654 700 LINE"
);
}
);
width = 694;
}
);
unicode = 0413;
},
{
glyphname = "Gheupturn-cy";
lastChange = "2017-04-15 06:25:33 +0000";
layers = (
{
anchors = (
{
name = above;
position = "{367, 1079}";
},
{
name = accent;
position = "{367, 869}";
},
{
name = below;
position = "{367, -167}";
}
);
layerId = "F6EA0DC9-EF0B-4EA3-BC35-C878CD5534E5";
paths = (
{
closed = 1;
nodes = (
"240 0 LINE",
"240 537 LINE SMOOTH",
"240 539 OFFCURVE",
"241 540 OFFCURVE",
"243 540 CURVE SMOOTH",
"553 540 LINE",
"553 700 LINE",
"243 700 LINE SMOOTH",
"145 700 OFFCURVE",
"80 635 OFFCURVE",
"80 537 CURVE SMOOTH",
"80 0 LINE"
);
},
{
closed = 1;
nodes = (
"622 540 OFFCURVE",
"673 591 OFFCURVE",
"673 662 CURVE SMOOTH",
"673 802 LINE",
"553 802 LINE",
"553 540 LINE"
);
}
);
width = 733;
},
{
anchors = (
{
name = above;
position = "{367, 1079}";
},
{
name = accent;
position = "{367, 869}";
},
{
name = below;
position = "{367, -167}";
}
);
layerId = "880850B5-8983-48F5-8B3B-C79FAB21DC5C";
paths = (
{
closed = 1;
nodes = (
"140 0 LINE",
"140 609 LINE SMOOTH",
"140 626 OFFCURVE",
"154 640 OFFCURVE",
"171 640 CURVE SMOOTH",
"594 640 LINE",
"594 700 LINE",
"172 700 LINE SMOOTH",
"119 700 OFFCURVE",
"80 661 OFFCURVE",
"80 608 CURVE SMOOTH",
"80 0 LINE"
);
},
{
closed = 1;
nodes = (
"633 640 OFFCURVE",
"654 661 OFFCURVE",
"654 700 CURVE SMOOTH",
"654 800 LINE",
"594 800 LINE",
"594 640 LINE"
);
}
);
width = 714;
}
);
unicode = 0490;
},
{
glyphname = "De-cy";
lastChange = "2017-04-15 03:44:32 +0000";
layers = (
{
hints = (
{
horizontal = 1;
origin = "{2, 3}";
target = "{2, 2}";
type = Stem;
},
{
horizontal = 1;
origin = "{0, 17}";
target = "{0, 6}";
type = Stem;
},
{
place = "{167, 160}";
type = Stem;
},
{
place = "{582, 160}";
type = Stem;
},
{
origin = "{0, 24}";
target = "{2, 2}";
type = Stem;
},
{
place = "{742, 120}";
type = Stem;
}
);
layerId = "F6EA0DC9-EF0B-4EA3-BC35-C878CD5534E5";
paths = (
{
closed = 1;
nodes = (
"303 101 OFFCURVE",
"347 206 OFFCURVE",
"347 349 CURVE SMOOTH",
"347 537 LINE SMOOTH",
"347 539 OFFCURVE",
"348 540 OFFCURVE",
"350 540 CURVE SMOOTH",
"599 540 LINE SMOOTH",
"601 540 OFFCURVE",
"602 539 OFFCURVE",
"602 537 CURVE SMOOTH",
"602 0 LINE",
"762 0 LINE",
"762 537 LINE SMOOTH",
"762 635 OFFCURVE",
"697 700 OFFCURVE",
"599 700 CURVE SMOOTH",
"350 700 LINE SMOOTH",
"252 700 OFFCURVE",
"187 636 OFFCURVE",
"187 537 CURVE SMOOTH",
"187 349 LINE SMOOTH",
"187 247 OFFCURVE",
"161 185 OFFCURVE",
"89 113 CURVE",
"202 0 LINE"
);
},
{
closed = 1;
nodes = (
"180 -100 LINE",
"180 162 LINE",
"111 162 OFFCURVE",
"60 111 OFFCURVE",
"60 40 CURVE SMOOTH",
"60 -100 LINE"
);
},
{
closed = 1;
nodes = (
"682 0 LINE",
"682 160 LINE",
"180 160 LINE",
"180 0 LINE"
);
},
{
closed = 1;
nodes = (
"882 -100 LINE",
"882 40 LINE SMOOTH",
"882 111 OFFCURVE",
"831 162 OFFCURVE",
"762 162 CURVE",
"762 -100 LINE"
);
}
);
width = 942;
},
{
hints = (
{
horizontal = 1;
origin = "{0, 25}";
target = "{2, 2}";
type = Stem;
},
{
horizontal = 1;
origin = "{0, 17}";
target = "{0, 6}";
type = Stem;
},
{
place = "{100, 60}";
type = Stem;
},
{
place = "{222, 60}";
type = Stem;
},
{
place = "{677, 60}";
type = Stem;
},
{
place = "{737, 60}";
type = Stem;
}
);
layerId = "880850B5-8983-48F5-8B3B-C79FAB21DC5C";
paths = (
{
closed = 1;
nodes = (
"203 87 OFFCURVE",
"242 181 OFFCURVE",
"242 305 CURVE SMOOTH",
"242 609 LINE SMOOTH",
"242 626 OFFCURVE",
"256 640 OFFCURVE",
"273 640 CURVE SMOOTH",
"606 640 LINE SMOOTH",
"623 640 OFFCURVE",
"637 626 OFFCURVE",
"637 609 CURVE SMOOTH",
"637 0 LINE",
"697 0 LINE",
"697 608 LINE SMOOTH",
"697 661 OFFCURVE",
"658 700 OFFCURVE",
"605 700 CURVE SMOOTH",
"274 700 LINE SMOOTH",
"221 700 OFFCURVE",
"182 661 OFFCURVE",
"182 608 CURVE SMOOTH",
"182 305 LINE SMOOTH",
"182 196 OFFCURVE",
"150 119 OFFCURVE",
"73 42 CURVE",
"115 0 LINE"
);
},
{
closed = 1;
nodes = (
"120 -100 LINE",
"120 60 LINE",
"81 60 OFFCURVE",
"60 39 OFFCURVE",
"60 0 CURVE SMOOTH",
"60 -100 LINE"
);
},
{
closed = 1;
nodes = (
"667 0 LINE",
"667 60 LINE",
"115 60 LINE",
"115 0 LINE"
);
},
{
closed = 1;
nodes = (
"757 -100 LINE",
"757 0 LINE SMOOTH",
"757 39 OFFCURVE",
"736 60 OFFCURVE",
"697 60 CURVE",
"697 -100 LINE"
);
}
);
width = 817;
}
);
unicode = 0414;
},
{
glyphname = "De-cy.ss01";
lastChange = "2017-04-15 03:48:30 +0000";
layers = (
{
components = (
{
name = A.ss01;
transform = "{1, 0, 0, 1, 55, 0}";
}
);
hints = (
{
horizontal = 1;
origin = "{0, 3}";
target = "{0, 2}";
type = Stem;
},
{
horizontal = 1;
place = "{725, -179}";
type = Stem;
},
{
place = "{60, 120}";
type = Stem;
},
{
place = "{762, 120}";
type = Stem;
}
);
layerId = "F6EA0DC9-EF0B-4EA3-BC35-C878CD5534E5";
paths = (
{
closed = 1;
nodes = (
"762 0 LINE",
"762 160 LINE",
"180 160 LINE",
"180 0 LINE"
);
},
{
closed = 1;
nodes = (
"180 162 LINE",
"111 162 OFFCURVE",
"60 111 OFFCURVE",
"60 40 CURVE SMOOTH",
"60 -100 LINE",
"180 -100 LINE"
);
},
{
closed = 1;
nodes = (
"882 -100 LINE",
"882 40 LINE SMOOTH",
"882 111 OFFCURVE",
"831 162 OFFCURVE",
"762 162 CURVE",
"762 -100 LINE"
);
}
);
width = 942;
},
{
components = (
{
name = A.ss01;
transform = "{1, 0, 0, 1, 80, 0}";
}
);
hints = (
{
horizontal = 1;
origin = "{0, 3}";
target = "{0, 2}";
type = Stem;
},
{
horizontal = 1;
place = "{725, -60}";
type = Stem;
},
{
place = "{60, 60}";
type = Stem;
},
{
place = "{795, 60}";
type = Stem;
}
);
layerId = "880850B5-8983-48F5-8B3B-C79FAB21DC5C";
paths = (
{
closed = 1;
nodes = (
"795 0 LINE",
"795 60 LINE",
"120 60 LINE",
"120 0 LINE"
);
},
{
closed = 1;
nodes = (
"120 60 LINE",
"81 60 OFFCURVE",
"60 39 OFFCURVE",
"60 0 CURVE SMOOTH",
"60 -100 LINE",
"120 -100 LINE"
);
},
{
closed = 1;
nodes = (
"855 -100 LINE",
"855 0 LINE SMOOTH",
"855 39 OFFCURVE",
"834 60 OFFCURVE",
"795 60 CURVE",
"795 -100 LINE"
);
}
);
width = 915;
}
);
},
{
glyphname = "Zhe-cy";
lastChange = "2017-04-12 15:15:49 +0000";
layers = (
{
anchors = (
{
name = accent;
position = "{496, 869}";
}
);
hints = (
{
horizontal = 1;
origin = "{1, 17}";
target = up;
type = BottomGhost;
},
{
horizontal = 1;
origin = "{3, 3}";
target = "{3, 2}";
type = Stem;
},
{
horizontal = 1;
origin = "{0, 9}";
target = down;
type = TopGhost;
},
{
horizontal = 1;
origin = "{1, 9}";
target = down;
type = TopGhost;
},
{
place = "{405, 160}";
type = Stem;
}
);
layerId = "F6EA0DC9-EF0B-4EA3-BC35-C878CD5534E5";
paths = (
{
closed = 1;
nodes = (
"910 0 LINE",
"788 333 LINE",
"785 340 OFFCURVE",
"784 345 OFFCURVE",
"784 350 CURVE SMOOTH",
"784 355 OFFCURVE",
"785 359 OFFCURVE",
"788 367 CURVE SMOOTH",
"910 700 LINE",
"740 701 LINE",
"638 423 LINE SMOOTH",
"630 400 OFFCURVE",
"625 375 OFFCURVE",
"625 350 CURVE SMOOTH",
"625 325 OFFCURVE",
"629 300 OFFCURVE",
"638 277 CURVE SMOOTH",
"740 0 LINE"
);
},
{
closed = 1;
nodes = (
"230 -1 LINE",
"332 277 LINE SMOOTH",
"340 300 OFFCURVE",
"345 325 OFFCURVE",
"345 350 CURVE SMOOTH",
"345 375 OFFCURVE",
"341 400 OFFCURVE",
"332 423 CURVE SMOOTH",
"230 700 LINE",
"60 700 LINE",
"182 367 LINE",
"185 360 OFFCURVE",
"186 355 OFFCURVE",
"186 350 CURVE SMOOTH",
"186 345 OFFCURVE",
"185 341 OFFCURVE",
"182 333 CURVE SMOOTH",
"60 0 LINE"
);
},
{
closed = 1;
nodes = (
"565 0 LINE",
"565 700 LINE",
"405 700 LINE",
"405 0 LINE"
);
},
{
closed = 1;
nodes = (
"705 269 LINE",
"705 429 LINE",
"265 429 LINE",
"265 269 LINE"
);
}
);
width = 970;
},
{
anchors = (
{
name = accent;
position = "{453, 869}";
}
);
hints = (
{
horizontal = 1;
origin = "{1, 17}";
target = up;
type = BottomGhost;
},
{
horizontal = 1;
origin = "{3, 3}";
target = "{3, 2}";
type = Stem;
},
{
horizontal = 1;
origin = "{1, 9}";
target = down;
type = TopGhost;
},
{
place = "{302, 57}";
type = Stem;
},
{
place = "{422, 60}";
type = Stem;
},
{
place = "{545, 57}";
type = Stem;
}
);
layerId = "880850B5-8983-48F5-8B3B-C79FAB21DC5C";
paths = (
{
closed = 1;
nodes = (
"844 0 LINE",
"629 276 LINE SMOOTH",
"610 300 OFFCURVE",
"602 325 OFFCURVE",
"602 351 CURVE SMOOTH",
"602 377 OFFCURVE",
"611 402 OFFCURVE",
"628 425 CURVE SMOOTH",
"839 700 LINE",
"764 700 LINE",
"580 461 LINE SMOOTH",
"554 428 OFFCURVE",
"542 389 OFFCURVE",
"542 351 CURVE SMOOTH",
"542 312 OFFCURVE",
"555 274 OFFCURVE",
"581 240 CURVE SMOOTH",
"768 0 LINE"
);
},
{
closed = 1;
nodes = (
"140 0 LINE",
"324 239 LINE SMOOTH",
"350 272 OFFCURVE",
"362 311 OFFCURVE",
"362 349 CURVE SMOOTH",
"362 388 OFFCURVE",
"349 426 OFFCURVE",
"323 460 CURVE SMOOTH",
"136 700 LINE",
"60 700 LINE",
"275 424 LINE SMOOTH",
"294 400 OFFCURVE",
"302 375 OFFCURVE",
"302 349 CURVE SMOOTH",
"302 323 OFFCURVE",
"293 298 OFFCURVE",
"276 275 CURVE SMOOTH",
"65 0 LINE"
);
},
{
closed = 1;
nodes = (
"482 0 LINE",
"482 700 LINE",
"422 700 LINE",
"422 0 LINE"
);
},
{
closed = 1;
nodes = (
"575 321 LINE",
"575 381 LINE",
"329 381 LINE",
"329 321 LINE"
);
}
);
width = 904;
}
);
leftKerningGroup = "K-reversed";
rightKerningGroup = K;
unicode = 0416;
},
{
glyphname = "Ze-cy";
lastChange = "2017-04-11 22:58:02 +0000";
layers = (
{
anchors = (
{
name = above;
position = "{383, 1079}";
},
{
name = accent;
position = "{383, 869}";
},
{
name = below;
position = "{383, -167}";
},
{
name = bottom;
position = "{382, 8}";
}
);
guideLines = (
{
angle = -33.4908;
position = "{80, 604}";
},
{
angle = 33.4908;
position = "{80, 96}";
}
);
hints = (
{
horizontal = 1;
origin = "{0, 45}";
target = "{0, 38}";
type = Stem;
},
{
horizontal = 1;
origin = "{0, 30}";
target = "{0, 29}";
type = Stem;
},
{
horizontal = 1;
origin = "{0, 14}";
target = "{0, 21}";
type = Stem;
},
{
place = "{554, 160}";
type = Stem;
},
{
place = "{544, 160}";
type = Stem;
}
);
layerId = "F6EA0DC9-EF0B-4EA3-BC35-C878CD5534E5";
paths = (
{
closed = 1;
nodes = (
"499 0 LINE SMOOTH",
"617 0 OFFCURVE",
"714 97 OFFCURVE",
"714 215 CURVE SMOOTH",
"714 280 OFFCURVE",
"685 338 OFFCURVE",
"640 376 CURVE",
"641 333 LINE",
"682 374 OFFCURVE",
"704 428 OFFCURVE",
"704 485 CURVE SMOOTH",
"704 603 OFFCURVE",
"607 700 OFFCURVE",
"489 700 CURVE SMOOTH",
"259 700 LINE SMOOTH",
"185 700 OFFCURVE",
"119 662 OFFCURVE",
"80 604 CURVE",
"213 516 LINE",
"223 531 OFFCURVE",
"240 540 OFFCURVE",
"259 540 CURVE SMOOTH",
"489 540 LINE SMOOTH",
"520 540 OFFCURVE",
"544 516 OFFCURVE",
"544 485 CURVE SMOOTH",
"544 454 OFFCURVE",
"520 430 OFFCURVE",
"489 430 CURVE SMOOTH",
"259 430 LINE",
"259 270 LINE",
"499 270 LINE SMOOTH",
"530 270 OFFCURVE",
"554 246 OFFCURVE",
"554 215 CURVE SMOOTH",
"554 184 OFFCURVE",
"530 160 OFFCURVE",
"499 160 CURVE SMOOTH",
"259 160 LINE SMOOTH",
"240 160 OFFCURVE",
"223 169 OFFCURVE",
"213 184 CURVE",
"80 96 LINE",
"119 38 OFFCURVE",
"185 0 OFFCURVE",
"259 0 CURVE SMOOTH"
);
}
);
width = 774;
},
{
anchors = (
{
name = above;
position = "{393, 1079}";
},
{
name = accent;
position = "{393, 869}";
},
{
name = below;
position = "{393, -167}";
},
{
name = bottom;
position = "{392, 8}";
}
);
guideLines = (
{
angle = -33.9591;
position = "{110, 616}";
},
{
angle = 33.9591;
position = "{80, 84}";
}
);
hints = (
{
horizontal = 1;
origin = "{0, 45}";
target = "{0, 38}";
type = Stem;
},
{
horizontal = 1;
origin = "{0, 30}";
target = "{0, 29}";
type = Stem;
},
{
horizontal = 1;
origin = "{0, 14}";
target = "{0, 21}";
type = Stem;
},
{
place = "{661, 60}";
type = Stem;
},
{
place = "{621, 60}";
type = Stem;
}
);
layerId = "880850B5-8983-48F5-8B3B-C79FAB21DC5C";
paths = (
{
closed = 1;
nodes = (
"531 0 LINE SMOOTH",
"636 0 OFFCURVE",
"721 85 OFFCURVE",
"721 190 CURVE SMOOTH",
"721 281 OFFCURVE",
"668 353 OFFCURVE",
"583 374 CURVE",
"589 347 LINE",
"644 380 OFFCURVE",
"681 441 OFFCURVE",
"681 510 CURVE SMOOTH",
"681 615 OFFCURVE",
"596 700 OFFCURVE",
"491 700 CURVE SMOOTH",
"267 700 LINE SMOOTH",
"201 700 OFFCURVE",
"144 667 OFFCURVE",
"110 616 CURVE",
"159 583 LINE",
"183 618 OFFCURVE",
"222 640 OFFCURVE",
"267 640 CURVE SMOOTH",
"491 640 LINE SMOOTH",
"563 640 OFFCURVE",
"621 582 OFFCURVE",
"621 510 CURVE SMOOTH",
"621 438 OFFCURVE",
"563 380 OFFCURVE",
"491 380 CURVE SMOOTH",
"227 380 LINE",
"227 320 LINE",
"531 320 LINE SMOOTH",
"603 320 OFFCURVE",
"661 262 OFFCURVE",
"661 190 CURVE SMOOTH",
"661 118 OFFCURVE",
"603 60 OFFCURVE",
"531 60 CURVE SMOOTH",
"237 60 LINE SMOOTH",
"192 60 OFFCURVE",
"153 83 OFFCURVE",
"129 117 CURVE",
"80 84 LINE",
"114 33 OFFCURVE",
"171 0 OFFCURVE",
"237 0 CURVE SMOOTH"
);
}
);
width = 801;
}
);
unicode = 0417;
},
